<svg width="190" height="31" viewBox="0 0 190 31" fill="none" xmlns="http://www.w3.org/2000/svg">
<path d="M172.752 17.7855C172.77 18.2622 172.889 18.6708 173.11 19.0114C173.33 19.3348 173.615 19.5987 173.964 19.803C174.331 19.9903 174.735 20.1265 175.176 20.2116C175.635 20.2968 176.104 20.3393 176.581 20.3393C176.949 20.3393 177.335 20.3138 177.739 20.2627C178.143 20.2116 178.51 20.118 178.841 19.9818C179.19 19.8456 179.475 19.6498 179.695 19.3944C179.915 19.122 180.026 18.7815 180.026 18.3729C180.026 17.8111 179.796 17.3854 179.337 17.096C178.878 16.8066 178.299 16.5767 177.601 16.4065C176.921 16.2192 176.177 16.0575 175.369 15.9213C174.561 15.768 173.808 15.5637 173.11 15.3084C172.43 15.036 171.861 14.6614 171.402 14.1847C170.942 13.708 170.713 13.044 170.713 12.1927C170.713 11.5288 170.869 10.9584 171.181 10.4817C171.512 10.005 171.925 9.62193 172.421 9.3325C172.935 9.02605 173.505 8.80472 174.129 8.66852C174.772 8.51529 175.406 8.43867 176.03 8.43867C176.839 8.43867 177.583 8.50678 178.262 8.64298C178.942 8.76216 179.539 8.98348 180.053 9.30696C180.586 9.61342 181.008 10.039 181.321 10.5839C181.633 11.1116 181.816 11.7756 181.872 12.5758H179.53C179.493 12.1502 179.373 11.8012 179.171 11.5288C178.969 11.2393 178.712 11.0095 178.4 10.8392C178.088 10.669 177.739 10.5498 177.353 10.4817C176.986 10.3966 176.609 10.354 176.223 10.354C175.874 10.354 175.516 10.3796 175.149 10.4306C174.8 10.4817 174.478 10.5753 174.184 10.7115C173.89 10.8307 173.652 11.001 173.468 11.2223C173.284 11.4266 173.192 11.699 173.192 12.0395C173.192 12.4141 173.33 12.729 173.606 12.9844C173.9 13.2228 174.267 13.4271 174.708 13.5973C175.149 13.7506 175.645 13.8868 176.196 14.0059C176.747 14.1081 177.298 14.2187 177.849 14.3379C178.437 14.4571 179.006 14.6018 179.557 14.7721C180.127 14.9423 180.623 15.1722 181.045 15.4616C181.486 15.734 181.835 16.083 182.092 16.5086C182.368 16.9343 182.505 17.4621 182.505 18.092C182.505 18.8922 182.322 19.5562 181.954 20.0839C181.605 20.6117 181.137 21.0374 180.549 21.3608C179.98 21.6843 179.328 21.9056 178.593 22.0248C177.876 22.161 177.16 22.2291 176.444 22.2291C175.654 22.2291 174.901 22.1525 174.184 21.9993C173.468 21.8461 172.834 21.5992 172.283 21.2587C171.732 20.9012 171.291 20.4415 170.961 19.8796C170.63 19.3008 170.446 18.6027 170.41 17.7855H172.752Z" fill="black"/>
<path d="M165.584 14.0825C165.548 13.5718 165.419 13.0866 165.199 12.6269C164.996 12.1672 164.712 11.7756 164.344 11.4521C163.995 11.1116 163.573 10.8477 163.077 10.6605C162.599 10.4562 162.067 10.354 161.479 10.354C160.873 10.354 160.322 10.4562 159.826 10.6605C159.348 10.8477 158.935 11.1116 158.586 11.4521C158.237 11.7926 157.961 12.1927 157.759 12.6524C157.557 13.0951 157.438 13.5718 157.401 14.0825H165.584ZM167.844 17.76C167.531 19.2412 166.842 20.3563 165.777 21.1055C164.712 21.8546 163.371 22.2291 161.754 22.2291C160.616 22.2291 159.624 22.0589 158.779 21.7184C157.952 21.3779 157.254 20.9012 156.685 20.2882C156.115 19.6753 155.684 18.9432 155.39 18.092C155.114 17.2407 154.958 16.3129 154.921 15.3084C154.921 14.3039 155.087 13.3845 155.417 12.5503C155.748 11.716 156.207 10.9925 156.795 10.3796C157.401 9.76664 158.108 9.28994 158.917 8.94943C159.743 8.60893 160.643 8.43867 161.617 8.43867C162.884 8.43867 163.931 8.68554 164.758 9.17927C165.603 9.65598 166.273 10.2689 166.769 11.018C167.283 11.7671 167.632 12.5843 167.816 13.4696C168.018 14.3549 168.101 15.1977 168.064 15.9979H157.401C157.383 16.5767 157.456 17.1301 157.622 17.6578C157.787 18.1686 158.053 18.6283 158.421 19.0369C158.788 19.4285 159.256 19.7434 159.826 19.9818C160.395 20.2201 161.066 20.3393 161.837 20.3393C162.829 20.3393 163.637 20.1265 164.262 19.7009C164.905 19.2752 165.327 18.6283 165.529 17.76H167.844Z" fill="black"/>
<path d="M138.619 3.71428H140.961V10.5329H141.016C141.402 9.8008 142.008 9.27302 142.835 8.94954C143.661 8.60904 144.571 8.43878 145.562 8.43878C146.665 8.43878 147.62 8.62606 148.428 9.00062C149.254 9.37517 149.934 9.88593 150.467 10.5329C151.018 11.1628 151.431 11.8949 151.707 12.7291C151.982 13.5634 152.12 14.4487 152.12 15.3851C152.12 16.3215 151.982 17.2068 151.707 18.041C151.45 18.8753 151.045 19.6073 150.494 20.2373C149.962 20.8502 149.282 21.3354 148.455 21.6929C147.647 22.0505 146.701 22.2292 145.618 22.2292C145.269 22.2292 144.874 22.1952 144.433 22.1271C144.01 22.059 143.588 21.9483 143.165 21.7951C142.743 21.6419 142.339 21.4376 141.953 21.1822C141.586 20.9098 141.273 20.5778 141.016 20.1862H140.961V21.9483H138.619V3.71428ZM149.64 15.2319C149.64 14.6189 149.548 14.0231 149.365 13.4442C149.199 12.8483 148.933 12.3205 148.566 11.8609C148.217 11.4012 147.757 11.0351 147.188 10.7627C146.637 10.4903 145.985 10.3541 145.232 10.3541C144.442 10.3541 143.771 10.4988 143.22 10.7883C142.669 11.0777 142.219 11.4608 141.87 11.9375C141.521 12.3972 141.264 12.9249 141.099 13.5208C140.952 14.1167 140.878 14.7211 140.878 15.334C140.878 15.981 140.961 16.6109 141.126 17.2238C141.292 17.8197 141.549 18.3475 141.898 18.8072C142.265 19.2668 142.734 19.6414 143.303 19.9308C143.873 20.2032 144.561 20.3394 145.37 20.3394C146.178 20.3394 146.848 20.1947 147.381 19.9053C147.932 19.6159 148.373 19.2328 148.703 18.7561C149.034 18.2794 149.273 17.7346 149.42 17.1217C149.567 16.5087 149.64 15.8788 149.64 15.2319Z" fill="black"/>
<path d="M134.19 21.9486H131.986V19.8545H131.931C131.435 20.6717 130.802 21.2761 130.03 21.6677C129.259 22.0422 128.349 22.2295 127.302 22.2295C126.366 22.2295 125.585 22.1188 124.96 21.8975C124.336 21.6591 123.831 21.3271 123.445 20.9015C123.059 20.4759 122.784 19.9736 122.618 19.3948C122.471 18.7989 122.398 18.1434 122.398 17.4284V8.7455H124.74V17.6837C124.74 18.501 124.997 19.1479 125.511 19.6246C126.026 20.1013 126.733 20.3397 127.633 20.3397C128.349 20.3397 128.965 20.2375 129.479 20.0332C130.012 19.8289 130.453 19.5395 130.802 19.1649C131.151 18.7904 131.408 18.3562 131.573 17.8625C131.757 17.3518 131.849 16.7984 131.849 16.2026V8.7455H134.19V21.9486Z" fill="black"/>
<path d="M116.444 12.9844C116.261 12.1502 115.875 11.5032 115.287 11.0435C114.699 10.5839 113.91 10.354 112.918 10.354C112.073 10.354 111.366 10.4987 110.796 10.7882C110.227 11.0776 109.767 11.4607 109.418 11.9374C109.088 12.4141 108.849 12.9674 108.702 13.5973C108.555 14.2102 108.482 14.8487 108.482 15.5127C108.482 16.1256 108.555 16.7215 108.702 17.3003C108.867 17.8792 109.115 18.3984 109.446 18.8581C109.777 19.3008 110.208 19.6583 110.741 19.9307C111.274 20.2031 111.907 20.3393 112.642 20.3393C113.799 20.3393 114.699 20.0584 115.342 19.4966C116.004 18.9347 116.408 18.1431 116.555 17.1215H118.952C118.695 18.756 118.033 20.0158 116.968 20.9012C115.921 21.7865 114.488 22.2291 112.67 22.2291C111.586 22.2291 110.622 22.0674 109.777 21.7439C108.95 21.4204 108.252 20.9607 107.683 20.3649C107.132 19.769 106.709 19.0624 106.415 18.2452C106.14 17.411 106.002 16.5001 106.002 15.5127C106.002 14.5252 106.14 13.6058 106.415 12.7546C106.691 11.8863 107.104 11.1372 107.655 10.5072C108.225 9.86028 108.932 9.35804 109.777 9.00051C110.622 8.62595 111.604 8.43867 112.725 8.43867C113.533 8.43867 114.286 8.53231 114.984 8.71959C115.7 8.88984 116.325 9.16225 116.858 9.5368C117.409 9.91136 117.859 10.3881 118.208 10.9669C118.557 11.5288 118.777 12.2013 118.869 12.9844H116.444Z" fill="black"/>
<path d="M93.6017 17.7855C93.6201 18.2622 93.7395 18.6708 93.9599 19.0114C94.1803 19.3348 94.4651 19.5987 94.8141 19.803C95.1814 19.9903 95.5855 20.1265 96.0264 20.2116C96.4856 20.2968 96.954 20.3393 97.4316 20.3393C97.7989 20.3393 98.1847 20.3138 98.5888 20.2627C98.9929 20.2116 99.3603 20.118 99.6909 19.9818C100.04 19.8456 100.325 19.6498 100.545 19.3944C100.765 19.122 100.876 18.7815 100.876 18.3729C100.876 17.8111 100.646 17.3854 100.187 17.096C99.7276 16.8066 99.149 16.5767 98.451 16.4065C97.7714 16.2192 97.0275 16.0575 96.2193 15.9213C95.411 15.768 94.6579 15.5637 93.9599 15.3084C93.2803 15.036 92.7109 14.6614 92.2517 14.1847C91.7925 13.708 91.5628 13.044 91.5628 12.1927C91.5628 11.5288 91.719 10.9584 92.0312 10.4817C92.3619 10.005 92.7752 9.62193 93.2711 9.3325C93.7854 9.02605 94.3549 8.80472 94.9794 8.66852C95.6223 8.51529 96.256 8.43867 96.8805 8.43867C97.6887 8.43867 98.4326 8.50678 99.1123 8.64298C99.7919 8.76216 100.389 8.98348 100.903 9.30696C101.436 9.61342 101.858 10.039 102.171 10.5839C102.483 11.1116 102.667 11.7756 102.722 12.5758H100.38C100.343 12.1502 100.224 11.8012 100.022 11.5288C99.8195 11.2393 99.5623 11.0095 99.25 10.8392C98.9378 10.669 98.5888 10.5498 98.203 10.4817C97.8357 10.3966 97.4591 10.354 97.0734 10.354C96.7244 10.354 96.3662 10.3796 95.9988 10.4306C95.6498 10.4817 95.3284 10.5753 95.0345 10.7115C94.7406 10.8307 94.5018 11.001 94.3181 11.2223C94.1344 11.4266 94.0426 11.699 94.0426 12.0395C94.0426 12.4141 94.1804 12.729 94.4559 12.9844C94.7498 13.2228 95.1171 13.4271 95.558 13.5973C95.9988 13.7506 96.4948 13.8868 97.0458 14.0059C97.5969 14.1081 98.1479 14.2187 98.699 14.3379C99.2868 14.4571 99.8562 14.6018 100.407 14.7721C100.977 14.9423 101.473 15.1722 101.895 15.4616C102.336 15.734 102.685 16.083 102.942 16.5086C103.218 16.9343 103.355 17.4621 103.355 18.092C103.355 18.8922 103.172 19.5562 102.804 20.0839C102.455 20.6117 101.987 21.0374 101.399 21.3608C100.83 21.6843 100.178 21.9056 99.4429 22.0248C98.7265 22.161 98.0102 22.2291 97.2938 22.2291C96.504 22.2291 95.7509 22.1525 95.0345 21.9993C94.3181 21.8461 93.6844 21.5992 93.1334 21.2587C92.5823 20.9012 92.1415 20.4415 91.8108 19.8796C91.4802 19.3008 91.2965 18.6027 91.2598 17.7855H93.6017Z" fill="#757575"/>
<path d="M78.9987 17.7855C79.0171 18.2622 79.1365 18.6708 79.3569 19.0114C79.5773 19.3348 79.862 19.5987 80.211 19.803C80.5784 19.9903 80.9825 20.1265 81.4233 20.2116C81.8826 20.2968 82.351 20.3393 82.8285 20.3393C83.1959 20.3393 83.5816 20.3138 83.9857 20.2627C84.3899 20.2116 84.7572 20.118 85.0879 19.9818C85.4369 19.8456 85.7216 19.6498 85.942 19.3944C86.1624 19.122 86.2726 18.7815 86.2726 18.3729C86.2726 17.8111 86.043 17.3854 85.5838 17.096C85.1246 16.8066 84.546 16.5767 83.848 16.4065C83.1684 16.2192 82.4244 16.0575 81.6162 15.9213C80.808 15.768 80.0549 15.5637 79.3569 15.3084C78.6773 15.036 78.1078 14.6614 77.6486 14.1847C77.1894 13.708 76.9598 13.044 76.9598 12.1927C76.9598 11.5288 77.1159 10.9584 77.4282 10.4817C77.7588 10.005 78.1721 9.62193 78.6681 9.3325C79.1824 9.02605 79.7518 8.80472 80.3763 8.66852C81.0192 8.51529 81.653 8.43867 82.2775 8.43867C83.0857 8.43867 83.8296 8.50678 84.5092 8.64298C85.1889 8.76216 85.7859 8.98348 86.3002 9.30696C86.8329 9.61342 87.2553 10.039 87.5676 10.5839C87.8799 11.1116 88.0635 11.7756 88.1186 12.5758H85.7767C85.7399 12.1502 85.6205 11.8012 85.4185 11.5288C85.2164 11.2393 84.9593 11.0095 84.647 10.8392C84.3347 10.669 83.9857 10.5498 83.6 10.4817C83.2326 10.3966 82.8561 10.354 82.4704 10.354C82.1213 10.354 81.7632 10.3796 81.3958 10.4306C81.0468 10.4817 80.7253 10.5753 80.4315 10.7115C80.1376 10.8307 79.8988 11.001 79.7151 11.2223C79.5314 11.4266 79.4396 11.699 79.4396 12.0395C79.4396 12.4141 79.5773 12.729 79.8528 12.9844C80.1467 13.2228 80.5141 13.4271 80.955 13.5973C81.3958 13.7506 81.8917 13.8868 82.4428 14.0059C82.9938 14.1081 83.5449 14.2187 84.096 14.3379C84.6837 14.4571 85.2532 14.6018 85.8042 14.7721C86.3736 14.9423 86.8696 15.1722 87.2921 15.4616C87.7329 15.734 88.0819 16.083 88.3391 16.5086C88.6146 16.9343 88.7524 17.4621 88.7524 18.092C88.7524 18.8922 88.5687 19.5562 88.2013 20.0839C87.8523 20.6117 87.3839 21.0374 86.7961 21.3608C86.2267 21.6843 85.5746 21.9056 84.8399 22.0248C84.1235 22.161 83.4071 22.2291 82.6908 22.2291C81.9009 22.2291 81.1478 22.1525 80.4315 21.9993C79.7151 21.8461 79.0814 21.5992 78.5303 21.2587C77.9793 20.9012 77.5384 20.4415 77.2078 19.8796C76.8772 19.3008 76.6935 18.6027 76.6567 17.7855H78.9987Z" fill="#757575"/>
<path d="M74.5615 21.8971C74.1574 22.1185 73.5972 22.2291 72.8808 22.2291C72.2746 22.2291 71.7879 22.0759 71.4205 21.7694C71.0715 21.446 70.897 20.9267 70.897 20.2116C70.2541 20.9267 69.501 21.446 68.6377 21.7694C67.7927 22.0759 66.8743 22.2291 65.8824 22.2291C65.2395 22.2291 64.6242 22.161 64.0364 22.0248C63.467 21.8886 62.971 21.6758 62.5485 21.3864C62.1261 21.0969 61.7862 20.7224 61.5291 20.2627C61.2903 19.786 61.1709 19.2157 61.1709 18.5517C61.1709 17.8026 61.3087 17.1896 61.5842 16.7129C61.8597 16.2362 62.2179 15.8532 62.6587 15.5637C63.118 15.2573 63.6323 15.0274 64.2017 14.8742C64.7895 14.721 65.3865 14.5933 65.9926 14.4911C66.6355 14.372 67.2417 14.2868 67.8111 14.2358C68.3989 14.1677 68.9132 14.0825 69.354 13.9804C69.7949 13.8612 70.1439 13.6995 70.401 13.4952C70.6582 13.2738 70.7868 12.9589 70.7868 12.5503C70.7868 12.0736 70.6858 11.6905 70.4837 11.4011C70.3 11.1116 70.052 10.8903 69.7398 10.7371C69.4459 10.5839 69.1061 10.4817 68.7203 10.4306C68.353 10.3796 67.9856 10.354 67.6182 10.354C66.6263 10.354 65.7997 10.5328 65.1385 10.8903C64.4772 11.2308 64.119 11.8863 64.0639 12.8567H61.722C61.7587 12.0395 61.9424 11.35 62.273 10.7882C62.6036 10.2263 63.0445 9.77516 63.5955 9.43465C64.1466 9.07712 64.7711 8.82174 65.4691 8.66852C66.1855 8.51529 66.9478 8.43867 67.756 8.43867C68.3989 8.43867 69.0326 8.48124 69.6571 8.56636C70.3 8.65149 70.8786 8.83026 71.3929 9.10266C71.9073 9.35804 72.3205 9.72408 72.6328 10.2008C72.9451 10.6775 73.1012 11.2989 73.1012 12.0651V18.8581C73.1012 19.3689 73.1288 19.7434 73.1839 19.9818C73.2573 20.2201 73.4778 20.3393 73.8451 20.3393C74.0472 20.3393 74.286 20.2968 74.5615 20.2116V21.8971ZM70.7592 15.1296C70.4653 15.3339 70.0796 15.4871 69.602 15.5893C69.1244 15.6744 68.6193 15.751 68.0866 15.8191C67.5723 15.8702 67.0488 15.9383 66.5161 16.0234C65.9834 16.0915 65.5059 16.2107 65.0834 16.381C64.6609 16.5512 64.3119 16.7981 64.0364 17.1215C63.7792 17.428 63.6506 17.8536 63.6506 18.3984C63.6506 18.756 63.7241 19.0624 63.8711 19.3178C64.0364 19.5562 64.2384 19.7519 64.4772 19.9052C64.7344 20.0584 65.0283 20.1691 65.3589 20.2372C65.6895 20.3053 66.0385 20.3393 66.4059 20.3393C67.1774 20.3393 67.8386 20.2457 68.3897 20.0584C68.9408 19.8541 69.3908 19.6072 69.7398 19.3178C70.0888 19.0114 70.3459 18.6879 70.5113 18.3474C70.6766 17.9898 70.7592 17.6578 70.7592 17.3514V15.1296Z" fill="#757575"/>
<path d="M55.145 3.71428H57.487V21.9483H55.145V3.71428Z" fill="#757575"/>
<path d="M50.6493 20.8245C50.6493 22.9867 50.1166 24.6041 49.0513 25.6767C47.9859 26.7493 46.3144 27.2856 44.0367 27.2856C43.3754 27.2856 42.6958 27.2175 41.9978 27.0813C41.3182 26.9451 40.6936 26.7238 40.1242 26.4173C39.5731 26.1109 39.1139 25.7108 38.7466 25.2171C38.3792 24.7233 38.1771 24.1189 38.1404 23.4039H40.4824C40.5008 23.7954 40.6293 24.1274 40.8681 24.3998C41.1253 24.6722 41.4284 24.8936 41.7774 25.0638C42.1447 25.2341 42.5397 25.3533 42.9621 25.4214C43.3846 25.5065 43.7887 25.549 44.1744 25.549C44.9459 25.549 45.598 25.4214 46.1307 25.166C46.6634 24.9276 47.1042 24.5871 47.4532 24.1445C47.8022 23.7188 48.0502 23.1996 48.1971 22.5867C48.3625 21.9737 48.4451 21.3012 48.4451 20.5692V19.7009H48.39C47.9859 20.5181 47.3706 21.1225 46.544 21.5141C45.7358 21.8886 44.8724 22.0759 43.954 22.0759C42.8887 22.0759 41.961 21.8971 41.1712 21.5396C40.3814 21.1821 39.7201 20.7054 39.1874 20.1095C38.6547 19.4966 38.2506 18.79 37.9751 17.9898C37.7179 17.1726 37.5894 16.3129 37.5894 15.4105C37.5894 14.6274 37.6996 13.8272 37.92 13.01C38.1404 12.1757 38.5078 11.4266 39.0221 10.7626C39.5364 10.0816 40.216 9.52829 41.061 9.10266C41.9059 8.66 42.9438 8.43867 44.1744 8.43867C45.0745 8.43867 45.9011 8.62595 46.6542 9.00051C47.4073 9.35804 47.9951 9.90285 48.4176 10.6349H48.4451V8.74513H50.6493V20.8245ZM44.0918 20.1861C44.8633 20.1861 45.5153 20.0414 46.048 19.7519C46.5991 19.4455 47.0399 19.0539 47.3706 18.5772C47.7012 18.0835 47.94 17.5302 48.0869 16.9172C48.2522 16.3043 48.3349 15.6914 48.3349 15.0785C48.3349 14.4997 48.2614 13.9293 48.1145 13.3675C47.9675 12.8057 47.7287 12.3034 47.3981 11.8607C47.0858 11.4011 46.6726 11.035 46.1582 10.7626C45.6439 10.4902 45.0194 10.354 44.2847 10.354C43.5315 10.354 42.8887 10.4902 42.356 10.7626C41.8233 11.018 41.3824 11.367 41.0334 11.8097C40.7028 12.2523 40.4548 12.7631 40.2895 13.3419C40.1426 13.9208 40.0691 14.5252 40.0691 15.1551C40.0691 15.751 40.1334 16.3469 40.262 16.9428C40.3905 17.5387 40.611 18.0835 40.9232 18.5772C41.2355 19.0539 41.6488 19.4455 42.1631 19.7519C42.6774 20.0414 43.3203 20.1861 44.0918 20.1861Z" fill="#757575"/>
<path d="M6.42773 21.834L22.4482 25.1553L22.0059 27.2861H4.29395V3.71387H10.1973L6.42773 21.834ZM27.9092 9.60742V27.2852H22.0059L25.7754 9.16504L27.9092 9.60742ZM27.9102 9.60742L9.75488 5.84473L10.1982 3.71387H27.9102V9.60742Z" fill="#D1F55F"/>
</svg>
