<svg width="64" height="64" viewBox="0 0 64 64" fill="none" xmlns="http://www.w3.org/2000/svg">
<path d="M62.9989 63.4097H1V0.410828H63V63.4108L62.9989 63.4097ZM2.76342 61.6178H61.2354V2.20269H2.76342V61.6178Z" fill="#06090D"/>
<path d="M10.005 44.1383L8.90999 42.2063H8.44101V44.1383H7.44531V39.1821H9.3085C9.69199 39.1821 10.02 39.2501 10.2903 39.3839C10.5606 39.5177 10.7628 39.7011 10.8979 39.9306C11.0331 40.1602 11.1001 40.4174 11.1001 40.7011C11.1001 41.0275 11.0053 41.3228 10.8159 41.5858C10.6265 41.8488 10.3446 42.0299 9.96922 42.129L11.1567 44.1383H10.005ZM8.43986 41.4612H9.27153C9.54183 41.4612 9.74282 41.3966 9.87565 41.2663C10.0085 41.136 10.0743 40.9549 10.0743 40.723C10.0743 40.4912 10.0073 40.3193 9.87565 40.1936C9.74282 40.0679 9.54183 40.0056 9.27153 40.0056H8.43986V41.4612Z" fill="#06090D"/>
<path d="M15.483 42.4693H12.6033C12.6264 42.753 12.7269 42.9757 12.9025 43.1371C13.0781 43.2986 13.2941 43.3782 13.5493 43.3782C13.919 43.3782 14.1823 43.219 14.3383 42.9018H15.4125C15.2993 43.2802 15.081 43.5916 14.7587 43.8361C14.4365 44.0795 14.0403 44.2017 13.5713 44.2017C13.1924 44.2017 12.8517 44.1175 12.5513 43.9491C12.2499 43.7807 12.0154 43.5431 11.8467 43.2352C11.6781 42.9272 11.5938 42.5731 11.5938 42.1706C11.5938 41.768 11.6769 41.4059 11.8421 41.0979C12.0084 40.7899 12.2406 40.5535 12.5386 40.3874C12.8378 40.2213 13.1809 40.1394 13.5701 40.1394C13.9594 40.1394 14.2805 40.2201 14.5762 40.3805C14.8731 40.5419 15.103 40.7703 15.2658 41.0656C15.4299 41.362 15.5107 41.7011 15.5107 42.0852C15.5107 42.2271 15.5015 42.3551 15.4818 42.4682L15.483 42.4693ZM14.4804 41.8026C14.4757 41.5466 14.3833 41.3424 14.2031 41.1879C14.0229 41.0345 13.8023 40.9572 13.5413 40.9572C13.2941 40.9572 13.0873 41.0321 12.9187 41.1809C12.75 41.3297 12.6472 41.5373 12.6091 41.8026H14.4792H14.4804Z" fill="#06090D"/>
<path d="M16.1819 41.1025C16.3483 40.7969 16.5781 40.5604 16.8715 40.392C17.1649 40.2236 17.5022 40.1394 17.8811 40.1394C18.3697 40.1394 18.774 40.2617 19.094 40.505C19.4139 40.7484 19.6288 41.091 19.7374 41.5316H18.6631C18.6065 41.3609 18.5106 41.2271 18.3755 41.1302C18.2403 41.0333 18.0728 40.9849 17.8742 40.9849C17.59 40.9849 17.3648 41.0875 17.1984 41.294C17.0321 41.5004 16.9501 41.7923 16.9501 42.1706C16.9501 42.5489 17.0333 42.8349 17.1984 43.0402C17.3648 43.2467 17.59 43.3494 17.8742 43.3494C18.2773 43.3494 18.5407 43.1694 18.6631 42.8096H19.7374C19.6288 43.2352 19.4128 43.5743 19.0905 43.8246C18.7682 44.076 18.3651 44.2006 17.8811 44.2006C17.5022 44.2006 17.1649 44.1164 16.8715 43.948C16.577 43.7796 16.3471 43.5431 16.1819 43.2375C16.0156 42.9318 15.9336 42.5766 15.9336 42.1694C15.9336 41.7623 16.0168 41.4059 16.1819 41.1002V41.1025Z" fill="#06090D"/>
<path d="M21.1038 43.9503C20.8 43.7819 20.5621 43.5443 20.3888 43.2363C20.2155 42.9284 20.1289 42.5743 20.1289 42.1717C20.1289 41.7692 20.2178 41.4139 20.3957 41.106C20.5736 40.798 20.8162 40.5604 21.1246 40.392C21.433 40.2236 21.7761 40.1394 22.1561 40.1394C22.5362 40.1394 22.8792 40.2236 23.1876 40.392C23.496 40.5604 23.7386 40.798 23.9165 41.106C24.0944 41.4139 24.1833 41.7692 24.1833 42.1717C24.1833 42.5743 24.0921 42.9295 23.9096 43.2363C23.7271 43.5443 23.4799 43.7819 23.1703 43.9503C22.8596 44.1187 22.513 44.2029 22.1284 44.2029C21.7437 44.2029 21.4076 44.1187 21.1038 43.9503ZM22.6366 43.2052C22.7949 43.1175 22.922 42.986 23.0167 42.8107C23.1114 42.6354 23.1588 42.422 23.1588 42.1717C23.1588 41.798 23.0606 41.5097 22.8642 41.309C22.6678 41.1083 22.4264 41.0068 22.1423 41.0068C21.8581 41.0068 21.619 41.1071 21.4273 41.309C21.2355 41.5097 21.1396 41.798 21.1396 42.1717C21.1396 42.5454 21.2332 42.8338 21.4203 43.0345C21.6074 43.2363 21.8431 43.3367 22.1284 43.3367C22.3086 43.3367 22.4784 43.2928 22.6366 43.2052Z" fill="#06090D"/>
<path d="M27.2013 40.3147C27.4243 40.4312 27.5998 40.5812 27.7281 40.7657V40.2051H28.7307V44.1671C28.7307 44.5316 28.6568 44.8569 28.5101 45.1429C28.3634 45.429 28.1427 45.6562 27.8482 45.8246C27.5536 45.993 27.199 46.0772 26.782 46.0772C26.2229 46.0772 25.7632 45.9469 25.4063 45.6862C25.0482 45.4255 24.8461 45.0703 24.7987 44.6216H25.7875C25.8395 44.8015 25.9527 44.9445 26.1248 45.0507C26.298 45.1568 26.5071 45.211 26.7543 45.211C27.0431 45.211 27.2787 45.1245 27.4589 44.9515C27.6391 44.7784 27.7292 44.5166 27.7292 44.1671V43.5558C27.601 43.7404 27.4243 43.8938 27.199 44.0172C26.9738 44.1406 26.7162 44.2017 26.4274 44.2017C26.0959 44.2017 25.7921 44.1164 25.5172 43.9457C25.2423 43.775 25.0251 43.5351 24.8669 43.2248C24.7075 42.9145 24.6289 42.5581 24.6289 42.1556C24.6289 41.753 24.7086 41.4059 24.8669 41.0979C25.0251 40.7899 25.2411 40.5535 25.5137 40.3874C25.7863 40.2213 26.0913 40.1394 26.4274 40.1394C26.7208 40.1394 26.9795 40.1971 27.2025 40.3136L27.2013 40.3147ZM27.5848 41.55C27.4901 41.377 27.3619 41.2444 27.2013 41.1521C27.0396 41.0598 26.8675 41.0137 26.6827 41.0137C26.4979 41.0137 26.3269 41.0587 26.171 41.1486C26.015 41.2386 25.888 41.3701 25.7909 41.5431C25.6939 41.7161 25.6454 41.9203 25.6454 42.1567C25.6454 42.3932 25.6939 42.6008 25.7909 42.7784C25.888 42.956 26.0162 43.0922 26.1744 43.1867C26.3338 43.2813 26.5025 43.3286 26.6827 43.3286C26.8629 43.3286 27.0408 43.2825 27.2013 43.1902C27.3619 43.0979 27.4901 42.9653 27.5848 42.7923C27.6795 42.6193 27.7269 42.4128 27.7269 42.1706C27.7269 41.9284 27.6795 41.7219 27.5848 41.5489V41.55Z" fill="#06090D"/>
<path d="M32.937 40.5915C33.2257 40.888 33.3713 41.3009 33.3713 41.8303V44.1383H32.3756V41.9652C32.3756 41.6527 32.297 41.4128 32.1411 41.2444C31.9852 41.076 31.7715 40.9918 31.5012 40.9918C31.2309 40.9918 31.0091 41.076 30.8508 41.2444C30.6914 41.4128 30.6129 41.6527 30.6129 41.9652V44.1383H29.6172V40.204H30.6129V40.6942C30.7457 40.5235 30.9155 40.3897 31.1211 40.2928C31.3267 40.1959 31.5531 40.1475 31.8003 40.1475C32.2693 40.1475 32.6493 40.2951 32.9381 40.5915H32.937Z" fill="#06090D"/>
<path d="M34.2838 39.5685C34.1671 39.4578 34.1094 39.3194 34.1094 39.1533C34.1094 38.9872 34.1671 38.8488 34.2838 38.738C34.4005 38.6273 34.546 38.5708 34.7216 38.5708C34.8972 38.5708 35.0427 38.6262 35.1594 38.738C35.276 38.8499 35.3338 38.9883 35.3338 39.1533C35.3338 39.3182 35.276 39.4578 35.1594 39.5685C35.0427 39.6804 34.8972 39.7358 34.7216 39.7358C34.546 39.7358 34.4005 39.6804 34.2838 39.5685ZM35.2114 40.204V44.1383H34.2156V40.204H35.2114Z" fill="#06090D"/>
<path d="M36.7509 44.0288C36.4945 43.9135 36.2923 43.7554 36.1433 43.557C35.9943 43.3587 35.9123 43.1384 35.8984 42.8961H36.9011C36.9196 43.0472 36.9946 43.173 37.1252 43.2722C37.2557 43.3713 37.4174 43.4209 37.6126 43.4209C37.8078 43.4209 37.9499 43.3829 38.0573 43.3068C38.1636 43.2306 38.2179 43.1337 38.2179 43.0161C38.2179 42.8881 38.1521 42.7923 38.0227 42.7289C37.8922 42.6655 37.6854 42.5951 37.4001 42.519C37.1055 42.4475 36.8653 42.3748 36.6781 42.2987C36.491 42.2225 36.3293 42.1072 36.1941 41.9503C36.059 41.7946 35.992 41.5835 35.992 41.3183C35.992 41.1003 36.0544 40.9019 36.1803 40.7219C36.3062 40.542 36.4864 40.4001 36.7209 40.2963C36.9554 40.1925 37.2314 40.1406 37.5491 40.1406C38.0181 40.1406 38.3935 40.2583 38.673 40.4924C38.9525 40.7266 39.1073 41.0426 39.135 41.4405H38.1821C38.1682 41.2848 38.1024 41.1602 37.9869 41.068C37.8702 40.9757 37.7154 40.9296 37.5214 40.9296C37.3412 40.9296 37.2026 40.963 37.1055 41.0288C37.0085 41.0957 36.96 41.1879 36.96 41.3056C36.96 41.4382 37.0258 41.5386 37.1587 41.6078C37.2915 41.677 37.4971 41.7462 37.7778 41.8177C38.062 41.8892 38.2964 41.9619 38.4824 42.038C38.6672 42.1141 38.8278 42.2306 38.9629 42.3898C39.0981 42.549 39.1685 42.7577 39.1732 43.0184C39.1732 43.2456 39.1108 43.4498 38.9849 43.6297C38.859 43.8096 38.6788 43.9504 38.4443 44.0519C38.2098 44.1534 37.936 44.2041 37.623 44.2041C37.31 44.2041 37.012 44.1464 36.7555 44.0299L36.7509 44.0288Z" fill="#06090D"/>
<path d="M43.5064 42.4693H40.6268C40.6499 42.753 40.7503 42.9757 40.9259 43.1371C41.1015 43.2986 41.3175 43.3782 41.5728 43.3782C41.9424 43.3782 42.2058 43.219 42.3617 42.9018H43.436C43.3228 43.2802 43.1045 43.5916 42.7822 43.8361C42.4599 44.0795 42.0637 44.2017 41.5947 44.2017C41.2159 44.2017 40.8751 44.1175 40.5748 43.9491C40.2733 43.7807 40.0388 43.5431 39.8702 43.2352C39.7015 42.9272 39.6172 42.5731 39.6172 42.1706C39.6172 41.768 39.7004 41.4059 39.8655 41.0979C40.0319 40.7899 40.2641 40.5535 40.5621 40.3874C40.8612 40.2213 41.2043 40.1394 41.5936 40.1394C41.9828 40.1394 42.304 40.2201 42.5997 40.3805C42.8965 40.5419 43.1264 40.7703 43.2893 41.0656C43.4533 41.362 43.5342 41.7011 43.5342 42.0852C43.5342 42.2271 43.5249 42.3551 43.5053 42.4682L43.5064 42.4693ZM42.5038 41.8026C42.4992 41.5466 42.4068 41.3424 42.2266 41.1879C42.0464 41.0345 41.8258 40.9572 41.5647 40.9572C41.3175 40.9572 41.1107 41.0321 40.9421 41.1809C40.7735 41.3297 40.6706 41.5373 40.6325 41.8026H42.5026H42.5038Z" fill="#06090D"/>
<path d="M44.2106 41.099C44.3689 40.7911 44.586 40.5546 44.8609 40.3885C45.1358 40.2224 45.442 40.1405 45.7781 40.1405C46.0345 40.1405 46.2783 40.1959 46.5104 40.3078C46.7426 40.4197 46.9274 40.5673 47.0649 40.7518V38.8845H48.0744V44.1394H47.0649V43.557C46.9413 43.7507 46.768 43.9076 46.5462 44.0252C46.3233 44.144 46.0646 44.2029 45.7712 44.2029C45.4396 44.2029 45.1358 44.1175 44.8609 43.9468C44.586 43.7761 44.3689 43.5362 44.2106 43.2259C44.0512 42.9157 43.9727 42.5592 43.9727 42.1567C43.9727 41.7542 44.0524 41.407 44.2106 41.099ZM46.9297 41.55C46.835 41.377 46.7068 41.2444 46.5462 41.1521C46.3845 41.0598 46.2124 41.0137 46.0276 41.0137C45.8428 41.0137 45.6718 41.0587 45.5159 41.1486C45.3599 41.2386 45.2329 41.3701 45.1358 41.5431C45.0388 41.7161 44.9903 41.9203 44.9903 42.1567C44.9903 42.3932 45.0388 42.6008 45.1358 42.7784C45.2329 42.956 45.3611 43.0921 45.5193 43.1867C45.6787 43.2813 45.8474 43.3286 46.0276 43.3286C46.2078 43.3286 46.3857 43.2824 46.5462 43.1902C46.7068 43.0979 46.835 42.9653 46.9297 42.7922C47.0245 42.6192 47.0718 42.4128 47.0718 42.1705C47.0718 41.9283 47.0245 41.7219 46.9297 41.5489V41.55Z" fill="#06090D"/>
<path d="M52.2681 40.3182C52.4933 40.2006 52.7509 40.1406 53.0397 40.1406C53.3758 40.1406 53.6808 40.2236 53.9534 40.3886C54.226 40.5547 54.442 40.79 54.6002 41.0956C54.7585 41.4013 54.8382 41.7554 54.8382 42.1568C54.8382 42.5581 54.7585 42.9157 54.6002 43.226C54.4408 43.5362 54.226 43.7762 53.9534 43.9469C53.6808 44.1176 53.3758 44.2029 53.0397 44.2029C52.7451 44.2029 52.4887 44.1452 52.2681 44.0288C52.0475 43.9134 51.8707 43.7623 51.7379 43.5778V44.1383H50.7422V38.8834H51.7379V40.7796C51.8661 40.5904 52.0428 40.4359 52.2681 40.3182ZM53.6762 41.5431C53.5791 41.3701 53.4509 41.2386 53.2927 41.1487C53.1333 41.0587 52.9623 41.0137 52.7775 41.0137C52.5927 41.0137 52.4275 41.0599 52.2692 41.1521C52.1098 41.2444 51.9828 41.3782 51.8846 41.5535C51.7876 41.7288 51.739 41.9341 51.739 42.1718C51.739 42.4094 51.7876 42.6147 51.8846 42.79C51.9816 42.9653 52.1098 43.0991 52.2692 43.1914C52.4275 43.2836 52.5973 43.3298 52.7775 43.3298C52.9577 43.3298 53.1344 43.2825 53.2927 43.1879C53.4509 43.0933 53.5791 42.9584 53.6762 42.7831C53.7732 42.6077 53.8217 42.4001 53.8217 42.1579C53.8217 41.9157 53.7732 41.7162 53.6762 41.5443V41.5431Z" fill="#06090D"/>
<path d="M59.1148 40.2041L56.6753 45.9989H55.616L56.4697 44.0392L54.8906 40.2041H56.0076L57.0241 42.9527L58.0556 40.2041H59.1148Z" fill="#06090D"/>
<path d="M11.5633 47.4036V52.3599H10.5676V50.2503H8.44101V52.3599H7.44531V47.4036H8.44101V49.4417H10.5676V47.4036H11.5633Z" fill="#06090D"/>
<path d="M17.9507 47.4036V52.3599H16.955V49.1361L15.6255 52.3599H14.8712L13.5348 49.1361V52.3599H12.5391V47.4036H13.6699L15.2489 51.0888L16.828 47.4036H17.9519H17.9507Z" fill="#06090D"/>
<path d="M21.5089 52.3611L20.4139 50.4292H19.9449V52.3611H18.9492V47.4049H20.8124C21.1959 47.4049 21.524 47.473 21.7942 47.6068C22.0645 47.7417 22.2667 47.9239 22.4018 48.1535C22.537 48.383 22.604 48.6402 22.604 48.924C22.604 49.2504 22.5093 49.5457 22.3198 49.8086C22.1304 50.0716 21.8485 50.2527 21.4731 50.3519L22.6606 52.3611H21.5089ZM19.9438 49.6841H20.7754C21.0457 49.6841 21.2467 49.6195 21.3796 49.4891C21.5124 49.3588 21.5782 49.1777 21.5782 48.9459C21.5782 48.714 21.5112 48.5422 21.3796 48.4165C21.2467 48.2907 21.0457 48.2284 20.7754 48.2284H19.9438V49.6841Z" fill="#06090D"/>
<path d="M23.4241 48.5651C23.6447 48.1799 23.9451 47.8789 24.3274 47.6632C24.7086 47.4475 25.1371 47.3402 25.6107 47.3402C26.1652 47.3402 26.6515 47.4821 27.0685 47.767C27.4855 48.0507 27.7777 48.444 27.9429 48.9458H26.7982C26.6838 48.7093 26.5244 48.5317 26.3176 48.4129C26.1109 48.2952 25.8729 48.2353 25.6026 48.2353C25.3139 48.2353 25.0563 48.3033 24.831 48.4371C24.6058 48.5721 24.4302 48.7624 24.3043 49.0092C24.1784 49.256 24.116 49.5444 24.116 49.8754C24.116 50.2065 24.1784 50.4902 24.3043 50.7382C24.4302 50.9862 24.6058 51.1788 24.831 51.3137C25.0563 51.4487 25.3139 51.5156 25.6026 51.5156C25.8729 51.5156 26.1109 51.4556 26.3176 51.3345C26.5244 51.2134 26.6838 51.0358 26.7982 50.7982H27.9429C27.7765 51.3045 27.4866 51.699 27.0719 51.9804C26.6573 52.2618 26.1698 52.4026 25.6107 52.4026C25.1371 52.4026 24.7086 52.2953 24.3274 52.0796C23.9462 51.8639 23.6447 51.5652 23.4241 51.1811C23.2035 50.797 23.0938 50.3622 23.0938 49.8743C23.0938 49.3864 23.2035 48.9504 23.4241 48.564V48.5651Z" fill="#06090D"/>
<path d="M39.698 15.2302V25.6813H37.5992V18.883L34.7958 25.6813H33.2063L30.3879 18.883V25.6813H28.2891V15.2302H30.6732L34.0022 23.0007L37.3312 15.2302H39.7004H39.698Z" fill="black"/>
<path d="M48.3682 15.2302V16.9222H45.5798V25.6813H43.481V16.9222H40.6914V15.2302H48.3682Z" fill="black"/>
<path d="M55.9388 15.8738C56.7727 16.3029 57.4184 16.9142 57.8736 17.7078C58.3287 18.5013 58.5562 19.4217 58.5562 20.4702C58.5562 21.5186 58.3287 22.4345 57.8736 23.2176C57.4184 24.0008 56.7739 24.6075 55.9388 25.0366C55.1036 25.4656 54.1368 25.6802 53.0371 25.6802H49.3789V15.2291H53.0371C54.1368 15.2291 55.1036 15.4436 55.9388 15.8727V15.8738ZM55.5114 23.0008C56.1109 22.4022 56.4112 21.559 56.4112 20.4702C56.4112 19.3814 56.1109 18.5313 55.5114 17.9177C54.9119 17.3041 54.0617 16.9973 52.962 16.9973H51.4777V23.8993H52.962C54.0617 23.8993 54.9119 23.5994 55.5114 23.0008Z" fill="black"/>
<path d="M30.5369 29.3065C30.8465 29.1289 31.1999 29.0401 31.5984 29.0401V30.6064H31.2034C30.7333 30.6064 30.3798 30.7172 30.1418 30.9363C29.9039 31.1566 29.7838 31.5407 29.7838 32.0874V35.0286H28.2891V29.1243H29.7838V30.0413C29.9755 29.7287 30.2273 29.483 30.5357 29.3054L30.5369 29.3065Z" fill="black"/>
<path d="M37.8184 32.5245H33.496C33.5318 32.9513 33.6808 33.2846 33.9441 33.5268C34.2075 33.7679 34.5309 33.889 34.9156 33.889C35.47 33.889 35.8651 33.6514 36.1007 33.175H37.7121C37.5411 33.7437 37.2143 34.2108 36.7303 34.5764C36.2463 34.9421 35.6526 35.1255 34.9479 35.1255C34.3785 35.1255 33.8679 34.9998 33.4163 34.7472C32.9646 34.4946 32.6123 34.1381 32.3593 33.6756C32.1064 33.2143 31.9805 32.6814 31.9805 32.077C31.9805 31.4726 32.1052 30.9293 32.3536 30.468C32.6031 30.0066 32.9508 29.6514 33.4001 29.4022C33.8483 29.1531 34.3646 29.0297 34.9479 29.0297C35.5313 29.0297 36.0129 29.1508 36.4577 29.3918C36.9024 29.6329 37.2477 29.9766 37.4926 30.4207C37.7387 30.8647 37.8611 31.3746 37.8611 31.9501C37.8611 32.1635 37.8472 32.355 37.8184 32.5257V32.5245ZM36.3133 31.5234C36.3063 31.1393 36.1677 30.8325 35.8974 30.6018C35.6271 30.3711 35.2956 30.2557 34.9052 30.2557C34.5356 30.2557 34.2237 30.3676 33.9707 30.5914C33.7177 30.8152 33.563 31.1266 33.5064 31.5234H36.3133Z" fill="black"/>
<path d="M38.7721 30.468C39.0101 30.0066 39.3347 29.6514 39.7436 29.4022C40.1525 29.1531 40.6099 29.0297 41.1147 29.0297C41.5559 29.0297 41.9418 29.1185 42.2733 29.2961C42.6036 29.4737 42.8693 29.6975 43.068 29.9674V29.1254H44.5731V35.0297H43.068V34.167C42.8762 34.4438 42.6106 34.6733 42.2733 34.8544C41.9348 35.0355 41.5456 35.1266 41.1043 35.1266C40.6065 35.1266 40.1525 34.9986 39.7436 34.7425C39.3347 34.4865 39.0112 34.1266 38.7721 33.6606C38.5342 33.1958 38.4141 32.6606 38.4141 32.0562C38.4141 31.4518 38.533 30.9305 38.7721 30.468ZM42.8554 31.145C42.7134 30.8855 42.5205 30.6871 42.279 30.5487C42.0365 30.4103 41.7777 30.3411 41.4993 30.3411C41.221 30.3411 40.9657 30.4092 40.7312 30.5441C40.4967 30.6791 40.3061 30.8763 40.1606 31.1358C40.015 31.3953 39.9423 31.7021 39.9423 32.0574C39.9423 32.4126 40.015 32.7241 40.1606 32.9893C40.3061 33.2558 40.4979 33.4599 40.737 33.6018C40.9749 33.7437 41.2291 33.8152 41.5005 33.8152C41.772 33.8152 42.0376 33.746 42.2802 33.6076C42.5216 33.4692 42.7145 33.2708 42.8566 33.0113C42.9987 32.7517 43.0703 32.4415 43.0703 32.0793C43.0703 31.7171 42.9987 31.4057 42.8566 31.1462L42.8554 31.145Z" fill="black"/>
<path d="M45.8542 30.4681C46.0921 30.0067 46.4179 29.6514 46.8302 29.4023C47.2426 29.1532 47.7023 29.0298 48.2071 29.0298C48.5918 29.0298 48.9579 29.1128 49.3068 29.28C49.6556 29.4473 49.9329 29.6687 50.1396 29.9467V27.1439H51.6551V35.031H50.1396V34.1567C49.9548 34.4485 49.6949 34.6827 49.3599 34.8603C49.0249 35.0379 48.638 35.1267 48.1967 35.1267C47.6989 35.1267 47.2426 34.9987 46.8302 34.7426C46.4179 34.4866 46.0921 34.1267 45.8542 33.6607C45.6162 33.1959 45.4961 32.6607 45.4961 32.0563C45.4961 31.4519 45.6151 30.9306 45.8542 30.4681ZM49.9375 31.1451C49.7954 30.8856 49.6025 30.6872 49.3611 30.5488C49.1185 30.4104 48.8598 30.3412 48.5814 30.3412C48.303 30.3412 48.0477 30.4092 47.8132 30.5442C47.5787 30.6791 47.3882 30.8764 47.2426 31.1359C47.0971 31.3954 47.0243 31.7022 47.0243 32.0575C47.0243 32.4127 47.0971 32.7242 47.2426 32.9894C47.3882 33.2559 47.5799 33.46 47.819 33.6019C48.057 33.7438 48.3111 33.8153 48.5825 33.8153C48.854 33.8153 49.1197 33.7461 49.3622 33.6077C49.6037 33.4693 49.7966 33.2709 49.9386 33.0114C50.0807 32.7518 50.1523 32.4416 50.1523 32.0794C50.1523 31.7172 50.0807 31.4058 49.9386 31.1463L49.9375 31.1451Z" fill="black"/>
<path d="M58.5658 29.1254L54.9053 37.8222H53.3147L54.5957 34.881L52.2266 29.1254H53.9026L55.4285 33.25L56.9764 29.1254H58.5669H58.5658Z" fill="black"/>
<path d="M22.7622 34.1071H8.91246C7.30802 34.1071 6.00391 32.8037 6.00391 31.2028V17.3733C6.00391 15.7712 7.30918 14.469 8.91246 14.469H22.7622C24.3666 14.469 25.6707 15.7724 25.6707 17.3733V31.2028C25.6707 32.8049 24.3655 34.1071 22.7622 34.1071ZM8.91246 16.2083C8.26907 16.2083 7.7458 16.7308 7.7458 17.3733V31.2028C7.7458 31.8452 8.26907 32.3677 8.91246 32.3677H22.7622C23.4056 32.3677 23.9288 31.8452 23.9288 31.2028V17.3733C23.9288 16.7308 23.4056 16.2083 22.7622 16.2083H8.91246Z" fill="black"/>
<path d="M13.8509 29.6802L9.57812 25.4138L11.1629 23.8313L13.8358 26.5003L20.51 19.702L22.1099 21.2684L13.8509 29.6802Z" fill="#06090D"/>
</svg>
