<svg width="32" height="33" viewBox="0 0 32 33" fill="none" xmlns="http://www.w3.org/2000/svg">
<g clip-path="url(#clip0_2003_824)">
<path d="M32 16.5C32 7.6625 24.8375 0.5 16 0.5C7.1625 0.5 0 7.6625 0 16.5C0 24.4875 5.85 31.1062 13.5 32.3062V21.125H9.4375V16.5H13.5V12.975C13.5 8.96563 15.8875 6.75 19.5438 6.75C21.2938 6.75 23.125 7.0625 23.125 7.0625V11H21.1063C19.1188 11 18.5 12.2344 18.5 13.5V16.5H22.9375L22.2281 21.125H18.5V32.3062C26.15 31.1062 32 24.4875 32 16.5Z" fill="#F3F4F6"/>
</g>
<defs>
<clipPath id="clip0_2003_824">
<rect width="32" height="32" fill="white" transform="translate(0 0.5)"/>
</clipPath>
</defs>
</svg>
