<svg width="32" height="33" viewBox="0 0 32 33" fill="none" xmlns="http://www.w3.org/2000/svg">
<path d="M16 0.5C24.8366 0.5 32 7.66344 32 16.5C32 25.3366 24.8366 32.5 16 32.5C7.16344 32.5 0 25.3366 0 16.5C2.57703e-07 7.66344 7.16344 0.5 16 0.5ZM7.68066 24.6465H11.3066V13.752H7.68066V24.6465ZM20.209 13.4961C18.2841 13.4961 17.4217 14.5531 16.9404 15.2949V13.752H13.3145C13.3621 14.7717 13.3147 24.5982 13.3145 24.6465H16.9404V18.5625C16.9404 18.2369 16.9637 17.9118 17.0596 17.6787C17.3216 17.0283 17.9184 16.3547 18.9199 16.3545C20.2324 16.3545 20.7577 17.3536 20.7578 18.8174V24.6465H24.3838V18.3994C24.3836 15.0535 22.5948 13.4962 20.209 13.4961ZM9.51758 8.5C8.27741 8.50019 7.4668 9.31377 7.4668 10.3818C7.46682 11.4278 8.25354 12.2645 9.4707 12.2646H9.49414C10.7584 12.2646 11.5459 11.4279 11.5459 10.3818C11.5224 9.31364 10.758 8.5 9.51758 8.5Z" fill="#F3F4F6"/>
</svg>
