<svg width="177" height="29" viewBox="0 0 177 29" fill="none" xmlns="http://www.w3.org/2000/svg">
<path d="M160.932 16.6329C160.949 17.0778 161.06 17.4592 161.265 17.777C161.471 18.0789 161.736 18.3252 162.061 18.5159C162.403 18.6907 162.78 18.8178 163.19 18.8973C163.618 18.9767 164.055 19.0164 164.5 19.0164C164.842 19.0164 165.201 18.9926 165.578 18.9449C165.954 18.8973 166.296 18.8099 166.604 18.6828C166.929 18.5556 167.195 18.3729 167.4 18.1345C167.605 17.8803 167.708 17.5625 167.708 17.1811C167.708 16.6567 167.494 16.2595 167.066 15.9894C166.638 15.7192 166.099 15.5047 165.449 15.3458C164.816 15.171 164.123 15.0201 163.37 14.8929C162.617 14.7499 161.916 14.5592 161.265 14.3209C160.632 14.0666 160.102 13.7171 159.674 13.2721C159.246 12.8272 159.032 12.2075 159.032 11.413C159.032 10.7933 159.178 10.2609 159.469 9.81601C159.777 9.37108 160.162 9.01355 160.624 8.74342C161.103 8.45739 161.633 8.25082 162.215 8.1237C162.814 7.98069 163.404 7.90918 163.986 7.90918C164.739 7.90918 165.432 7.97274 166.065 8.09986C166.698 8.2111 167.254 8.41767 167.734 8.71958C168.23 9.00561 168.623 9.40286 168.914 9.91135C169.205 10.4039 169.376 11.0237 169.428 11.7705H167.246C167.212 11.3733 167.1 11.0475 166.912 10.7933C166.724 10.5231 166.484 10.3086 166.194 10.1497C165.903 9.9908 165.578 9.87957 165.218 9.81601C164.876 9.73656 164.525 9.69683 164.166 9.69683C163.841 9.69683 163.507 9.72067 163.165 9.76834C162.84 9.81601 162.54 9.9034 162.266 10.0305C161.993 10.1418 161.77 10.3007 161.599 10.5072C161.428 10.6979 161.342 10.9522 161.342 11.27C161.342 11.6195 161.471 11.9135 161.727 12.1519C162.001 12.3743 162.343 12.565 162.754 12.7239C163.165 12.8669 163.627 12.9941 164.14 13.1053C164.654 13.2006 165.167 13.3039 165.68 13.4151C166.228 13.5264 166.758 13.6614 167.272 13.8203C167.802 13.9792 168.264 14.1938 168.658 14.4639C169.068 14.7181 169.393 15.0439 169.633 15.4411C169.89 15.8384 170.018 16.331 170.018 16.9189C170.018 17.6658 169.847 18.2855 169.505 18.7781C169.18 19.2707 168.743 19.6679 168.196 19.9699C167.665 20.2718 167.058 20.4784 166.373 20.5896C165.706 20.7167 165.039 20.7803 164.371 20.7803C163.635 20.7803 162.934 20.7088 162.266 20.5657C161.599 20.4227 161.009 20.1923 160.495 19.8745C159.982 19.5408 159.571 19.1118 159.263 18.5874C158.955 18.0471 158.784 17.3956 158.75 16.6329H160.932Z" fill="white"/>
<path d="M154.255 13.1768C154.22 12.7001 154.101 12.2472 153.895 11.8182C153.707 11.3891 153.442 11.0237 153.1 10.7217C152.774 10.4039 152.381 10.1576 151.919 9.98285C151.474 9.79217 150.978 9.69683 150.43 9.69683C149.865 9.69683 149.352 9.79217 148.89 9.98285C148.445 10.1576 148.06 10.4039 147.735 10.7217C147.41 11.0396 147.153 11.413 146.965 11.842C146.777 12.2552 146.666 12.7001 146.631 13.1768H154.255ZM156.359 16.6091C156.068 17.9915 155.427 19.0323 154.434 19.7315C153.442 20.4307 152.193 20.7803 150.687 20.7803C149.626 20.7803 148.702 20.6214 147.915 20.3036C147.145 19.9858 146.494 19.5408 145.964 18.9688C145.434 18.3967 145.031 17.7134 144.758 16.9189C144.501 16.1244 144.356 15.2584 144.321 14.3209C144.321 13.3834 144.475 12.5253 144.783 11.7467C145.091 10.968 145.519 10.2927 146.067 9.72067C146.631 9.14862 147.29 8.70369 148.043 8.38589C148.813 8.06808 149.652 7.90918 150.558 7.90918C151.739 7.90918 152.715 8.13959 153.485 8.60041C154.272 9.04533 154.896 9.61738 155.358 10.3165C155.837 11.0157 156.163 11.7785 156.334 12.6047C156.522 13.431 156.599 14.2176 156.565 14.9644H146.631C146.614 15.5047 146.683 16.0211 146.837 16.5137C146.991 16.9904 147.239 17.4195 147.581 17.8008C147.923 18.1663 148.36 18.4603 148.89 18.6828C149.421 18.9052 150.045 19.0164 150.764 19.0164C151.688 19.0164 152.441 18.8178 153.023 18.4206C153.621 18.0233 154.015 17.4195 154.203 16.6091H156.359Z" fill="white"/>
<path d="M129.135 3.5H131.317V9.86404H131.368C131.727 9.18076 132.292 8.68816 133.062 8.38624C133.832 8.06844 134.679 7.90954 135.603 7.90954C136.63 7.90954 137.519 8.08433 138.272 8.43392C139.042 8.7835 139.676 9.26021 140.172 9.86404C140.685 10.452 141.07 11.1353 141.327 11.9139C141.584 12.6925 141.712 13.5188 141.712 14.3927C141.712 15.2667 141.584 16.093 141.327 16.8716C141.087 17.6502 140.711 18.3335 140.197 18.9215C139.701 19.4935 139.068 19.9464 138.298 20.2801C137.545 20.6138 136.664 20.7806 135.654 20.7806C135.329 20.7806 134.961 20.7488 134.551 20.6853C134.157 20.6217 133.763 20.5184 133.37 20.3754C132.976 20.2324 132.6 20.0417 132.241 19.8034C131.898 19.5491 131.607 19.2393 131.368 18.8738H131.317V20.5184H129.135V3.5ZM139.402 14.2497C139.402 13.6777 139.316 13.1215 139.145 12.5813C138.991 12.0251 138.743 11.5325 138.401 11.1035C138.076 10.6744 137.648 10.3328 137.117 10.0786C136.604 9.82431 135.997 9.69719 135.295 9.69719C134.559 9.69719 133.935 9.83225 133.421 10.1024C132.908 10.3725 132.489 10.7301 132.164 11.175C131.838 11.604 131.599 12.0966 131.445 12.6528C131.308 13.2089 131.239 13.773 131.239 14.3451C131.239 14.9489 131.317 15.5368 131.471 16.1089C131.625 16.6651 131.864 17.1576 132.189 17.5867C132.531 18.0157 132.968 18.3653 133.498 18.6354C134.029 18.8897 134.67 19.0168 135.423 19.0168C136.176 19.0168 136.801 18.8817 137.297 18.6116C137.81 18.3415 138.221 17.9839 138.529 17.539C138.837 17.0941 139.06 16.5856 139.196 16.0136C139.333 15.4415 139.402 14.8536 139.402 14.2497Z" fill="white"/>
<path d="M125.009 20.5182H122.956V18.5637H122.904C122.442 19.3264 121.852 19.8905 121.133 20.256C120.415 20.6056 119.568 20.7804 118.592 20.7804C117.72 20.7804 116.992 20.6771 116.411 20.4705C115.829 20.248 115.358 19.9382 114.999 19.5409C114.639 19.1437 114.383 18.6749 114.229 18.1346C114.092 17.5785 114.023 16.9667 114.023 16.2993V8.19531H116.205V16.5377C116.205 17.3004 116.445 17.9042 116.924 18.3492C117.403 18.7941 118.062 19.0166 118.9 19.0166C119.568 19.0166 120.141 18.9212 120.62 18.7305C121.116 18.5398 121.527 18.2697 121.852 17.9201C122.177 17.5705 122.417 17.1653 122.571 16.7045C122.742 16.2278 122.827 15.7114 122.827 15.1552V8.19531H125.009V20.5182Z" fill="white"/>
<path d="M108.477 12.1519C108.306 11.3733 107.947 10.7694 107.399 10.3404C106.851 9.91135 106.116 9.69683 105.192 9.69683C104.404 9.69683 103.746 9.8319 103.215 10.102C102.685 10.3722 102.257 10.7297 101.932 11.1746C101.624 11.6195 101.401 12.136 101.264 12.7239C101.128 13.296 101.059 13.8919 101.059 14.5116C101.059 15.0836 101.128 15.6398 101.264 16.18C101.418 16.7203 101.649 17.205 101.957 17.634C102.265 18.0471 102.668 18.3808 103.164 18.6351C103.66 18.8893 104.25 19.0164 104.935 19.0164C106.013 19.0164 106.851 18.7543 107.45 18.2299C108.066 17.7055 108.443 16.9666 108.58 16.0132H110.813C110.573 17.5387 109.957 18.7145 108.965 19.5408C107.989 20.3671 106.655 20.7803 104.961 20.7803C103.951 20.7803 103.053 20.6293 102.265 20.3274C101.495 20.0255 100.845 19.5964 100.315 19.0403C99.8014 18.4841 99.4078 17.8247 99.134 17.0619C98.8774 16.2833 98.749 15.4332 98.749 14.5116C98.749 13.5899 98.8774 12.7319 99.134 11.9374C99.3907 11.127 99.7757 10.4278 100.289 9.83984C100.82 9.23601 101.478 8.76725 102.265 8.43356C103.053 8.08397 103.968 7.90918 105.012 7.90918C105.765 7.90918 106.466 7.99658 107.117 8.17137C107.784 8.33027 108.366 8.58452 108.862 8.9341C109.375 9.28369 109.795 9.72861 110.12 10.2689C110.445 10.7933 110.65 11.4209 110.736 12.1519H108.477Z" fill="white"/>
<path d="M87.1974 16.6329C87.2145 17.0778 87.3257 17.4592 87.531 17.777C87.7364 18.0789 88.0016 18.3252 88.3267 18.5159C88.669 18.6907 89.0454 18.8178 89.4561 18.8973C89.8839 18.9767 90.3202 19.0164 90.7651 19.0164C91.1074 19.0164 91.4667 18.9926 91.8432 18.9449C92.2196 18.8973 92.5619 18.8099 92.8699 18.6828C93.195 18.5556 93.4602 18.3729 93.6656 18.1345C93.8709 17.8803 93.9736 17.5625 93.9736 17.1811C93.9736 16.6567 93.7597 16.2595 93.3319 15.9894C92.9041 15.7192 92.3651 15.5047 91.7148 15.3458C91.0817 15.171 90.3887 15.0201 89.6358 14.8929C88.8829 14.7499 88.1813 14.5592 87.531 14.3209C86.8979 14.0666 86.3674 13.7171 85.9397 13.2721C85.5119 12.8272 85.298 12.2075 85.298 11.413C85.298 10.7933 85.4434 10.2609 85.7343 9.81601C86.0423 9.37108 86.4273 9.01355 86.8894 8.74342C87.3685 8.45739 87.8989 8.25082 88.4807 8.1237C89.0796 7.98069 89.67 7.90918 90.2518 7.90918C91.0047 7.90918 91.6977 7.97274 92.3309 8.09986C92.964 8.2111 93.5201 8.41767 93.9993 8.71958C94.4955 9.00561 94.8891 9.40286 95.18 9.91135C95.4709 10.4039 95.642 11.0237 95.6933 11.7705H93.5116C93.4773 11.3733 93.3661 11.0475 93.1779 10.7933C92.9897 10.5231 92.7501 10.3086 92.4592 10.1497C92.1683 9.9908 91.8432 9.87957 91.4838 9.81601C91.1416 9.73656 90.7908 9.69683 90.4315 9.69683C90.1063 9.69683 89.7727 9.72067 89.4304 9.76834C89.1053 9.81601 88.8059 9.9034 88.5321 10.0305C88.2583 10.1418 88.0358 10.3007 87.8647 10.5072C87.6936 10.6979 87.608 10.9522 87.608 11.27C87.608 11.6195 87.7364 11.9135 87.9931 12.1519C88.2668 12.3743 88.6091 12.565 89.0198 12.7239C89.4304 12.8669 89.8925 12.9941 90.4058 13.1053C90.9192 13.2006 91.4325 13.3039 91.9458 13.4151C92.4934 13.5264 93.0239 13.6614 93.5372 13.8203C94.0677 13.9792 94.5297 14.1938 94.9233 14.4639C95.334 14.7181 95.6591 15.0439 95.8986 15.4411C96.1553 15.8384 96.2837 16.331 96.2837 16.9189C96.2837 17.6658 96.1125 18.2855 95.7703 18.7781C95.4452 19.2707 95.0088 19.6679 94.4613 19.9699C93.9308 20.2718 93.3233 20.4784 92.6389 20.5896C91.9715 20.7167 91.3042 20.7803 90.6368 20.7803C89.901 20.7803 89.1994 20.7088 88.5321 20.5657C87.8647 20.4227 87.2744 20.1923 86.761 19.8745C86.2477 19.5408 85.837 19.1118 85.529 18.5874C85.221 18.0471 85.0498 17.3956 85.0156 16.6329H87.1974Z" fill="#989898"/>
<path d="M73.5938 16.6329C73.611 17.0778 73.7222 17.4592 73.9275 17.777C74.1329 18.0789 74.3981 18.3252 74.7232 18.5159C75.0654 18.6907 75.4419 18.8178 75.8526 18.8973C76.2804 18.9767 76.7167 19.0164 77.1616 19.0164C77.5039 19.0164 77.8632 18.9926 78.2397 18.9449C78.6161 18.8973 78.9584 18.8099 79.2664 18.6828C79.5915 18.5556 79.8567 18.3729 80.0621 18.1345C80.2674 17.8803 80.3701 17.5625 80.3701 17.1811C80.3701 16.6567 80.1562 16.2595 79.7284 15.9894C79.3006 15.7192 78.7616 15.5047 78.1113 15.3458C77.4782 15.171 76.7852 15.0201 76.0323 14.8929C75.2793 14.7499 74.5778 14.5592 73.9275 14.3209C73.2944 14.0666 72.7639 13.7171 72.3361 13.2721C71.9083 12.8272 71.6945 12.2075 71.6945 11.413C71.6945 10.7933 71.8399 10.2609 72.1308 9.81601C72.4388 9.37108 72.8238 9.01355 73.2858 8.74342C73.765 8.45739 74.2954 8.25082 74.8772 8.1237C75.4761 7.98069 76.0665 7.90918 76.6483 7.90918C77.4012 7.90918 78.0942 7.97274 78.7273 8.09986C79.3605 8.2111 79.9166 8.41767 80.3957 8.71958C80.892 9.00561 81.2855 9.40286 81.5764 9.91135C81.8673 10.4039 82.0384 11.0237 82.0898 11.7705H79.908C79.8738 11.3733 79.7626 11.0475 79.5744 10.7933C79.3861 10.5231 79.1466 10.3086 78.8557 10.1497C78.5648 9.9908 78.2397 9.87957 77.8803 9.81601C77.5381 9.73656 77.1873 9.69683 76.828 9.69683C76.5028 9.69683 76.1691 9.72067 75.8269 9.76834C75.5018 9.81601 75.2023 9.9034 74.9286 10.0305C74.6548 10.1418 74.4323 10.3007 74.2612 10.5072C74.0901 10.6979 74.0045 10.9522 74.0045 11.27C74.0045 11.6195 74.1329 11.9135 74.3895 12.1519C74.6633 12.3743 75.0056 12.565 75.4162 12.7239C75.8269 12.8669 76.2889 12.9941 76.8023 13.1053C77.3156 13.2006 77.829 13.3039 78.3423 13.4151C78.8899 13.5264 79.4204 13.6614 79.9337 13.8203C80.4642 13.9792 80.9262 14.1938 81.3198 14.4639C81.7304 14.7181 82.0556 15.0439 82.2951 15.4411C82.5518 15.8384 82.6801 16.331 82.6801 16.9189C82.6801 17.6658 82.509 18.2855 82.1668 18.7781C81.8417 19.2707 81.4053 19.6679 80.8577 19.9699C80.3273 20.2718 79.7198 20.4784 79.0354 20.5896C78.368 20.7167 77.7006 20.7803 77.0333 20.7803C76.2975 20.7803 75.5959 20.7088 74.9286 20.5657C74.2612 20.4227 73.6708 20.1923 73.1575 19.8745C72.6441 19.5408 72.2335 19.1118 71.9255 18.5874C71.6174 18.0471 71.4463 17.3956 71.4121 16.6329H73.5938Z" fill="#989898"/>
<path d="M69.4598 20.4704C69.0833 20.677 68.5614 20.7803 67.894 20.7803C67.3293 20.7803 66.8759 20.6373 66.5337 20.3512C66.2085 20.0493 66.046 19.5647 66.046 18.8973C65.4471 19.5647 64.7455 20.0493 63.9412 20.3512C63.1541 20.6373 62.2985 20.7803 61.3745 20.7803C60.7756 20.7803 60.2023 20.7167 59.6548 20.5896C59.1243 20.4625 58.6623 20.2638 58.2687 19.9937C57.8752 19.7236 57.5586 19.374 57.319 18.9449C57.0966 18.5 56.9854 17.9677 56.9854 17.348C56.9854 16.6488 57.1137 16.0768 57.3704 15.6318C57.627 15.1869 57.9607 14.8294 58.3714 14.5592C58.7992 14.2732 59.2783 14.0587 59.8088 13.9157C60.3563 13.7727 60.9125 13.6535 61.4772 13.5582C62.0761 13.4469 62.6408 13.3675 63.1712 13.3198C63.7188 13.2562 64.1979 13.1768 64.6086 13.0814C65.0193 12.9702 65.3444 12.8193 65.584 12.6286C65.8235 12.422 65.9433 12.128 65.9433 11.7467C65.9433 11.3017 65.8492 10.9442 65.661 10.6741C65.4898 10.4039 65.2588 10.1974 64.9679 10.0544C64.6942 9.91135 64.3776 9.81601 64.0182 9.76834C63.676 9.72067 63.3338 9.69683 62.9915 9.69683C62.0675 9.69683 61.2975 9.86368 60.6815 10.1974C60.0654 10.5152 59.7318 11.127 59.6804 12.0327H57.4987C57.5329 11.27 57.704 10.6264 58.0121 10.102C58.3201 9.57765 58.7307 9.15656 59.2441 8.83876C59.7574 8.50506 60.3392 8.26671 60.9895 8.1237C61.6568 7.98069 62.367 7.90918 63.1199 7.90918C63.7188 7.90918 64.3091 7.9489 64.8909 8.02836C65.4898 8.10781 66.0289 8.27465 66.508 8.5289C66.9871 8.76725 67.3721 9.10889 67.663 9.55382C67.9539 9.99875 68.0994 10.5787 68.0994 11.2938V17.634C68.0994 18.1107 68.125 18.4603 68.1764 18.6828C68.2448 18.9052 68.4502 19.0164 68.7924 19.0164C68.9806 19.0164 69.2031 18.9767 69.4598 18.8973V20.4704ZM65.9176 14.154C65.6439 14.3447 65.2845 14.4877 64.8396 14.5831C64.3947 14.6625 63.9241 14.734 63.4279 14.7976C62.9488 14.8453 62.4611 14.9088 61.9648 14.9883C61.4686 15.0518 61.0237 15.1631 60.6301 15.322C60.2366 15.4809 59.9114 15.7113 59.6548 16.0132C59.4152 16.2992 59.2954 16.6965 59.2954 17.205C59.2954 17.5387 59.3639 17.8247 59.5008 18.063C59.6548 18.2855 59.843 18.4682 60.0654 18.6112C60.305 18.7543 60.5788 18.8575 60.8868 18.9211C61.1948 18.9847 61.5199 19.0164 61.8622 19.0164C62.5809 19.0164 63.1969 18.9291 63.7102 18.7543C64.2236 18.5636 64.6428 18.3332 64.9679 18.063C65.2931 17.777 65.5326 17.4751 65.6866 17.1573C65.8406 16.8236 65.9176 16.5137 65.9176 16.2277V14.154Z" fill="#989898"/>
<path d="M51.3721 3.5H53.5538V20.5184H51.3721V3.5Z" fill="#989898"/>
<path d="M47.184 19.4693C47.184 21.4874 46.6877 22.997 45.6953 23.998C44.7028 24.9991 43.1456 25.4997 41.0238 25.4997C40.4078 25.4997 39.7746 25.4361 39.1244 25.309C38.4912 25.1819 37.9094 24.9753 37.379 24.6893C36.8656 24.4032 36.4378 24.0298 36.0956 23.569C35.7534 23.1082 35.5652 22.5441 35.5309 21.8767H37.7127C37.7298 22.2422 37.8496 22.552 38.072 22.8063C38.3116 23.0605 38.5939 23.2671 38.919 23.426C39.2613 23.5849 39.6292 23.6961 40.0227 23.7597C40.4163 23.8391 40.7928 23.8789 41.1521 23.8789C41.8708 23.8789 42.4783 23.7597 42.9745 23.5213C43.4707 23.2989 43.8814 22.9811 44.2065 22.5679C44.5317 22.1707 44.7627 21.686 44.8996 21.114C45.0536 20.5419 45.1306 19.9142 45.1306 19.231V18.4206H45.0792C44.7028 19.1833 44.1295 19.7474 43.3595 20.1129C42.6066 20.4625 41.8024 20.6373 40.9468 20.6373C39.9543 20.6373 39.0902 20.4704 38.3544 20.1367C37.6186 19.803 37.0025 19.3581 36.5063 18.8019C36.0101 18.2299 35.6336 17.5704 35.3769 16.8236C35.1374 16.0609 35.0176 15.2584 35.0176 14.4162C35.0176 13.6853 35.1202 12.9384 35.3256 12.1757C35.5309 11.3971 35.8732 10.6979 36.3523 10.0782C36.8314 9.44259 37.4645 8.92615 38.2517 8.5289C39.0388 8.11575 40.0056 7.90918 41.1521 7.90918C41.9906 7.90918 42.7606 8.08397 43.4622 8.43356C44.1638 8.76725 44.7113 9.27574 45.1049 9.95902H45.1306V8.1952H47.184V19.4693ZM41.0751 18.8734C41.7938 18.8734 42.4013 18.7384 42.8975 18.4682C43.4108 18.1822 43.8215 17.8167 44.1295 17.3718C44.4375 16.911 44.66 16.3946 44.7969 15.8225C44.9509 15.2505 45.0279 14.6784 45.0279 14.1064C45.0279 13.5661 44.9595 13.0338 44.8226 12.5094C44.6857 11.985 44.4632 11.5163 44.1552 11.1031C43.8643 10.6741 43.4793 10.3324 43.0002 10.0782C42.521 9.82395 41.9392 9.69683 41.2548 9.69683C40.5532 9.69683 39.9543 9.82395 39.4581 10.0782C38.9618 10.3165 38.5511 10.6423 38.226 11.0554C37.918 11.4686 37.687 11.9453 37.533 12.4856C37.3961 13.0258 37.3277 13.5899 37.3277 14.1779C37.3277 14.734 37.3875 15.2902 37.5073 15.8463C37.6271 16.4025 37.8324 16.911 38.1233 17.3718C38.4142 17.8167 38.7993 18.1822 39.2784 18.4682C39.7575 18.7384 40.3564 18.8734 41.0751 18.8734Z" fill="#989898"/>
<path d="M20.9121 23.5117L20.5 25.5H4V20L20.9121 23.5117ZM26 9V25.5H20.5L24.0117 8.58789L26 9ZM5.98828 20.4121L4 20V3.5H9.5L5.98828 20.4121ZM26 9L9.08789 5.48828L9.5 3.5H26V9Z" fill="#D1F55F"/>
</svg>
