<svg width="32" height="33" viewBox="0 0 32 33" fill="none" xmlns="http://www.w3.org/2000/svg">
<path d="M18.5649 16.2324L14.9713 14.5556C14.6577 14.41 14.4001 14.5732 14.4001 14.9204V18.0788C14.4001 18.4261 14.6577 18.5892 14.9713 18.4436L18.5633 16.7668C18.8785 16.6196 18.8785 16.3796 18.5649 16.2324ZM16.0001 1.13965C7.51694 1.13965 0.640137 8.01645 0.640137 16.4996C0.640137 24.9828 7.51694 31.8596 16.0001 31.8596C24.4833 31.8596 31.3601 24.9828 31.3601 16.4996C31.3601 8.01645 24.4833 1.13965 16.0001 1.13965ZM16.0001 22.7396C8.13774 22.7396 8.00014 22.0308 8.00014 16.4996C8.00014 10.9684 8.13774 10.2596 16.0001 10.2596C23.8625 10.2596 24.0001 10.9684 24.0001 16.4996C24.0001 22.0308 23.8625 22.7396 16.0001 22.7396Z" fill="#F3F4F6"/>
</svg>
