<svg width="20" height="20" viewBox="0 0 20 20" fill="none" xmlns="http://www.w3.org/2000/svg">
<path d="M15.2057 8.26904C15.2056 6.90705 14.6582 5.59896 13.6823 4.63379C12.7061 3.6685 11.3808 3.125 9.9974 3.125C8.6139 3.12502 7.28873 3.66911 6.3125 4.6346C5.33648 5.5999 4.78906 6.90698 4.78906 8.26904C4.78906 10.1091 5.59604 11.8286 6.63558 13.2739C7.67198 14.7149 8.9032 15.8322 9.66292 16.4543C9.78282 16.5524 9.84156 16.6004 9.88916 16.6325C9.92306 16.6553 9.93359 16.6574 9.94043 16.6593C9.93641 16.6582 9.94024 16.6595 9.95264 16.661C9.96472 16.6624 9.98034 16.6634 9.9974 16.6634C10.0144 16.6634 10.0301 16.6624 10.0422 16.661C10.0476 16.6603 10.0514 16.6597 10.0535 16.6593C10.0613 16.6572 10.0719 16.6552 10.1056 16.6325C10.153 16.6007 10.2116 16.5527 10.3319 16.4543C11.0916 15.8322 12.3229 14.7148 13.3592 13.2739C14.3986 11.8287 15.2057 10.109 15.2057 8.26904ZM11.0391 7.5C11.0391 6.9247 10.5727 6.45833 9.9974 6.45833C9.4221 6.45833 8.95573 6.9247 8.95573 7.5C8.95573 8.0753 9.4221 8.54167 9.9974 8.54167C10.5727 8.54167 11.0391 8.0753 11.0391 7.5ZM16.4557 8.26904C16.4557 10.4721 15.4943 12.4463 14.374 14.0039C13.2507 15.5657 11.9304 16.7612 11.1245 17.4211C10.926 17.5836 10.71 17.7736 10.3929 17.863C10.152 17.9308 9.84282 17.9308 9.60189 17.863C9.28478 17.7737 9.06791 17.5822 8.87109 17.4211C8.06523 16.7612 6.7443 15.566 5.62077 14.0039C4.50039 12.4462 3.53906 10.4722 3.53906 8.26904C3.53906 6.57091 4.22088 4.9437 5.43278 3.74512C6.64444 2.54678 8.28677 1.87502 9.9974 1.875C11.708 1.875 13.3503 2.54675 14.562 3.74512C15.7738 4.94365 16.4556 6.57113 16.4557 8.26904ZM12.2891 7.5C12.2891 8.76565 11.263 9.79167 9.9974 9.79167C8.73174 9.79167 7.70573 8.76565 7.70573 7.5C7.70573 6.23435 8.73174 5.20833 9.9974 5.20833C11.263 5.20833 12.2891 6.23435 12.2891 7.5Z" fill="#89899E"/>
</svg>
