<svg width="24" height="24" viewBox="0 0 24 24" fill="none" xmlns="http://www.w3.org/2000/svg">
<path d="M17.0186 6.05469C17.0035 6.05273 16.9796 6.0498 16.9502 6.0498H7.05078C6.49985 6.04999 6.05129 6.49619 6.05078 7.04883L6.05566 7.15137C6.10701 7.65556 6.53345 8.04865 7.05078 8.04883H14.5361L6.34375 16.2422C5.95424 16.6324 5.95303 17.2655 6.34375 17.6562L6.41992 17.7246C6.81272 18.0448 7.39191 18.0215 7.75781 17.6562L15.9502 9.46387V16.9492L15.9521 16.9971L15.9619 17.0977L15.9697 17.1504C16.0632 17.6063 16.4671 17.949 16.9502 17.9492C17.3734 17.9492 17.7345 17.6863 17.8809 17.3154L17.9307 17.1504L17.9385 17.0977L17.9482 16.9971C17.9498 16.9812 17.9502 16.9652 17.9502 16.9492V7.04883L17.9453 6.98047C17.9443 6.97266 17.9441 6.96538 17.9434 6.96094C17.9427 6.95682 17.9414 6.95215 17.9414 6.95215C17.9396 6.9326 17.9399 6.91184 17.9365 6.89062C17.9365 6.89062 17.9352 6.88762 17.9346 6.88379C17.9341 6.88075 17.9335 6.87617 17.9326 6.87109C17.9309 6.86051 17.9283 6.84352 17.9238 6.82422C17.9108 6.76807 17.8919 6.71874 17.8857 6.70215C17.8872 6.70611 17.8887 6.70996 17.8887 6.70996C17.8887 6.70996 17.8874 6.70617 17.8867 6.7041C17.8842 6.69661 17.8768 6.67388 17.8652 6.64746C17.8518 6.617 17.8358 6.59043 17.8232 6.56836L17.8223 6.56641C17.821 6.56378 17.816 6.5534 17.8096 6.54102L17.7764 6.48535C17.7601 6.46155 17.7415 6.43725 17.7217 6.41309L17.6572 6.3418C17.6098 6.29449 17.5605 6.25601 17.5146 6.22461C17.5087 6.22057 17.5032 6.21752 17.499 6.21484L17.4961 6.21191C17.444 6.17805 17.3934 6.15277 17.3525 6.13477C17.3309 6.12527 17.3125 6.11897 17.3047 6.11621L17.2998 6.11523C17.2654 6.10237 17.2223 6.08747 17.1729 6.07617C17.1483 6.07058 17.1272 6.06772 17.1182 6.06641C17.116 6.06609 17.1123 6.06543 17.1123 6.06543L17.0449 6.05859C17.0449 6.05859 17.0403 6.05716 17.0371 6.05664C17.0328 6.05593 17.026 6.05567 17.0186 6.05469ZM16.9814 6.05176C16.984 6.05184 16.9867 6.05263 16.9893 6.05273L16.9941 6.05371L16.9814 6.05176ZM17.4883 6.20703L17.4863 6.20605L17.4961 6.21191L17.4883 6.20703ZM17.7998 6.52539C17.8098 6.54152 17.8161 6.55505 17.8193 6.56152V6.56348C17.8105 6.54813 17.8053 6.53421 17.7998 6.52539Z" fill="black"/>
</svg>
