<svg width="25" height="25" viewBox="0 0 25 25" fill="none" xmlns="http://www.w3.org/2000/svg">
<path d="M17.5181 6.55469C17.503 6.55273 17.4791 6.5498 17.4497 6.5498H7.55029C6.99936 6.54999 6.5508 6.99619 6.55029 7.54883L6.55518 7.65137C6.60652 8.15556 7.03296 8.54865 7.55029 8.54883H15.0356L6.84326 16.7422C6.45375 17.1324 6.45254 17.7655 6.84326 18.1562L6.91943 18.2246C7.31223 18.5448 7.89143 18.5215 8.25732 18.1562L16.4497 9.96387V17.4492L16.4517 17.4971L16.4614 17.5977L16.4692 17.6504C16.5627 18.1063 16.9666 18.449 17.4497 18.4492C17.8729 18.4492 18.234 18.1863 18.3804 17.8154L18.4302 17.6504L18.438 17.5977L18.4478 17.4971C18.4493 17.4812 18.4497 17.4652 18.4497 17.4492V7.54883L18.4448 7.48047C18.4438 7.47266 18.4436 7.46538 18.4429 7.46094C18.4422 7.45682 18.4409 7.45215 18.4409 7.45215C18.4391 7.4326 18.4394 7.41184 18.436 7.39062C18.436 7.39062 18.4347 7.38762 18.4341 7.38379C18.4336 7.38075 18.433 7.37617 18.4321 7.37109C18.4304 7.36051 18.4278 7.34352 18.4233 7.32422C18.4103 7.26807 18.3914 7.21874 18.3853 7.20215C18.3867 7.20611 18.3882 7.20996 18.3882 7.20996C18.3882 7.20996 18.3869 7.20617 18.3862 7.2041C18.3837 7.19661 18.3764 7.17388 18.3647 7.14746C18.3514 7.117 18.3353 7.09043 18.3228 7.06836L18.3218 7.06641C18.3206 7.06378 18.3155 7.0534 18.3091 7.04102L18.2759 6.98535C18.2596 6.96155 18.241 6.93725 18.2212 6.91309L18.1567 6.8418C18.1093 6.79449 18.06 6.75601 18.0142 6.72461C18.0083 6.72057 18.0027 6.71752 17.9985 6.71484L17.9956 6.71191C17.9435 6.67805 17.8929 6.65277 17.8521 6.63477C17.8305 6.62527 17.812 6.61897 17.8042 6.61621L17.7993 6.61523C17.7649 6.60237 17.7218 6.58747 17.6724 6.57617C17.6478 6.57058 17.6267 6.56772 17.6177 6.56641C17.6155 6.56609 17.6118 6.56543 17.6118 6.56543L17.5444 6.55859C17.5444 6.55859 17.5398 6.55716 17.5366 6.55664C17.5323 6.55593 17.5255 6.55567 17.5181 6.55469ZM17.481 6.55176C17.4835 6.55184 17.4862 6.55263 17.4888 6.55273L17.4937 6.55371L17.481 6.55176ZM17.9878 6.70703L17.9858 6.70605L17.9956 6.71191L17.9878 6.70703ZM18.2993 7.02539C18.3093 7.04152 18.3156 7.05505 18.3188 7.06152V7.06348C18.31 7.04813 18.3048 7.03421 18.2993 7.02539Z" fill="white"/>
</svg>
