<svg width="24" height="24" viewBox="0 0 24 24" fill="none" xmlns="http://www.w3.org/2000/svg">
<path d="M17.0146 17.9443C16.9996 17.9463 16.9757 17.9492 16.9463 17.9492H7.04688C6.49594 17.949 6.04738 17.5028 6.04688 16.9502L6.05176 16.8477C6.1031 16.3435 6.52954 15.9504 7.04688 15.9502H14.5322L6.33984 7.75684C5.95033 7.36666 5.94912 6.7335 6.33984 6.34277L6.41602 6.27441C6.80881 5.95418 7.38801 5.9775 7.75391 6.34277L15.9463 14.5352V7.0498L15.9482 7.00195L15.958 6.90137L15.9658 6.84863C16.0593 6.39271 16.4632 6.05004 16.9463 6.0498C17.3695 6.0498 17.7306 6.31271 17.877 6.68359L17.9268 6.84863L17.9346 6.90137L17.9443 7.00195C17.9459 7.01785 17.9463 7.03384 17.9463 7.0498V16.9502L17.9414 17.0186C17.9404 17.0264 17.9402 17.0336 17.9395 17.0381C17.9388 17.0422 17.9375 17.0469 17.9375 17.0469C17.9356 17.0664 17.936 17.0872 17.9326 17.1084C17.9326 17.1084 17.9313 17.1114 17.9307 17.1152C17.9302 17.1183 17.9296 17.1228 17.9287 17.1279C17.9269 17.1385 17.9244 17.1555 17.9199 17.1748C17.9069 17.231 17.888 17.2803 17.8818 17.2969C17.8833 17.2929 17.8848 17.2891 17.8848 17.2891C17.8848 17.2891 17.8835 17.2929 17.8828 17.2949C17.8803 17.3024 17.8729 17.3251 17.8613 17.3516C17.8479 17.382 17.8319 17.4086 17.8193 17.4307L17.8184 17.4326C17.8171 17.4352 17.8121 17.4456 17.8057 17.458L17.7725 17.5137C17.7562 17.5375 17.7376 17.5618 17.7178 17.5859L17.6533 17.6572C17.6059 17.7045 17.5566 17.743 17.5107 17.7744C17.5048 17.7785 17.4993 17.7815 17.4951 17.7842L17.4922 17.7871C17.4401 17.821 17.3895 17.8463 17.3486 17.8643C17.327 17.8737 17.3086 17.8801 17.3008 17.8828L17.2959 17.8838C17.2615 17.8967 17.2184 17.9116 17.1689 17.9229C17.1444 17.9284 17.1233 17.9313 17.1143 17.9326C17.1121 17.9329 17.1084 17.9336 17.1084 17.9336L17.041 17.9404C17.041 17.9404 17.0364 17.9419 17.0332 17.9424C17.0289 17.9431 17.0221 17.9434 17.0146 17.9443ZM16.9775 17.9473C16.9801 17.9472 16.9828 17.9464 16.9854 17.9463L16.9902 17.9453L16.9775 17.9473ZM17.4844 17.792L17.4824 17.793L17.4922 17.7871L17.4844 17.792ZM17.7959 17.4736C17.8058 17.4575 17.8122 17.444 17.8154 17.4375V17.4355C17.8066 17.4509 17.8014 17.4648 17.7959 17.4736Z" fill="#161625"/>
</svg>
