<svg width="41" height="41" viewBox="0 0 41 41" fill="none" xmlns="http://www.w3.org/2000/svg">
<path d="M10.7519 30.597L14.5955 29.3151L15.2683 29.6515C16.8137 30.4224 18.5319 30.8333 20.3337 30.8333C26.3519 30.8333 31.2428 26.0951 31.2428 20.8333C31.2428 15.5715 26.3519 10.8333 20.3337 10.8333C14.3155 10.8333 9.42463 15.5715 9.42463 20.8333C9.42463 22.797 10.1337 24.7897 11.4374 26.4933L12.0646 27.3115L10.7501 30.5951L10.7519 30.597ZM9.46645 32.9424C9.30191 32.9975 9.12504 33.0044 8.95672 32.9623C8.7884 32.9201 8.63566 32.8306 8.51655 32.7044C8.39744 32.5783 8.31693 32.4206 8.28453 32.2501C8.25213 32.0797 8.2692 31.9035 8.33372 31.7424L9.9919 27.597C8.47917 25.6151 7.60645 23.2442 7.60645 20.8333C7.60645 14.8079 13.061 9.01514 20.3337 9.01514C27.6064 9.01514 33.061 14.8079 33.061 20.8333C33.061 26.8588 27.6064 32.6515 20.3337 32.6515C18.294 32.6573 16.2812 32.1866 14.4555 31.277L9.46645 32.9406V32.9424Z" fill="#161625"/>
<path d="M20.3334 22.288C20.1424 22.288 19.9533 22.2504 19.7768 22.1773C19.6003 22.1042 19.44 21.997 19.3049 21.862C19.1698 21.7269 19.0627 21.5666 18.9896 21.3901C18.9165 21.2136 18.8789 21.0245 18.8789 20.8335C18.8789 20.6424 18.9165 20.4533 18.9896 20.2768C19.0627 20.1003 19.1698 19.94 19.3049 19.8049C19.44 19.6699 19.6003 19.5627 19.7768 19.4896C19.9533 19.4165 20.1424 19.3789 20.3334 19.3789C20.7192 19.3789 21.0891 19.5322 21.3619 19.8049C21.6347 20.0777 21.788 20.4477 21.788 20.8335C21.788 21.2192 21.6347 21.5892 21.3619 21.862C21.0891 22.1348 20.7192 22.288 20.3334 22.288ZM25.788 22.288C25.5969 22.288 25.4078 22.2504 25.2313 22.1773C25.0548 22.1042 24.8945 21.997 24.7594 21.862C24.6244 21.7269 24.5172 21.5666 24.4441 21.3901C24.371 21.2136 24.3334 21.0245 24.3334 20.8335C24.3334 20.6424 24.371 20.4533 24.4441 20.2768C24.5172 20.1003 24.6244 19.94 24.7594 19.8049C24.8945 19.6699 25.0548 19.5627 25.2313 19.4896C25.4078 19.4165 25.5969 19.3789 25.788 19.3789C26.1737 19.3789 26.5437 19.5322 26.8165 19.8049C27.0893 20.0777 27.2425 20.4477 27.2425 20.8335C27.2425 21.2192 27.0893 21.5892 26.8165 21.862C26.5437 22.1348 26.1737 22.288 25.788 22.288ZM14.8789 22.288C14.6878 22.288 14.4987 22.2504 14.3222 22.1773C14.1458 22.1042 13.9854 21.997 13.8503 21.862C13.7153 21.7269 13.6081 21.5666 13.535 21.3901C13.4619 21.2136 13.4243 21.0245 13.4243 20.8335C13.4243 20.6424 13.4619 20.4533 13.535 20.2768C13.6081 20.1003 13.7153 19.94 13.8503 19.8049C13.9854 19.6699 14.1458 19.5627 14.3222 19.4896C14.4987 19.4165 14.6878 19.3789 14.8789 19.3789C15.2646 19.3789 15.6346 19.5322 15.9074 19.8049C16.1802 20.0777 16.3334 20.4477 16.3334 20.8335C16.3334 21.2192 16.1802 21.5892 15.9074 21.862C15.6346 22.1348 15.2646 22.288 14.8789 22.288Z" fill="#161625"/>
</svg>
