<svg width="24" height="24" viewBox="0 0 24 24" fill="none" xmlns="http://www.w3.org/2000/svg">
<rect width="24" height="24" rx="12" fill="#2A2A49"/>
<path fill-rule="evenodd" clip-rule="evenodd" d="M17.471 8.52869C17.5959 8.65371 17.6661 8.82324 17.6661 9.00002C17.6661 9.1768 17.5959 9.34633 17.471 9.47135L11.1376 15.8047C11.0126 15.9297 10.8431 15.9999 10.6663 15.9999C10.4895 15.9999 10.32 15.9297 10.195 15.8047L7.19495 12.8047C7.07352 12.679 7.00632 12.5106 7.00784 12.3358C7.00936 12.161 7.07947 11.9937 7.20307 11.8701C7.32668 11.7465 7.49389 11.6764 7.66869 11.6749C7.84348 11.6734 8.01189 11.7406 8.13762 11.862L10.6663 14.3907L16.5283 8.52869C16.6533 8.40371 16.8228 8.3335 16.9996 8.3335C17.1764 8.3335 17.3459 8.40371 17.471 8.52869Z" fill="#D1F55F"/>
</svg>
