<svg width="24" height="24" viewBox="0 0 24 24" fill="none" xmlns="http://www.w3.org/2000/svg">
<rect width="24" height="24" rx="4" fill="#2A2A49"/>
<path fill-rule="evenodd" clip-rule="evenodd" d="M17.471 8.5282C17.5959 8.65322 17.6661 8.82276 17.6661 8.99953C17.6661 9.17631 17.5959 9.34585 17.471 9.47087L11.1376 15.8042C11.0126 15.9292 10.8431 15.9994 10.6663 15.9994C10.4895 15.9994 10.32 15.9292 10.195 15.8042L7.19495 12.8042C7.07352 12.6785 7.00632 12.5101 7.00784 12.3353C7.00936 12.1605 7.07947 11.9933 7.20307 11.8697C7.32668 11.746 7.49389 11.6759 7.66869 11.6744C7.84348 11.6729 8.01189 11.7401 8.13762 11.8615L10.6663 14.3902L16.5283 8.5282C16.6533 8.40322 16.8228 8.33301 16.9996 8.33301C17.1764 8.33301 17.3459 8.40322 17.471 8.5282Z" fill="#D1F55F"/>
</svg>
