<svg width="20" height="20" viewBox="0 0 20 20" fill="none" xmlns="http://www.w3.org/2000/svg">
<path d="M17.8387 6.69261C17.8387 6.15814 17.8385 5.79876 17.8159 5.52234C17.8111 5.46426 17.8038 5.41296 17.7976 5.36703C16.8005 6.10219 15.4937 7.08913 14.4046 7.91677C13.8192 8.3617 13.2971 8.7591 12.9219 9.04593C12.7345 9.18926 12.5838 9.30516 12.4798 9.38486C12.4279 9.4246 12.3874 9.45531 12.3601 9.47622C12.3466 9.48658 12.336 9.49463 12.329 9.49997C12.3256 9.50264 12.3226 9.50502 12.3208 9.50636L12.319 9.50819C12.3149 9.51129 12.3103 9.51432 12.3062 9.51733C11.7199 9.9473 11.2752 10.2889 10.765 10.4208C10.3426 10.53 9.89839 10.5301 9.476 10.4208C8.96631 10.2889 8.52277 9.9483 7.93756 9.51915C7.93408 9.5166 7.93095 9.51355 7.92751 9.51093L2.44343 5.36977C2.43731 5.41523 2.43075 5.46599 2.42607 5.52325C2.40345 5.80015 2.40323 6.15986 2.40323 6.69535V13.8047C2.40323 14.3402 2.40345 14.7 2.42607 14.9767C2.44801 15.2451 2.48795 15.3735 2.53113 15.4582C2.64345 15.6785 2.82223 15.8579 3.04181 15.9698C3.1263 16.0128 3.25456 16.052 3.52234 16.0739C3.79876 16.0965 4.15814 16.0968 4.69261 16.0968H15.5493C16.0836 16.0968 16.4425 16.0965 16.7187 16.0739C16.9867 16.052 17.1155 16.0129 17.2001 15.9698C17.4204 15.8575 17.5998 15.6778 17.7117 15.4582C17.7548 15.3736 17.794 15.2454 17.8159 14.9777C17.8384 14.7015 17.8387 14.3427 17.8387 13.8083V6.69261ZM4.69535 4.40323C4.15986 4.40323 3.80015 4.40345 3.52325 4.42607H3.52142L8.76707 8.38726C9.4506 8.88851 9.64223 9.0144 9.82771 9.06238C10.0197 9.11204 10.2222 9.11204 10.4142 9.06238C10.5989 9.01457 10.7898 8.88941 11.4648 8.39456C11.4653 8.39422 11.4658 8.3934 11.4666 8.39274C11.4684 8.39139 11.4714 8.38988 11.4749 8.38726C11.4818 8.38191 11.4924 8.37388 11.5059 8.3635C11.5333 8.34248 11.5743 8.31122 11.6265 8.27123C11.7309 8.1913 11.8817 8.07501 12.0696 7.93139C12.4455 7.64401 12.9684 7.24533 13.555 6.79949C14.5552 6.03941 15.7461 5.14165 16.7132 4.42515C16.4373 4.40295 16.0788 4.40323 15.5466 4.40323H4.69535ZM19.2419 13.8083C19.2419 14.3195 19.2429 14.7452 19.2145 15.0919C19.1855 15.4467 19.122 15.7797 18.9615 16.0949C18.7147 16.5793 18.3205 16.9731 17.8369 17.2195C17.5218 17.3801 17.1885 17.4436 16.8338 17.4726C16.4871 17.5009 16.0606 17.5 15.5493 17.5H4.69261C4.18128 17.5 3.75497 17.5009 3.40814 17.4726C3.05319 17.4436 2.71944 17.3802 2.40414 17.2195C1.91985 16.9727 1.52685 16.5785 1.28047 16.0949C1.11981 15.7795 1.05644 15.4462 1.02741 15.0909C0.999043 14.7438 1 14.317 1 13.8047V6.69535C1 6.183 0.999046 5.75633 1.02741 5.40906C1.05644 5.05368 1.1197 4.71966 1.28047 4.40414C1.52707 3.92029 1.92029 3.52707 2.40414 3.28047C2.71966 3.1197 3.05368 3.05644 3.40906 3.02741C3.75633 2.99905 4.183 3 4.69535 3H15.5466C16.0589 3 16.4859 2.99904 16.8329 3.02741C17.1881 3.05647 17.5215 3.11978 17.8369 3.28047C18.32 3.52667 18.7145 3.91953 18.9615 4.40414C19.1221 4.71944 19.1855 5.05319 19.2145 5.40814C19.2429 5.75497 19.2419 6.18128 19.2419 6.69261V13.8083Z" fill="#89899E"/>
</svg>
