<svg width="38" height="10" viewBox="0 0 38 10" fill="none" xmlns="http://www.w3.org/2000/svg">
<g clip-path="url(#clip0_1044_97136)">
<path d="M1.28085 8.55969C1.35732 8.51257 1.42044 8.44584 1.46396 8.36609C1.50749 8.28634 1.52991 8.19634 1.52901 8.105C1.52901 7.73793 1.26297 7.50116 0.851736 7.50116H0V9.67976H0.878285C1.29982 9.67976 1.56152 9.44022 1.56152 9.05485C1.56383 8.95387 1.53885 8.85419 1.48933 8.76682C1.4398 8.67944 1.36766 8.60776 1.28085 8.55969ZM1.23859 9.04875C1.23859 9.25447 1.09284 9.38144 0.859321 9.38144H0.323465V8.71605H0.857154C1.0961 8.71772 1.23805 8.84192 1.23805 9.04875H1.23859ZM0.323465 8.42106V7.79726H0.833314C0.944928 7.79726 1.20554 7.8272 1.20554 8.10777C1.20554 8.38835 0.94547 8.42106 0.833314 8.42106H0.323465Z" fill="#FFB432"/>
<path d="M4.12751 8.1283C4.12751 7.7529 3.8566 7.50061 3.44698 7.50061H2.58008V9.67921H2.90517V8.75598H3.34133L3.82897 9.67921H4.20499L3.68972 8.71883C3.81751 8.68616 3.93057 8.60982 4.01018 8.50243C4.08979 8.39504 4.13119 8.26304 4.12751 8.1283ZM3.80242 8.13107C3.80242 8.42939 3.53801 8.46376 3.42314 8.46376H2.90408V7.79837H3.42585C3.53964 7.79726 3.80404 7.82998 3.80404 8.13162L3.80242 8.13107Z" fill="#FFB432"/>
<path d="M5.45042 7.50061H5.12695V9.67921H5.45042V7.50061Z" fill="#FFB432"/>
<path d="M7.26392 7.78011C7.37508 7.77576 7.48404 7.81263 7.57074 7.88395C7.65745 7.95526 7.71608 8.05622 7.73585 8.16825L7.74451 8.20596H8.0696L8.05985 8.15051C7.9905 7.74795 7.68058 7.48512 7.26609 7.48512C7.05129 7.48125 6.84356 7.56366 6.68743 7.71468C6.4707 7.92483 6.4707 8.14773 6.4707 8.59188C6.4707 9.03603 6.4707 9.25727 6.68743 9.46909C6.84994 9.62121 7.0634 9.70352 7.28359 9.69898C7.50378 9.69444 7.71383 9.60339 7.87022 9.44469C8.00784 9.30108 8.0669 9.1303 8.0669 8.87246V8.49318H7.21624V8.78706H7.74072V8.89796C7.74072 9.05267 7.7093 9.15248 7.63236 9.24286C7.54181 9.34065 7.41755 9.39844 7.28601 9.40393C7.15447 9.40942 7.02603 9.36217 6.928 9.27225C6.80826 9.15303 6.79254 9.02827 6.79254 8.59466C6.79254 8.16104 6.80826 8.04016 6.928 7.91928C7.01787 7.8297 7.13847 7.77974 7.26392 7.78011Z" fill="#FFB432"/>
<path d="M10.3194 8.43271H9.40159V7.50061H9.07812V9.67921H9.40159V8.72937H10.3194V9.67921H10.6429V7.50061H10.3194V8.43271Z" fill="#FFB432"/>
<path d="M11.5254 7.79726H12.1431V9.67921H12.4665V7.79726H13.0842V7.50061H11.5254V7.79726Z" fill="#FFB432"/>
<path d="M13.9648 9.67921H15.3855V9.38256H14.2883V8.72937H15.224V8.43271H14.2883V7.79726H15.3855V7.50061H13.9648V9.67921Z" fill="#FFB432"/>
<path d="M17.8892 8.1283C17.8892 7.7529 17.6183 7.50061 17.2087 7.50061H16.3418V9.67921H16.6669V8.75598H17.1031L17.5907 9.67921H17.9667L17.4514 8.71883C17.5792 8.68616 17.6923 8.60982 17.7719 8.50243C17.8515 8.39504 17.8929 8.26304 17.8892 8.1283ZM16.6658 7.7956H17.1876C17.3014 7.7956 17.5668 7.82832 17.5668 8.1283C17.5668 8.42828 17.3024 8.46099 17.1876 8.46099H16.6658V7.7956Z" fill="#FFB432"/>
<path d="M19.9941 7.79726H20.6118V9.67921H20.9358V7.79726H21.5529V7.50061H19.9941V7.79726Z" fill="#FFB432"/>
<path d="M23.6744 8.43271H22.7571V7.50061H22.4336V9.67921H22.7571V8.72937H23.6744V9.67921H23.9984V7.50061H23.6744V8.43271Z" fill="#FFB432"/>
<path d="M25.4231 7.50061H25.0996V9.67921H25.4231V7.50061Z" fill="#FFB432"/>
<path d="M27.8726 9.05652L26.8263 7.52168L26.8122 7.50061H26.5234V9.67921H26.8469V8.11776L27.9078 9.67921H28.196V7.50061H27.8726V9.05652Z" fill="#FFB432"/>
<path d="M30.951 7.50061H30.5458L29.6203 8.61181V7.50061H29.2969V9.67921H29.6203V9.06705L30.0153 8.60516L30.646 9.67921H31.0285L30.2342 8.35786L30.951 7.50061Z" fill="#FFB432"/>
<path d="M32.1477 7.50061H31.8242V9.67921H32.1477V7.50061Z" fill="#FFB432"/>
<path d="M34.5972 9.05652L33.5509 7.52168L33.5368 7.50061H33.248V9.67921H33.5715V8.11776L34.6324 9.67921H34.9206V7.50061H34.5972V9.05652Z" fill="#FFB432"/>
<path d="M36.6875 8.78538H37.212V8.89627C37.212 9.05098 37.1805 9.15079 37.1036 9.24117C37.013 9.33897 36.8888 9.39675 36.7573 9.40224C36.6257 9.40773 36.4973 9.36049 36.3992 9.27056C36.2795 9.15134 36.2638 9.02658 36.2638 8.59297C36.2638 8.15935 36.2795 8.03847 36.3992 7.91759C36.4897 7.82977 36.61 7.78144 36.7346 7.78285C36.8458 7.7785 36.9547 7.81538 37.0414 7.88669C37.1282 7.95801 37.1868 8.05897 37.2065 8.171L37.2152 8.2087H37.5403L37.5306 8.15325C37.4612 7.75069 37.1513 7.48786 36.7368 7.48786C36.522 7.48399 36.3143 7.5664 36.1581 7.71742C35.9414 7.92757 35.9414 8.15048 35.9414 8.59463C35.9414 9.03878 35.9414 9.26002 36.1581 9.47184C36.3206 9.62396 36.5341 9.70627 36.7543 9.70173C36.9745 9.69719 37.1845 9.60614 37.3409 9.44744C37.4785 9.30383 37.5376 9.13304 37.5376 8.87576V8.49648H36.6875V8.78538Z" fill="#FFB432"/>
<path d="M29.5957 0.343811H32.5302V1.00199H30.3179V2.57731H32.1195V3.23937H30.3179V4.84407H32.5258V5.50226H29.5957V0.343811Z" fill="#F3F4F6"/>
<path d="M7.55078 0.343811H10.4853V1.00199H8.27356V2.57731H10.0746V3.23937H8.27356V4.84407H10.4809V5.50226H7.55078V0.343811Z" fill="#F3F4F6"/>
<path d="M13.043 5.49389H13.7137V1.87804L17.0725 5.82603V0.343763H16.3952V3.97791L13.043 0.0155029V5.49389Z" fill="#F3F4F6"/>
<path d="M27.1232 0.343811H26.4004V5.48729H27.1232V0.343811Z" fill="#F3F4F6"/>
<path d="M36.3658 3.34525L35.8164 3.00369C35.4714 2.78854 35.2267 2.57691 35.0822 2.36879C34.9364 2.15846 34.8604 1.90578 34.8655 1.64795C34.8655 1.24132 35.0033 0.911031 35.2789 0.657074C35.5545 0.403116 35.9121 0.276876 36.3517 0.278355C36.7654 0.275916 37.1701 0.402611 37.5117 0.641548V1.47994C37.1476 1.12248 36.756 0.943746 36.337 0.943746C36.1307 0.934449 35.9269 0.992721 35.7551 1.11009C35.6851 1.15634 35.6275 1.2199 35.5877 1.2949C35.5479 1.3699 35.5273 1.45394 35.5276 1.53927C35.5298 1.70021 35.5893 1.85478 35.695 1.97399C35.8066 2.10892 35.9872 2.25069 36.2368 2.39929L36.7889 2.73199C37.403 3.1083 37.71 3.58738 37.71 4.16923C37.71 4.58325 37.5746 4.91964 37.3036 5.17841C37.0327 5.43717 36.6804 5.56655 36.2466 5.56655C35.7541 5.56849 35.2749 5.40289 34.8844 5.09579V4.1598C35.2745 4.66587 35.7261 4.91891 36.239 4.91891C36.4442 4.92633 36.6451 4.8576 36.8046 4.72539C36.8761 4.6678 36.9337 4.59413 36.9729 4.51008C37.0121 4.42603 37.0318 4.33388 37.0306 4.24076C37.0306 3.92655 36.809 3.62823 36.3658 3.34581" fill="#F3F4F6"/>
<path d="M4.73576 0L4.06228 0.713078L2.40053 2.56952L0.729022 0.713078L0.046875 0V5.49558H0.766949V1.71616L2.33172 3.46336L2.39132 3.53378L2.465 3.46336L4.01189 1.71616V5.49558H4.73576V0Z" fill="#F3F4F6"/>
<path d="M19.5857 0.343811H23.9891L20.6434 4.84075H23.6418V5.49671H19.2617L22.6118 0.999222H19.5857V0.343811Z" fill="#F3F4F6"/>
</g>
<defs>
<clipPath id="clip0_1044_97136">
<rect width="37.7104" height="9.69697" fill="white"/>
</clipPath>
</defs>
</svg>
