<svg width="24" height="24" viewBox="0 0 24 24" fill="none" xmlns="http://www.w3.org/2000/svg">
<rect width="24" height="24" rx="12" fill="#D9D9E0"/>
<path d="M14.8619 8.19526C15.1223 7.93491 15.5443 7.93491 15.8046 8.19526C16.065 8.45561 16.065 8.87762 15.8046 9.13797L12.9427 11.9999L15.8046 14.8619C16.065 15.1223 16.065 15.5443 15.8046 15.8046C15.5443 16.065 15.1223 16.065 14.8619 15.8046L11.9999 12.9427L9.13797 15.8046C8.87762 16.065 8.45561 16.065 8.19526 15.8046C7.93491 15.5443 7.93491 15.1223 8.19526 14.8619L11.0572 11.9999L8.19526 9.13797C7.93491 8.87762 7.93491 8.45561 8.19526 8.19526C8.45561 7.93491 8.87762 7.93491 9.13797 8.19526L11.9999 11.0572L14.8619 8.19526Z" fill="black"/>
</svg>
