<svg width="20" height="20" viewBox="0 0 20 20" fill="none" xmlns="http://www.w3.org/2000/svg">
<path d="M9.99935 9.21952C10.3445 9.21952 10.6243 9.49935 10.6243 9.84452V14.0112C10.6241 14.3562 10.3444 14.6362 9.99935 14.6362C9.65431 14.6362 9.37457 14.3562 9.37435 14.0112V9.84452C9.37435 9.49935 9.65417 9.21952 9.99935 9.21952Z" fill="#89899E"/>
<path d="M9.99935 5.99036C10.5745 5.99036 11.0408 6.4561 11.041 7.03121C11.041 7.60651 10.5746 8.07288 9.99935 8.07288C9.42405 8.07288 8.95768 7.60651 8.95768 7.03121C8.9579 6.4561 9.42419 5.99036 9.99935 5.99036Z" fill="#89899E"/>
<path fill-rule="evenodd" clip-rule="evenodd" d="M9.99935 1.66663C14.6017 1.66663 18.3327 5.39759 18.3327 9.99996C18.3327 14.6023 14.6017 18.3333 9.99935 18.3333C5.39698 18.3333 1.66602 14.6023 1.66602 9.99996C1.66602 5.39759 5.39698 1.66663 9.99935 1.66663ZM9.99935 2.91663C6.08733 2.91663 2.91602 6.08794 2.91602 9.99996C2.91602 13.912 6.08733 17.0833 9.99935 17.0833C13.9114 17.0833 17.0827 13.912 17.0827 9.99996C17.0827 6.08794 13.9114 2.91663 9.99935 2.91663Z" fill="#89899E"/>
</svg>
