<svg width="40" height="41" viewBox="0 0 40 41" fill="none" xmlns="http://www.w3.org/2000/svg">
<path fill-rule="evenodd" clip-rule="evenodd" d="M20.1646 8.3584H20.2898C22.8262 8.3584 24.8133 8.3584 26.3644 8.56711C27.9506 8.78022 29.2029 9.2262 30.186 10.2082C31.1692 11.1914 31.6141 12.4437 31.8272 14.031C32.0359 15.5809 32.0359 17.5681 32.0359 20.1045V20.2297C32.0359 22.7661 32.0359 24.7533 31.8272 26.3043C31.6141 27.8906 31.1681 29.1428 30.186 30.126C29.2029 31.1091 27.9506 31.554 26.3633 31.7671C24.8133 31.9758 22.8262 31.9758 20.2898 31.9758H20.1646C17.6282 31.9758 15.641 31.9758 14.0899 31.7671C12.5037 31.554 11.2514 31.108 10.2683 30.126C9.28516 29.1428 8.84028 27.8906 8.62717 26.3032C8.41846 24.7533 8.41846 22.7661 8.41846 20.2297V20.1045C8.41846 17.5681 8.41846 15.5809 8.62717 14.0299C8.84028 12.4437 9.28626 11.1914 10.2683 10.2082C11.2514 9.2251 12.5037 8.78022 14.091 8.56711C15.641 8.3584 17.6282 8.3584 20.1646 8.3584ZM14.3096 10.1995C12.9058 10.3884 12.0588 10.7487 11.4338 11.3737C10.8077 11.9999 10.4485 12.8457 10.2595 14.2507C10.0684 15.6787 10.0662 17.5549 10.0662 20.1671C10.0662 22.7793 10.0684 24.6555 10.2595 26.0836C10.4485 27.4885 10.8088 28.3354 11.4338 28.9616C12.0599 29.5866 12.9058 29.9458 14.3107 30.1348C15.7388 30.3259 17.615 30.3281 20.2272 30.3281C22.8394 30.3281 24.7156 30.3259 26.1436 30.1348C27.5486 29.9458 28.3955 29.5855 29.0216 28.9605C29.6467 28.3343 30.0059 27.4885 30.1948 26.0836C30.386 24.6555 30.3882 22.7793 30.3882 20.1671C30.3882 17.5549 30.386 15.6787 30.1948 14.2507C30.0059 12.8457 29.6456 11.9988 29.0205 11.3726C28.3944 10.7476 27.5486 10.3884 26.1436 10.1995C24.7156 10.0083 22.8394 10.0061 20.2272 10.0061C17.615 10.0061 15.7377 10.0083 14.3096 10.1995Z" fill="#161625"/>
<path fill-rule="evenodd" clip-rule="evenodd" d="M15.8333 13.3013C16.0518 13.3013 16.2614 13.3881 16.4159 13.5426C16.5704 13.6971 16.6572 13.9066 16.6572 14.1251V15.4982H18.0303C18.2488 15.4982 18.4584 15.585 18.6129 15.7395C18.7674 15.894 18.8542 16.1036 18.8542 16.3221C18.8542 16.5406 18.7674 16.7502 18.6129 16.9047C18.4584 17.0592 18.2488 17.146 18.0303 17.146H16.6572V18.5191C16.6572 18.7376 16.5704 18.9471 16.4159 19.1016C16.2614 19.2561 16.0518 19.3429 15.8333 19.3429C15.6148 19.3429 15.4053 19.2561 15.2508 19.1016C15.0963 18.9471 15.0095 18.7376 15.0095 18.5191V17.146H13.6364C13.4179 17.146 13.2083 17.0592 13.0538 16.9047C12.8993 16.7502 12.8125 16.5406 12.8125 16.3221C12.8125 16.1036 12.8993 15.894 13.0538 15.7395C13.2083 15.585 13.4179 15.4982 13.6364 15.4982H15.0095V14.1251C15.0095 13.9066 15.0963 13.6971 15.2508 13.5426C15.4053 13.3881 15.6148 13.3013 15.8333 13.3013ZM21.6004 16.3221C21.6004 16.1036 21.6872 15.894 21.8417 15.7395C21.9962 15.585 22.2057 15.4982 22.4242 15.4982H26.8182C27.0367 15.4982 27.2462 15.585 27.4007 15.7395C27.5552 15.894 27.642 16.1036 27.642 16.3221C27.642 16.5406 27.5552 16.7502 27.4007 16.9047C27.2462 17.0592 27.0367 17.146 26.8182 17.146H22.4242C22.2057 17.146 21.9962 17.0592 21.8417 16.9047C21.6872 16.7502 21.6004 16.5406 21.6004 16.3221ZM21.6004 22.913C21.6004 22.6945 21.6872 22.485 21.8417 22.3305C21.9962 22.1759 22.2057 22.0891 22.4242 22.0891H26.8182C27.0367 22.0891 27.2462 22.1759 27.4007 22.3305C27.5552 22.485 27.642 22.6945 27.642 22.913C27.642 23.1315 27.5552 23.3411 27.4007 23.4956C27.2462 23.6501 27.0367 23.7369 26.8182 23.7369H22.4242C22.2057 23.7369 21.9962 23.6501 21.8417 23.4956C21.6872 23.3411 21.6004 23.1315 21.6004 22.913ZM13.6034 22.3308C13.7579 22.1765 13.9673 22.0899 14.1856 22.0899C14.4039 22.0899 14.6133 22.1765 14.7678 22.3308L15.8333 23.3963L16.8989 22.3308C16.9743 22.2499 17.0652 22.1849 17.1663 22.1399C17.2674 22.0949 17.3765 22.0707 17.4871 22.0687C17.5977 22.0668 17.7076 22.0871 17.8102 22.1286C17.9127 22.17 18.0059 22.2317 18.0842 22.3099C18.1624 22.3881 18.2241 22.4813 18.2655 22.5839C18.3069 22.6865 18.3273 22.7964 18.3253 22.907C18.3234 23.0176 18.2992 23.1267 18.2542 23.2278C18.2091 23.3288 18.1442 23.4198 18.0633 23.4952L16.9977 24.5607L18.0633 25.6263C18.1442 25.7017 18.2091 25.7926 18.2542 25.8937C18.2992 25.9948 18.3234 26.1039 18.3253 26.2145C18.3273 26.3251 18.3069 26.435 18.2655 26.5376C18.2241 26.6402 18.1624 26.7333 18.0842 26.8116C18.0059 26.8898 17.9127 26.9515 17.8102 26.9929C17.7076 27.0344 17.5977 27.0547 17.4871 27.0528C17.3765 27.0508 17.2674 27.0266 17.1663 26.9816C17.0652 26.9365 16.9743 26.8716 16.8989 26.7907L15.8333 25.7251L14.7678 26.7907C14.6116 26.9362 14.4051 27.0154 14.1916 27.0117C13.9782 27.0079 13.7745 26.9214 13.6236 26.7705C13.4727 26.6195 13.3862 26.4159 13.3824 26.2024C13.3787 25.989 13.4579 25.7824 13.6034 25.6263L14.6689 24.5607L13.6034 23.4952C13.4491 23.3407 13.3625 23.1313 13.3625 22.913C13.3625 22.6947 13.4491 22.4853 13.6034 22.3308ZM21.6004 26.2085C21.6004 25.99 21.6872 25.7804 21.8417 25.6259C21.9962 25.4714 22.2057 25.3846 22.4242 25.3846H26.8182C27.0367 25.3846 27.2462 25.4714 27.4007 25.6259C27.5552 25.7804 27.642 25.99 27.642 26.2085C27.642 26.427 27.5552 26.6365 27.4007 26.791C27.2462 26.9455 27.0367 27.0323 26.8182 27.0323H22.4242C22.2057 27.0323 21.9962 26.9455 21.8417 26.791C21.6872 26.6365 21.6004 26.427 21.6004 26.2085Z" fill="#161625"/>
</svg>
