<svg width="41" height="41" viewBox="0 0 41 41" fill="none" xmlns="http://www.w3.org/2000/svg">
<path d="M24.2537 25.1082H19.1344V24.9747C19.9128 24.486 20.3816 23.5428 20.3816 22.3866C20.3816 21.986 20.3191 21.594 20.231 21.2218H23.0321C23.1571 21.2218 23.2594 21.1195 23.2594 20.9945V20.1423C23.2594 20.0173 23.1571 19.915 23.0321 19.915H19.8503C19.6458 19.2729 19.4696 18.6167 19.4696 17.9122C19.4696 16.6764 20.4355 15.9178 21.9498 15.9178C22.5605 15.9178 23.1571 16.0343 23.6657 16.2161C23.8134 16.2701 23.9668 16.1593 23.9668 16.0002V14.8781C23.9668 14.7843 23.9071 14.6991 23.8191 14.665C23.285 14.4604 22.5748 14.3042 21.8219 14.3042C19.1827 14.3042 17.5179 15.5684 17.5179 17.7218C17.5179 18.469 17.714 19.1991 17.9327 19.9122H16.4128C16.2878 19.9122 16.1855 20.0144 16.1855 20.1394V20.9917C16.1855 21.1167 16.2878 21.219 16.4128 21.219H18.3191C18.4157 21.6366 18.4867 22.0542 18.4867 22.4747C18.4867 23.7587 17.6685 24.8411 16.4185 25.1508C16.3162 25.1764 16.2452 25.2673 16.2452 25.3724V26.4661C16.2452 26.5911 16.3475 26.6934 16.4725 26.6934H24.2537C24.3787 26.6934 24.481 26.5911 24.481 26.4661V25.3355C24.481 25.2105 24.3787 25.1082 24.2537 25.1082Z" fill="#161625"/>
<path d="M31.4701 20.5002C31.4701 14.3498 26.4842 9.36386 20.3337 9.36386C14.1833 9.36386 9.19735 14.3498 9.19735 20.5002C9.19735 26.6507 14.1833 31.6366 20.3337 31.6366V33.2275C13.3046 33.2275 7.60645 27.5293 7.60645 20.5002C7.60645 13.4711 13.3046 7.77295 20.3337 7.77295C27.3628 7.77295 33.061 13.4711 33.061 20.5002C33.061 27.5293 27.3628 33.2275 20.3337 33.2275V31.6366C26.4842 31.6366 31.4701 26.6507 31.4701 20.5002Z" fill="#161625"/>
</svg>
