<svg width="24" height="24" viewBox="0 0 24 24" fill="none" xmlns="http://www.w3.org/2000/svg">
<path d="M12.9004 11.0996H17.5996C18.0967 11.0996 18.5 11.5029 18.5 12C18.5 12.4971 18.0967 12.9004 17.5996 12.9004H12.9004V17.5996C12.9004 18.0967 12.4971 18.5 12 18.5C11.5029 18.5 11.0996 18.0967 11.0996 17.5996V12.9004H6.40039C5.90333 12.9004 5.5 12.4971 5.5 12C5.5 11.5029 5.90333 11.0996 6.40039 11.0996H11.0996V6.40039C11.0996 5.90333 11.5029 5.5 12 5.5C12.4971 5.5 12.9004 5.90333 12.9004 6.40039V11.0996Z" fill="#161625"/>
</svg>
