<svg width="32" height="33" viewBox="0 0 32 33" fill="none" xmlns="http://www.w3.org/2000/svg">
<path d="M4.6951 24.3362C7.46371 23.091 8.84801 21.1486 8.84801 18.509C8.84801 17.3136 8.63685 16.5665 8.21452 16.2677C7.83911 15.9191 7.27601 15.7447 6.5252 15.7447C5.25821 15.7447 4.36662 15.3961 3.85044 14.6988C3.33426 14.0016 3.07617 13.1549 3.07617 12.1588C3.07617 10.8638 3.45158 9.8428 4.20238 9.09572C4.95319 8.29883 6.00902 7.90039 7.36986 7.90039C10.6546 7.90039 12.297 9.74319 12.297 13.4288L12.297 16.1183C12.297 19.1066 11.5932 21.4973 10.1854 23.2903C8.77762 25.0335 6.94753 26.2786 4.6951 27.0257L4.6951 24.3362ZM20.3213 24.4109C23.0899 23.1658 24.4742 21.2482 24.4742 18.6584C24.4742 17.4132 24.263 16.6412 23.8407 16.3424C23.4653 15.9938 22.9022 15.8195 22.1514 15.8195C20.8844 15.8195 19.9928 15.4957 19.4766 14.8482C18.9605 14.151 18.7024 13.3043 18.7024 12.3082C18.7024 11.0132 19.0778 9.96732 19.8286 9.17043C20.5794 8.37354 21.6352 7.9751 22.9961 7.9751C26.2808 7.9751 27.9232 9.8428 27.9232 13.5782V16.193C27.9232 21.7712 25.3893 25.407 20.3213 27.1004V24.4109Z" fill="#89899E"/>
</svg>
