<svg width="24" height="24" viewBox="0 0 24 24" fill="none" xmlns="http://www.w3.org/2000/svg">
<path d="M19.752 11.3442C19.7428 11.3322 19.7279 11.3132 19.7071 11.2924L12.7072 4.29246C12.3175 3.90302 11.6848 3.90136 11.2937 4.29177L11.2246 4.36773C10.9044 4.76056 10.928 5.34005 11.2937 5.70599L16.5866 10.9989L5.00015 10.9996C4.44883 11.0001 4.00026 11.4469 4.00026 11.9995L4.00578 12.1017C4.05709 12.6059 4.48314 12.999 5.00015 12.9994H16.5859L11.293 18.2923L11.2605 18.3276L11.1963 18.4056L11.1645 18.4484C10.9083 18.8369 10.9515 19.3648 11.293 19.7066C11.5922 20.0058 12.0335 20.0753 12.3992 19.9165L12.5511 19.835L12.594 19.8032L12.672 19.739C12.6843 19.7289 12.6959 19.7179 12.7072 19.7066L19.7078 12.7059L19.7527 12.6541C19.7575 12.6479 19.7625 12.6426 19.7651 12.6389C19.7676 12.6355 19.77 12.6314 19.77 12.6314C19.7825 12.6162 19.7974 12.6018 19.81 12.5844C19.81 12.5844 19.8112 12.5813 19.8135 12.5782C19.8153 12.5757 19.8181 12.572 19.8211 12.5678C19.8273 12.5591 19.8375 12.5453 19.848 12.5285C19.8785 12.4795 19.9 12.4313 19.9074 12.4152C19.9056 12.4191 19.9039 12.4228 19.9039 12.4228C19.9039 12.4228 19.9057 12.4192 19.9067 12.4173C19.9102 12.4102 19.9211 12.3889 19.9316 12.362C19.9436 12.331 19.9511 12.3009 19.9578 12.2764L19.9585 12.2743C19.9595 12.2716 19.9633 12.2607 19.9675 12.2474L19.9834 12.1846C19.9887 12.1562 19.9927 12.1259 19.9958 12.0948L20.0006 11.9988C20.0006 11.9319 19.9929 11.8697 19.9827 11.8151C19.9813 11.8081 19.9796 11.8021 19.9785 11.7972V11.793C19.9657 11.7323 19.9478 11.6786 19.9316 11.637C19.923 11.615 19.9144 11.5975 19.9109 11.59L19.9081 11.5859C19.8928 11.5524 19.8729 11.5115 19.8459 11.4685C19.8325 11.4472 19.8197 11.4303 19.8142 11.4229C19.8129 11.4211 19.8107 11.4181 19.8107 11.4181L19.7679 11.3656C19.7679 11.3656 19.7656 11.3613 19.7638 11.3587C19.7612 11.3551 19.7566 11.3502 19.752 11.3442ZM19.7279 11.3159C19.7296 11.3178 19.731 11.3202 19.7327 11.3221L19.7355 11.3262L19.7279 11.3159ZM19.9765 11.7841L19.9758 11.782L19.9785 11.793L19.9765 11.7841ZM19.9716 12.2295C19.9672 12.2479 19.9622 12.262 19.9599 12.2688L19.9585 12.2702C19.9631 12.2531 19.9692 12.2396 19.9716 12.2295Z" fill="#89899E"/>
</svg>
