<svg width="25" height="25" viewBox="0 0 25 25" fill="none" xmlns="http://www.w3.org/2000/svg">
<path d="M18.6821 13.44L18.1503 12.9111L18.6821 13.44ZM11.8621 6.12645L12.3526 6.69381L11.8621 6.12645ZM22.3353 5.02578L23.0751 5.14893L22.3353 5.02578ZM20.5106 3.06905L20.5819 3.81565L20.5106 3.06905ZM6.88562 12.8697L7.54711 13.2231L6.88562 12.8697ZM11.6082 17.9339L11.3017 17.2494L11.6082 17.9339ZM5.24648 17.8555C5.54942 17.573 5.56599 17.0984 5.2835 16.7955C5.001 16.4926 4.52642 16.476 4.22348 16.7585L4.73498 17.307L5.24648 17.8555ZM1.29807 19.4865C0.995132 19.769 0.978559 20.2436 1.26105 20.5465C1.54355 20.8494 2.01813 20.866 2.32107 20.5835L1.80957 20.035L1.29807 19.4865ZM7.29247 20.0496C7.59541 19.7671 7.61198 19.2925 7.32949 18.9896C7.047 18.6866 6.57241 18.6701 6.26948 18.9526L6.78098 19.5011L7.29247 20.0496ZM4.80677 20.3165C4.50383 20.599 4.48726 21.0736 4.76975 21.3766C5.05225 21.6795 5.52683 21.6961 5.82977 21.4136L5.31827 20.8651L4.80677 20.3165ZM10.6906 21.4391L11.4363 21.359L10.6906 21.4391ZM15.9703 18.1565L16.716 18.0764L15.9703 18.1565ZM3.32501 13.5405L3.45692 12.8022L3.45692 12.8022L3.32501 13.5405ZM6.96787 8.50266L6.83595 9.24096L6.83595 9.24096L6.96787 8.50266ZM9.45212 17.4717L10.0006 16.9602L7.74483 14.5412L7.19632 15.0527L6.6478 15.5642L8.90361 17.9832L9.45212 17.4717ZM18.6821 13.44L18.1503 12.9111C16.1866 14.8855 13.0549 16.4646 11.3017 17.2494L11.6082 17.9339L11.9146 18.6185C13.6835 17.8266 17.0396 16.1549 19.2138 13.9689L18.6821 13.44ZM6.88562 12.8697L7.54711 13.2231C8.45232 11.529 10.246 8.51504 12.3526 6.69381L11.8621 6.12645L11.3716 5.55909C9.03916 7.57557 7.13748 10.8068 6.22412 12.5162L6.88562 12.8697ZM22.3353 5.02578L21.5955 4.90262C21.2107 7.21395 20.2787 10.7711 18.1503 12.9111L18.6821 13.44L19.2138 13.9689C21.698 11.4712 22.6845 7.49573 23.0751 5.14893L22.3353 5.02578ZM11.8621 6.12645L12.3526 6.69381C14.6358 4.71988 18.2493 4.03825 20.5819 3.81565L20.5106 3.06905L20.4394 2.32244C18.0711 2.54845 14.0365 3.25518 11.3716 5.55909L11.8621 6.12645ZM22.3353 5.02578L23.0751 5.14893C23.3424 3.54341 22.0596 2.16782 20.4394 2.32244L20.5106 3.06905L20.5819 3.81565C21.2214 3.75463 21.701 4.26896 21.5955 4.90262L22.3353 5.02578ZM7.19632 15.0527L7.74483 14.5412C7.39455 14.1655 7.32409 13.6405 7.54711 13.2231L6.88562 12.8697L6.22412 12.5162C5.68006 13.5344 5.88798 14.7494 6.6478 15.5642L7.19632 15.0527ZM9.45212 17.4717L8.90361 17.9832C9.66343 18.798 10.8609 19.0902 11.9146 18.6185L11.6082 17.9339L11.3017 17.2494C10.8698 17.4428 10.3509 17.3359 10.0006 16.9602L9.45212 17.4717ZM4.73498 17.307L4.22348 16.7585L1.29807 19.4865L1.80957 20.035L2.32107 20.5835L5.24648 17.8555L4.73498 17.307ZM6.78098 19.5011L6.26948 18.9526L4.80677 20.3165L5.31827 20.8651L5.82977 21.4136L7.29247 20.0496L6.78098 19.5011ZM14.2738 7.97947L13.7623 7.43096C12.6515 8.46676 12.5908 10.2069 13.6266 11.3177L14.1751 10.8062L14.7236 10.2947C14.2528 9.78978 14.2804 8.99881 14.7853 8.52799L14.2738 7.97947ZM14.1751 10.8062L13.6266 11.3177C14.6624 12.4284 16.4025 12.4892 17.5133 11.4534L17.0018 10.9049L16.4903 10.3564C15.9854 10.8272 15.1944 10.7996 14.7236 10.2947L14.1751 10.8062ZM17.0018 10.9049L17.5133 11.4534C18.6241 10.4176 18.6848 8.67745 17.649 7.56668L17.1005 8.07818L16.552 8.58968C17.0228 9.09458 16.9952 9.88555 16.4903 10.3564L17.0018 10.9049ZM17.1005 8.07818L17.649 7.56668C16.6132 6.45592 14.8731 6.39515 13.7623 7.43096L14.2738 7.97947L14.7853 8.52799C15.2902 8.05717 16.0812 8.08479 16.552 8.58968L17.1005 8.07818ZM15.658 18.9946L15.1465 18.4461L11.8554 21.5151L12.3669 22.0636L12.8784 22.6122L16.1695 19.5432L15.658 18.9946ZM10.6906 21.4391L11.4363 21.359L11.116 18.3761L10.3703 18.4562L9.62454 18.5363L9.9449 21.5192L10.6906 21.4391ZM15.7567 16.1679L15.011 16.248L15.2246 18.2366L15.9703 18.1565L16.716 18.0764L16.5024 16.0878L15.7567 16.1679ZM12.3669 22.0636L11.8554 21.5151C11.7047 21.6556 11.4583 21.5638 11.4363 21.359L10.6906 21.4391L9.9449 21.5192C10.0989 22.953 11.8237 23.5956 12.8784 22.6122L12.3669 22.0636ZM15.658 18.9946L16.1695 19.5432C16.5723 19.1675 16.7748 18.6241 16.716 18.0764L15.9703 18.1565L15.2246 18.2366C15.233 18.3148 15.204 18.3925 15.1465 18.4461L15.658 18.9946ZM6.10998 8.75571L5.59848 8.2072L2.30739 11.2762L2.81889 11.8247L3.33039 12.3732L6.62148 9.30423L6.10998 8.75571ZM3.32501 13.5405L3.19309 14.2788L6.14632 14.8064L6.27824 14.0681L6.41015 13.3298L3.45692 12.8022L3.32501 13.5405ZM8.93669 8.85442L9.0686 8.11612L7.09978 7.76435L6.96787 8.50266L6.83595 9.24096L8.80477 9.59273L8.93669 8.85442ZM2.81889 11.8247L2.30739 11.2762C1.25272 12.2597 1.77349 14.0251 3.19309 14.2788L3.32501 13.5405L3.45692 12.8022C3.25412 12.7659 3.17972 12.5137 3.33039 12.3732L2.81889 11.8247ZM6.10998 8.75571L6.62148 9.30423C6.67903 9.25056 6.75849 9.22712 6.83595 9.24096L6.96787 8.50266L7.09978 7.76435C6.55754 7.66747 6.00133 7.83154 5.59848 8.2072L6.10998 8.75571Z" fill="#D1F55F"/>
</svg>
