<svg width="96" height="17" viewBox="0 0 96 17" fill="none" xmlns="http://www.w3.org/2000/svg">
<rect y="0.5" width="16" height="16" rx="4" fill="#04DA8D"/>
<path d="M13.6497 7.41353H9.31568L7.97697 3.40039L6.63352 7.41386L2.2998 7.4095L5.80977 9.89202L4.467 13.9008L7.97697 11.4223L11.4829 13.9008L10.1442 9.89202L13.6497 7.41353Z" fill="white"/>
<path d="M10.4452 10.7992L10.1439 9.8916L7.97705 11.4219L10.4452 10.7992Z" fill="#04DA8D"/>
<rect x="20" y="0.5" width="16" height="16" rx="4" fill="#04DA8D"/>
<path d="M33.6497 7.41353H29.3157L27.977 3.40039L26.6335 7.41386L22.2998 7.4095L25.8098 9.89202L24.467 13.9008L27.977 11.4223L31.4829 13.9008L30.1442 9.89202L33.6497 7.41353Z" fill="white"/>
<path d="M30.4452 10.7992L30.1439 9.8916L27.9771 11.4219L30.4452 10.7992Z" fill="#04DA8D"/>
<rect x="40" y="0.5" width="16" height="16" rx="4" fill="#04DA8D"/>
<path d="M53.6497 7.41353H49.3157L47.977 3.40039L46.6335 7.41386L42.2998 7.4095L45.8098 9.89202L44.467 13.9008L47.977 11.4223L51.4829 13.9008L50.1442 9.89202L53.6497 7.41353Z" fill="white"/>
<path d="M50.4452 10.7992L50.1439 9.8916L47.9771 11.4219L50.4452 10.7992Z" fill="#04DA8D"/>
<rect x="60" y="0.5" width="16" height="16" rx="4" fill="#04DA8D"/>
<path d="M73.6497 7.41353H69.3157L67.977 3.40039L66.6335 7.41386L62.2998 7.4095L65.8098 9.89202L64.467 13.9008L67.977 11.4223L71.4829 13.9008L70.1442 9.89202L73.6497 7.41353Z" fill="white"/>
<path d="M70.4452 10.7992L70.1439 9.8916L67.9771 11.4219L70.4452 10.7992Z" fill="#04DA8D"/>
<rect x="80" y="0.5" width="16" height="16" rx="4" fill="#04DA8D"/>
<path d="M93.6497 7.41353H89.3157L87.977 3.40039L86.6335 7.41386L82.2998 7.4095L85.8098 9.89202L84.467 13.9008L87.977 11.4223L91.4829 13.9008L90.1442 9.89202L93.6497 7.41353Z" fill="white"/>
<path d="M90.4452 10.7992L90.1439 9.8916L87.9771 11.4219L90.4452 10.7992Z" fill="#04DA8D"/>
</svg>
