<svg width="40" height="41" viewBox="0 0 40 41" fill="none" xmlns="http://www.w3.org/2000/svg">
<path d="M30.1894 16.3989C30.1894 15.8516 30.0802 15.4732 29.9036 15.1835C29.7251 14.891 29.4376 14.6226 28.9718 14.3628L24.4579 11.8508C23.2621 11.186 22.4135 10.715 21.7031 10.4046C21.0085 10.1012 20.501 9.97716 20.0003 9.97714C19.4997 9.97714 18.9918 10.1011 18.2971 10.4046C17.5867 10.715 16.738 11.1856 15.5423 11.8504L11.0279 14.3623C10.5618 14.6221 10.2744 14.8907 10.0962 15.1831C9.91971 15.4727 9.81079 15.8512 9.81079 16.3989C9.81079 16.5838 9.81096 16.6966 9.81478 16.782C9.81742 16.841 9.82122 16.8671 9.82277 16.8757C9.84561 16.9608 9.87338 17.0006 9.89024 17.0199C9.90799 17.0402 9.93642 17.0637 9.98967 17.0874C10.1157 17.1435 10.3194 17.1753 10.6289 17.1753H29.3713C29.6804 17.1753 29.8846 17.1432 30.011 17.087C30.0645 17.0631 30.0927 17.0397 30.1104 17.0195C30.1271 17.0004 30.1549 16.961 30.1774 16.8766C30.1786 16.8705 30.1826 16.8454 30.1854 16.7824C30.1893 16.6968 30.1894 16.5838 30.1894 16.3989ZM31.7803 16.3989C31.7803 16.7042 31.7872 17.0116 31.716 17.2823L31.7155 17.284C31.5476 17.9159 31.1479 18.3222 30.6586 18.5403C30.2168 18.7371 29.7356 18.7662 29.3713 18.7662H16.4017V27.3067H14.8108V18.7662H12.0076V27.3067H10.4167V18.7613C10.0892 18.7488 9.70278 18.7011 9.34248 18.5407C8.85293 18.3227 8.45359 17.9163 8.28513 17.2849L8.28424 17.2809C8.2135 17.0101 8.21987 16.7053 8.21988 16.3989C8.21988 15.6317 8.37558 14.9497 8.7379 14.3552C9.09846 13.7637 9.62379 13.324 10.2538 12.973L14.7691 10.4605C15.9382 9.81051 16.8642 9.29476 17.6606 8.94687C18.4727 8.5921 19.2048 8.38623 20.0003 8.38623C20.7958 8.38626 21.528 8.5921 22.3401 8.94687C23.1364 9.29477 24.062 9.81053 25.2312 10.4605L29.746 12.973H29.7469C30.3762 13.3239 30.9012 13.7639 31.2619 14.3552C31.6243 14.9496 31.7803 15.6315 31.7803 16.3989Z" fill="#161625"/>
<path d="M18.9017 26.5112C19.341 26.5112 19.6971 26.8674 19.6971 27.3067C19.6971 27.746 19.341 28.1021 18.9017 28.1021H12.3108C11.6477 28.1021 11.012 28.3657 10.5432 28.8346C10.1328 29.245 9.8799 29.7832 9.82321 30.3558H18.9017C19.341 30.3558 19.6971 30.712 19.6971 31.1512C19.6971 31.5906 19.341 31.9467 18.9017 31.9467H9.56443C9.20784 31.9467 8.86575 31.8051 8.61361 31.553C8.36148 31.3008 8.21988 30.9587 8.21988 30.6021C8.21988 29.5172 8.65075 28.4765 9.41794 27.7093C10.1851 26.9421 11.2258 26.5112 12.3108 26.5112H18.9017Z" fill="#161625"/>
<path d="M29.8734 22.3504C30.184 22.0398 30.6876 22.0397 30.9982 22.3504C31.3088 22.661 31.3088 23.1645 30.9982 23.4752L23.3087 31.1647C22.998 31.4753 22.4945 31.4753 22.1838 31.1647C21.8732 30.8541 21.8733 30.3505 22.1838 30.0399L29.8734 22.3504Z" fill="#161625"/>
<path d="M23.5985 23.7366C23.5985 23.7209 23.5858 23.7082 23.5701 23.7082C23.5544 23.7082 23.5417 23.7209 23.5417 23.7366C23.5417 23.7523 23.5544 23.765 23.5701 23.765C23.5858 23.765 23.5985 23.7523 23.5985 23.7366ZM25.1894 23.7366C25.1894 24.631 24.4644 25.3559 23.5701 25.3559C22.6758 25.3559 21.9508 24.631 21.9508 23.7366C21.9508 22.8423 22.6758 22.1173 23.5701 22.1173C24.4644 22.1173 25.1894 22.8423 25.1894 23.7366Z" fill="#161625"/>
<path d="M29.6403 29.7783C29.6403 29.7626 29.6276 29.7499 29.6119 29.7499C29.5962 29.7499 29.5835 29.7626 29.5835 29.7783C29.5835 29.794 29.5962 29.8067 29.6119 29.8067C29.6276 29.8067 29.6403 29.794 29.6403 29.7783ZM31.2312 29.7783C31.2312 30.6726 30.5062 31.3976 29.6119 31.3976C28.7176 31.3976 27.9926 30.6726 27.9926 29.7783C27.9926 28.884 28.7176 28.159 29.6119 28.159C30.5062 28.159 31.2312 28.884 31.2312 29.7783Z" fill="#161625"/>
</svg>
