<svg width="20" height="20" viewBox="0 0 20 20" fill="none" xmlns="http://www.w3.org/2000/svg">
<path d="M2.75227 13C2.75227 12.8787 2.86182 12.7184 3.07453 12.6973C3.90211 12.6152 4.70212 12.4378 5.46418 12.1787L6.64582 13.3613C6.87067 13.5859 7.21264 13.6439 7.49934 13.5068C10.1248 12.2504 12.2527 10.1225 13.5091 7.49707C13.6462 7.21037 13.5881 6.8684 13.3636 6.64355L12.182 5.46094C12.4409 4.69923 12.6175 3.89941 12.6995 3.07227C12.7207 2.85956 12.8809 2.75 13.0023 2.75H14.0023C15.8668 2.75 17.1725 4.23886 16.7816 5.77441C15.4096 11.1634 11.1657 15.4074 5.77668 16.7793C4.24113 17.1702 2.75227 15.8646 2.75227 14V13ZM1.25227 14C1.25227 16.5537 3.4007 18.9324 6.1468 18.2334C12.0681 16.726 16.7282 12.0659 18.2357 6.14453C18.9347 3.39843 16.5559 1.25 14.0023 1.25H13.0023C12.019 1.25 11.2942 2.03843 11.2064 2.9248C11.1212 3.7835 10.919 4.60717 10.6155 5.37988C10.5065 5.65755 10.5726 5.97363 10.7835 6.18457L11.9183 7.31836C10.8718 9.26513 9.26824 10.8683 7.3216 11.915L6.18684 10.7812L6.10285 10.709C5.89728 10.5566 5.62508 10.5179 5.38215 10.6133C4.60944 10.9168 3.78577 11.1189 2.92707 11.2041C2.0407 11.292 1.25227 12.0168 1.25227 13V14Z" fill="#89899E"/>
</svg>
