<svg width="41" height="41" viewBox="0 0 41 41" fill="none" xmlns="http://www.w3.org/2000/svg">
<path fill-rule="evenodd" clip-rule="evenodd" d="M13.1758 14.7155C13.1758 14.497 13.2626 14.2874 13.4171 14.1329C13.5716 13.9784 13.7811 13.8916 13.9996 13.8916H27.939C28.1575 13.8916 28.3671 13.9784 28.5216 14.1329C28.6761 14.2874 28.7629 14.497 28.7629 14.7155C28.7629 14.934 28.6761 15.1435 28.5216 15.298C28.3671 15.4525 28.1575 15.5393 27.939 15.5393H13.9996C13.7811 15.5393 13.5716 15.4525 13.4171 15.298C13.2626 15.1435 13.1758 14.934 13.1758 14.7155Z" fill="#161625"/>
<path fill-rule="evenodd" clip-rule="evenodd" d="M13.1758 18.8063C13.1758 18.5878 13.2626 18.3782 13.4171 18.2237C13.5716 18.0692 13.7811 17.9824 13.9996 17.9824H20.6663C20.8848 17.9824 21.0944 18.0692 21.2489 18.2237C21.4034 18.3782 21.4902 18.5878 21.4902 18.8063C21.4902 19.0248 21.4034 19.2343 21.2489 19.3888C21.0944 19.5433 20.8848 19.6301 20.6663 19.6301H13.9996C13.7811 19.6301 13.5716 19.5433 13.4171 19.3888C13.2626 19.2343 13.1758 19.0248 13.1758 18.8063Z" fill="#161625"/>
<path d="M30.5398 23.0167C30.8504 22.7062 31.354 22.7061 31.6646 23.0167C31.9751 23.3274 31.9751 23.8309 31.6646 24.1416L23.9751 31.8311C23.6644 32.1416 23.1609 32.1416 22.8502 31.8311C22.5396 31.5205 22.5397 31.0169 22.8502 30.7063L30.5398 23.0167Z" fill="#161625"/>
<path d="M24.2649 24.403C24.2649 24.3873 24.2522 24.3746 24.2365 24.3746C24.2208 24.3746 24.2081 24.3873 24.2081 24.403C24.2081 24.4187 24.2208 24.4314 24.2365 24.4314C24.2522 24.4314 24.2649 24.4187 24.2649 24.403ZM25.8558 24.403C25.8558 25.2973 25.1308 26.0223 24.2365 26.0223C23.3422 26.0223 22.6172 25.2973 22.6172 24.403C22.6172 23.5087 23.3422 22.7837 24.2365 22.7837C25.1308 22.7837 25.8558 23.5087 25.8558 24.403Z" fill="#161625"/>
<path d="M30.3067 30.4447C30.3067 30.429 30.294 30.4163 30.2783 30.4163C30.2626 30.4163 30.2499 30.429 30.2499 30.4447C30.2499 30.4603 30.2626 30.4731 30.2783 30.4731C30.294 30.4731 30.3067 30.4603 30.3067 30.4447ZM31.8976 30.4447C31.8976 31.339 31.1726 32.064 30.2783 32.064C29.384 32.064 28.659 31.339 28.659 30.4447C28.659 29.5503 29.384 28.8253 30.2783 28.8253C31.1726 28.8253 31.8976 29.5503 31.8976 30.4447Z" fill="#161625"/>
<path d="M31.6891 19.4692V14.4692C31.6891 11.8961 29.6032 9.81015 27.0301 9.81015H14.7573C12.1842 9.81015 10.0982 11.8961 10.0982 14.4692V26.742C10.0982 29.3151 12.1842 31.4011 14.7573 31.4011H19.5301C19.9694 31.4011 20.3255 31.7572 20.3255 32.1965C20.3255 32.6358 19.9694 32.992 19.5301 32.992H14.7573C11.3055 32.992 8.50732 30.1937 8.50732 26.742V14.4692C8.50732 11.0175 11.3055 8.21924 14.7573 8.21924H27.0301C30.4818 8.21924 33.2801 11.0175 33.2801 14.4692V19.4692C33.2801 19.9086 32.9239 20.2647 32.4846 20.2647C32.0453 20.2647 31.6891 19.9086 31.6891 19.4692Z" fill="#161625"/>
</svg>
