<svg width="104" height="41" viewBox="0 0 104 41" fill="none" xmlns="http://www.w3.org/2000/svg">
<path d="M0.0522461 20.408V40.5L11.7076 40.4127C22.882 40.3473 23.4068 40.3255 25.1999 39.8455C30.5356 38.4712 33.5533 35.4825 34.1656 31.0103C34.8435 26.2109 32.9192 22.4805 28.6331 20.3208C27.7147 19.8408 26.9493 19.4482 26.9493 19.4264C26.9493 19.4045 27.4741 19.0337 28.1083 18.5974C29.5297 17.6157 30.4919 16.4595 31.2791 14.7797C31.8258 13.6453 31.8695 13.3181 31.8695 10.8093C31.8695 8.19144 31.8476 8.01691 31.1698 6.59892C29.8577 3.85018 27.1243 1.77772 23.6036 0.839661C22.4446 0.534245 20.6296 0.4688 11.161 0.403351L0.0522461 0.31609V20.408ZM20.8264 8.64956C21.8542 9.1295 22.9694 10.4166 23.1444 11.3547C23.5161 13.3181 22.6633 14.976 20.892 15.8486C19.8861 16.3504 19.6018 16.3722 14.4411 16.4376L9.01794 16.5249V12.2927V8.08236L14.5286 8.19144C18.9677 8.2787 20.2141 8.36596 20.8264 8.64956ZM22.5758 24.4221C24.4783 25.142 25.4186 26.3855 25.4186 28.2179C25.4186 29.6578 25.025 30.6176 24.1284 31.3812C22.8164 32.4719 21.7667 32.6247 15.0971 32.6247H9.01794V28.2398V23.8549L15.3158 23.9421C20.5859 24.0294 21.7448 24.0948 22.5758 24.4221Z" fill="#161625"/>
<path d="M36.5713 17.7247L36.626 35.1879L53.956 17.7902L71.3407 0.446938L66.1581 0.381489L60.9536 0.33786L53.2999 7.97324C49.1014 12.1618 45.5807 15.6086 45.4714 15.6086C45.3839 15.6086 45.3183 12.1618 45.3183 7.97324V0.33786H40.9448H36.626L36.5713 17.7247Z" fill="#161625"/>
<path d="M36.626 40.2601V34.8608L45.5643 25.9437V40.2601H36.626Z" fill="#161625"/>
<path d="M72.8714 40.2601H62.457L49.4185 22.3442L55.3227 16.3722L72.8714 40.2601Z" fill="#161625"/>
<path d="M74.5115 40.2601V0.419739H83.3678V32.5701H103.459V40.2601H74.5115Z" fill="#161625"/>
</svg>
