<svg width="83" height="51" viewBox="0 0 83 51" fill="none" xmlns="http://www.w3.org/2000/svg">
<path d="M38.9263 29.452C40.2748 29.4456 41.6234 29.4392 43.0128 29.4325C43.4373 29.4297 43.8618 29.4268 44.2991 29.4239C44.8209 29.4225 44.8209 29.4225 45.0658 29.4223C45.2354 29.4218 45.405 29.4207 45.5746 29.4191C45.8328 29.4168 46.0909 29.4165 46.3491 29.4166C46.4608 29.4149 46.4608 29.4149 46.5748 29.4132C47.5728 29.4193 48.5099 29.8521 49.23 30.596C49.8281 31.4975 49.8924 32.4307 49.8077 33.508C49.671 34.0972 49.446 34.6405 49.0374 35.068C48.8207 35.1525 48.8207 35.1525 48.6522 35.172C48.6522 35.2407 48.6522 35.3093 48.6522 35.38C48.299 35.5841 47.9904 35.7329 47.5929 35.796C47.8573 36.3165 48.1475 36.7911 48.4777 37.265C48.8364 37.7873 49.1918 38.3116 49.5369 38.8445C49.6432 39.008 49.6432 39.008 49.7517 39.1748C49.904 39.436 49.904 39.436 49.904 39.644C49.2367 39.644 48.5694 39.644 47.8818 39.644C47.85 39.5411 47.8183 39.4381 47.7855 39.332C47.722 39.332 47.6584 39.332 47.5929 39.332C47.304 38.876 47.304 38.876 47.304 38.604C47.2405 38.604 47.1769 38.604 47.1115 38.604C46.8226 38.148 46.8226 38.148 46.8226 37.876C46.759 37.876 46.6955 37.876 46.63 37.876C46.3411 37.42 46.3411 37.42 46.3411 37.148C46.2775 37.148 46.214 37.148 46.1485 37.148C45.9822 36.9278 45.9822 36.9278 45.7994 36.641C45.7386 36.5469 45.6778 36.4528 45.6151 36.3558C45.4744 36.108 45.4744 36.108 45.4744 35.9C43.9173 35.9 42.3602 35.9 40.7559 35.9C40.7559 37.1356 40.7559 38.3711 40.7559 39.644C40.1521 39.644 39.5483 39.644 38.9263 39.644C38.9263 36.2807 38.9263 32.9173 38.9263 29.452Z" fill="#161625"/>
<path d="M2.75027 0.566589C2.87011 0.567209 2.98994 0.567829 3.11341 0.568468C3.21121 0.568313 3.21121 0.568313 3.31099 0.568154C3.44875 0.568639 3.58652 0.570654 3.72424 0.574105C3.93167 0.578972 4.13861 0.578387 4.34608 0.577C5.51008 0.582169 6.53132 0.8557 7.43696 1.68403C8.25103 2.57541 8.57182 3.68483 8.62261 4.91453C8.60926 6.09003 8.22791 7.06373 7.46969 7.89031C6.75357 8.60029 5.89305 8.99333 4.91896 8.98434C4.85566 8.98405 4.79235 8.98375 4.72713 8.98345C4.52699 8.98229 4.3269 8.97968 4.12678 8.97703C3.99023 8.97598 3.85369 8.97503 3.71714 8.97418C3.38423 8.9719 3.05134 8.96832 2.71844 8.96403C2.71945 9.0317 2.72046 9.09938 2.7215 9.16911C2.7255 9.47558 2.72801 9.78204 2.73048 10.0885C2.73209 10.195 2.73371 10.3016 2.73537 10.4113C2.73599 10.5135 2.73661 10.6157 2.73725 10.7211C2.73826 10.8153 2.73927 10.9095 2.74031 11.0066C2.71844 11.252 2.71844 11.252 2.52585 11.564C2.46229 11.564 2.39874 11.564 2.33326 11.564C2.33326 11.6327 2.33326 11.7013 2.33326 11.772C2.2697 11.772 2.20615 11.772 2.14066 11.772C2.11515 11.8333 2.08963 11.8945 2.06334 11.9576C1.86812 12.3479 1.56922 12.6313 1.28002 12.942C1.21901 13.0096 1.15799 13.0772 1.09514 13.1468C1.03611 13.2106 0.977086 13.2744 0.916272 13.3402C0.83566 13.4277 0.83566 13.4277 0.75342 13.517C0.599924 13.644 0.599924 13.644 0.311035 13.644C0.311035 10.1777 0.311035 6.71139 0.311035 3.14003C0.374591 3.14003 0.438146 3.14003 0.503628 3.14003C0.529719 3.07834 0.55581 3.01666 0.582691 2.9531C0.694617 2.72727 0.80905 2.57154 0.971944 2.38684C1.02563 2.32531 1.07932 2.26377 1.13463 2.20037C1.21851 2.10566 1.21851 2.10566 1.30409 2.00903C1.4142 1.88378 1.52416 1.75839 1.63398 1.63284C1.68268 1.57776 1.73138 1.52268 1.78155 1.46592C1.96619 1.25435 1.96619 1.25435 2.1657 0.937953C2.42955 0.644031 2.42955 0.644031 2.75027 0.566589Z" fill="#161625"/>
<path d="M11.7705 0.644021C11.8023 2.18842 11.834 3.73282 11.8668 5.32402C12.655 4.39804 12.655 4.39804 13.426 3.45812C13.6415 3.19311 13.8615 2.93263 14.0816 2.67202C14.7988 1.84262 14.7988 1.84262 15.4402 0.94716C15.6614 0.661978 15.7091 0.645926 16.0738 0.573181C16.2099 0.573279 16.3459 0.576752 16.4819 0.583083C16.5898 0.584408 16.5898 0.584408 16.7 0.585759C16.9287 0.589237 17.1571 0.597063 17.3858 0.605021C17.5413 0.608153 17.6968 0.610999 17.8524 0.613552C18.2326 0.620412 18.6126 0.631171 18.9927 0.644021C18.8648 0.94837 18.7235 1.17131 18.5101 1.41265C18.4533 1.47743 18.3966 1.54222 18.3381 1.60897C18.248 1.71047 18.248 1.71047 18.1561 1.81402C18.0328 1.95477 17.9095 2.0956 17.7864 2.23652C17.7278 2.30342 17.6692 2.37032 17.6089 2.43924C17.3799 2.70308 17.1603 2.97488 16.9419 3.2489C16.7304 3.5109 16.5134 3.76725 16.2964 4.02402C15.9606 4.42182 15.6273 4.82129 15.3022 5.22937C15.1863 5.37203 15.0673 5.51174 14.9464 5.64943C14.8834 5.72222 14.8205 5.79502 14.7557 5.87002C14.6981 5.93491 14.6405 5.99979 14.5811 6.06665C14.4455 6.25274 14.4455 6.25274 14.4845 6.47858C14.5894 6.74215 14.759 6.89418 14.9483 7.09202C14.9483 7.16066 14.9483 7.2293 14.9483 7.30002C15.0118 7.30002 15.0754 7.30002 15.1409 7.30002C15.2699 7.4418 15.2699 7.4418 15.4237 7.64452C15.7579 8.07028 16.1167 8.46128 16.4845 8.85306C16.7923 9.18286 17.0784 9.52413 17.3587 9.88093C17.666 10.2491 17.9966 10.5927 18.3273 10.9363C18.4563 11.0725 18.5805 11.2139 18.7038 11.356C18.7038 11.4247 18.7038 11.4933 18.7038 11.564C18.7674 11.564 18.8309 11.564 18.8964 11.564C18.759 11.9029 18.5914 12.1259 18.348 12.3846C18.2791 12.4584 18.2102 12.5321 18.1392 12.6081C18.0673 12.684 17.9955 12.7598 17.9214 12.838C17.8488 12.9155 17.7762 12.993 17.7014 13.0728C17.5224 13.2637 17.3429 13.4541 17.1631 13.644C16.9765 13.5595 16.9765 13.5595 16.7779 13.436C16.7461 13.3331 16.7143 13.2301 16.6816 13.124C16.618 13.124 16.5545 13.124 16.489 13.124C16.3532 12.9786 16.3532 12.9786 16.1941 12.773C15.9278 12.4346 15.6577 12.1013 15.3816 11.772C15.0681 11.3968 14.758 11.0188 14.4514 10.637C14.3159 10.4711 14.1784 10.3074 14.0398 10.1446C13.9603 10.051 13.8807 9.95743 13.7987 9.86102C13.6872 9.73112 13.6872 9.73112 13.5734 9.59858C13.4075 9.38002 13.4075 9.38002 13.4075 9.17202C13.344 9.17202 13.2804 9.17202 13.2149 9.17202C13.0708 8.99745 12.9335 8.81638 12.7997 8.63252C12.5068 8.23143 12.2034 7.86663 11.8668 7.50802C11.8689 7.60915 11.871 7.71027 11.8732 7.81446C11.8799 8.19501 11.8801 8.57532 11.8785 8.95592C11.8787 9.11962 11.8806 9.28333 11.8843 9.44698C11.9037 10.3613 11.8934 11.0049 11.3052 11.703C11.1414 11.8672 10.9757 12.0291 10.8075 12.188C10.683 12.3354 10.5601 12.4845 10.4404 12.6365C10.3613 12.7341 10.3613 12.7341 10.2805 12.8336C10.1386 13.0135 10.0038 13.1981 9.86863 13.384C9.79713 13.4698 9.72563 13.5556 9.65197 13.644C9.55663 13.644 9.4613 13.644 9.36308 13.644C9.32946 12.2897 9.30387 10.9356 9.28824 9.5809C9.28073 8.95169 9.27057 8.3228 9.25411 7.69378C9.23829 7.0855 9.22975 6.47754 9.22603 5.86904C9.22338 5.63815 9.21821 5.40727 9.21036 5.17651C9.17416 4.06841 9.15441 3.17302 9.86152 2.30825C10.107 2.04098 10.362 1.79107 10.6282 1.54809C10.8651 1.31548 11.0559 1.05401 11.2476 0.777877C11.3853 0.644021 11.3853 0.644021 11.7705 0.644021Z" fill="#161625"/>
<path d="M30.1937 16.9414C30.2927 16.9425 30.3917 16.9435 30.4936 16.9445C30.6485 16.9484 30.6485 16.9484 30.8064 16.9524C30.9629 16.9545 30.9629 16.9545 31.1226 16.9567C31.3804 16.9604 31.638 16.9655 31.8958 16.9719C32.6474 18.3813 33.3689 19.8048 34.0713 21.2432C34.5196 22.1608 34.9762 23.0714 35.4527 23.9724C35.8439 24.7122 36.2272 25.4554 36.5962 26.2084C36.6374 26.2918 36.6785 26.3751 36.7209 26.461C36.9995 27.0345 36.9995 27.0345 36.9995 27.2679C35.2887 27.4549 35.2887 27.4549 34.8057 27.0351C34.6356 26.7373 34.5123 26.4515 34.3995 26.1239C34.3387 26.0018 34.2768 25.8802 34.2129 25.7599C34.1106 25.4999 34.1106 25.4999 34.1106 25.1879C33.2668 25.1638 32.4232 25.1453 31.5792 25.134C31.1873 25.1286 30.7955 25.1213 30.4037 25.1095C30.0253 25.0981 29.6471 25.0919 29.2686 25.0892C29.1244 25.0873 28.9803 25.0836 28.8362 25.078C28.3983 25.0615 27.9884 25.06 27.5624 25.1879C27.2698 25.4971 27.1284 25.8184 26.9847 26.2279C26.9313 26.3365 26.8779 26.4451 26.8229 26.557C26.7849 26.6414 26.7469 26.7259 26.7078 26.8129C26.6403 26.9631 26.5728 27.1132 26.5032 27.2679C25.8358 27.2679 25.1685 27.2679 24.481 27.2679C24.6149 26.8338 24.7276 26.5069 24.9256 26.1174C24.9755 26.0186 25.0254 25.9198 25.0768 25.818C25.1304 25.713 25.184 25.608 25.2393 25.4999C25.2951 25.3897 25.3509 25.2795 25.4083 25.166C25.524 24.9376 25.6399 24.7093 25.756 24.4811C25.9607 24.0785 26.1642 23.6751 26.3676 23.2716C26.5575 22.8951 26.7478 22.5189 26.9381 22.1426C27.1303 21.7624 27.3223 21.3822 27.5143 21.0019C27.6099 20.8126 27.7056 20.6234 27.8013 20.4342C28.0544 19.9339 28.3061 19.4327 28.5559 18.9304C28.6082 18.8257 28.6605 18.7209 28.7144 18.613C28.8149 18.4117 28.915 18.2102 29.0146 18.0085C29.0598 17.918 29.1051 17.8276 29.1517 17.7344C29.1912 17.6548 29.2308 17.5751 29.2715 17.4931C29.5348 17.0362 29.6881 16.9324 30.1937 16.9414Z" fill="#161625"/>
<path d="M29.5855 29.4519C30.38 29.4519 31.1744 29.4519 31.9929 29.4519C32.0838 29.6356 32.1747 29.8192 32.2683 30.0085C32.9909 31.4679 33.7176 32.9247 34.4536 34.3764C34.5953 34.6566 34.7364 34.9371 34.8773 35.2178C34.9731 35.4084 35.0689 35.5989 35.1647 35.7894C35.2113 35.8821 35.2579 35.9749 35.3059 36.0704C35.5656 36.5849 35.8299 37.096 36.0994 37.6045C36.1574 37.7139 36.2153 37.8233 36.2749 37.9361C36.3874 38.1478 36.5004 38.3593 36.614 38.5704C36.6645 38.6655 36.7151 38.7606 36.7671 38.8586C36.8122 38.9426 36.8573 39.0267 36.9038 39.1132C37.0003 39.3319 37.0003 39.3319 37.0003 39.6439C35.2933 39.8305 35.2933 39.8305 34.81 39.4184C34.6381 39.1187 34.5154 38.8295 34.4003 38.4999C34.3234 38.341 34.2453 38.1827 34.1656 38.0254C34.0152 37.6679 34.0152 37.6679 34.0152 37.4599C31.886 37.4599 29.7569 37.4599 27.5633 37.4599C27.4998 37.6315 27.4362 37.8031 27.3707 37.9799C27.2785 38.1911 27.1841 38.4013 27.0878 38.6104C27.0393 38.7167 26.9908 38.823 26.9408 38.9326C26.807 39.1998 26.6938 39.4207 26.5041 39.6439C26.2945 39.6911 26.2945 39.6911 26.0545 39.6845C25.9686 39.6832 25.8826 39.6818 25.7941 39.6805C25.7046 39.677 25.6152 39.6735 25.523 39.6699C25.4325 39.668 25.3419 39.6662 25.2486 39.6642C25.025 39.6593 24.8016 39.6525 24.5781 39.6439C24.6998 39.2205 24.8451 38.8412 25.0404 38.4516C25.0942 38.3438 25.148 38.236 25.2035 38.125C25.2613 38.0106 25.3191 37.8962 25.3786 37.7784C25.4382 37.6595 25.4979 37.5405 25.5593 37.418C26.0137 36.514 26.4817 35.6186 26.9533 34.7251C27.2004 34.2553 27.4415 33.7864 27.6596 33.2999C27.8451 32.8925 28.0394 32.4937 28.2472 32.099C28.3304 31.9404 28.3304 31.9404 28.4153 31.7785C28.5269 31.5668 28.6387 31.3553 28.7508 31.1439C28.8292 30.9957 28.8292 30.9957 28.9092 30.8445C28.956 30.7566 29.0027 30.6687 29.0509 30.5781C29.2388 30.2083 29.4108 29.8292 29.5855 29.4519Z" fill="#161625"/>
<path d="M40.5699 16.845C41.1646 16.8616 41.6173 16.8822 42.0708 17.3258C42.3698 17.694 42.6131 18.0968 42.8445 18.5172C43.0173 18.8224 43.2183 19.0796 43.434 19.3509C43.5684 19.5286 43.7028 19.7063 43.8373 19.8839C43.9037 19.9715 43.9701 20.059 44.0385 20.1492C44.5249 20.7904 45.0091 21.4334 45.4929 22.0768C46.0137 22.7693 46.5361 23.4605 47.0613 24.1491C47.1784 24.303 47.1784 24.303 47.2979 24.4599C47.4035 24.5983 47.4035 24.5983 47.5112 24.7394C47.6891 24.9799 47.6891 24.9799 47.8817 25.2919C47.9662 24.8221 47.9897 24.3784 47.9889 23.9002C47.9889 23.826 47.989 23.7519 47.989 23.6755C47.9889 23.4324 47.9882 23.1893 47.9874 22.9462C47.9872 22.7769 47.9871 22.6076 47.987 22.4383C47.9866 21.9941 47.9857 21.5499 47.9846 21.1057C47.9836 20.6519 47.9832 20.198 47.9827 19.7442C47.9817 18.8548 47.98 17.9653 47.978 17.0759C48.3783 16.9827 48.7473 16.958 49.1576 16.9589C49.2773 16.9587 49.397 16.9584 49.5202 16.9581C49.8076 16.9719 49.8076 16.9719 49.9039 17.0759C49.9136 17.3888 49.917 17.6992 49.9164 18.0121C49.9166 18.1595 49.9166 18.1595 49.9169 18.3098C49.9173 18.6363 49.917 18.9627 49.9167 19.2892C49.9168 19.515 49.9169 19.7407 49.917 19.9665C49.9171 20.4404 49.9169 20.9142 49.9165 21.3881C49.9159 21.997 49.9162 22.6059 49.9168 23.2148C49.9172 23.6813 49.9171 24.1477 49.9168 24.6141C49.9167 24.8387 49.9168 25.0633 49.9171 25.2878C49.9173 25.6011 49.9169 25.9144 49.9164 26.2277C49.9166 26.3215 49.9168 26.4153 49.917 26.5119C49.9149 27.152 49.9149 27.152 49.8076 27.2679C49.4224 27.3132 49.0368 27.3273 48.6496 27.3386C48.4564 27.3458 48.2635 27.3596 48.0707 27.3735C47.1493 27.3976 47.1493 27.3976 46.7533 27.015C46.2447 26.2736 46.2447 26.2736 46.2447 25.9159C46.1017 25.8644 46.1017 25.8644 45.9558 25.8119C45.787 25.5989 45.6298 25.3858 45.4743 25.1619C45.1065 24.6435 44.7307 24.1365 44.3368 23.6409C43.2595 22.2785 43.2595 22.2785 43.2595 21.9639C43.1959 21.9639 43.1324 21.9639 43.0669 21.9639C42.8968 21.7488 42.7372 21.5327 42.5794 21.3074C42.4845 21.1739 42.3894 21.0406 42.2943 20.9073C42.2465 20.8402 42.1987 20.7732 42.1495 20.7041C41.8734 20.3223 41.5828 19.9534 41.2933 19.5833C41.141 19.3639 41.141 19.3639 41.141 19.1559C41.0456 19.1216 40.9503 19.0873 40.8521 19.0519C40.8203 18.9833 40.7885 18.9146 40.7558 18.8439C40.724 21.5895 40.6922 24.3351 40.6595 27.1639C40.0557 27.1639 39.4519 27.1639 38.8299 27.1639C38.8277 25.8504 38.8259 24.5369 38.8249 23.2234C38.8244 22.6135 38.8237 22.0037 38.8226 21.3938C38.8215 20.8058 38.821 20.2178 38.8207 19.6298C38.8205 19.4049 38.8202 19.1801 38.8197 18.9552C38.819 18.6414 38.8189 18.3276 38.8189 18.0138C38.8186 17.9198 38.8182 17.8259 38.8179 17.7291C38.8196 16.5911 39.6714 16.8688 40.5699 16.845Z" fill="#161625"/>
<path d="M81.6819 18.116C81.6363 18.565 81.3898 18.775 81.0982 19.078C81.0096 19.1708 80.9211 19.2636 80.83 19.3591C80.7616 19.4294 80.6932 19.4996 80.6227 19.572C80.5435 19.5381 80.4643 19.5042 80.3827 19.4692C79.0248 18.8952 77.9089 18.6174 76.4519 18.6165C76.339 18.6152 76.2261 18.614 76.1097 18.6127C74.824 18.5916 74.824 18.5916 73.6894 19.156C73.4653 19.5631 73.4955 19.8472 73.5931 20.3C73.6526 20.315 73.7122 20.33 73.7736 20.3455C73.9782 20.404 73.9782 20.404 74.1708 20.508C74.313 20.5285 74.4559 20.5438 74.5989 20.5564C74.686 20.5643 74.7731 20.5723 74.8628 20.5805C74.9562 20.5888 75.0496 20.597 75.1458 20.6055C76.0443 20.6893 76.9363 20.7941 77.8301 20.924C77.9423 20.9388 78.0545 20.9535 78.1701 20.9687C79.5155 21.1552 80.8088 21.3551 81.8144 22.4125C82.2147 23.1276 82.381 23.874 82.2112 24.6944C82.0635 25.233 81.8556 25.718 81.4894 26.124C81.2185 26.2735 81.2185 26.2735 81.0079 26.332C81.0079 26.4007 81.0079 26.4693 81.0079 26.54C78.8714 27.8201 76.073 27.7526 73.7554 27.1014C72.7723 26.7952 71.9321 26.3317 71.0894 25.708C71.7563 24.606 71.7563 24.606 72.0523 24.252C72.1159 24.252 72.1794 24.252 72.2449 24.252C72.2449 24.3207 72.2449 24.3893 72.2449 24.46C72.2998 24.4722 72.3546 24.4844 72.4112 24.497C72.6487 24.5697 72.8354 24.6759 73.0514 24.8045C74.1857 25.4325 75.3729 25.6267 76.6298 25.6347C76.8221 25.6365 77.0144 25.6411 77.2066 25.6457C78.1917 25.6526 79.0537 25.5318 79.8523 24.876C79.9159 24.876 79.9794 24.876 80.0449 24.876C80.1697 24.4717 80.2078 24.0481 80.1412 23.628C79.6878 23.0033 78.7159 22.8968 78.0227 22.796C77.6718 22.7718 77.3208 22.7577 76.9694 22.744C75.9939 22.706 75.9939 22.706 75.5487 22.6368C75.2462 22.5905 74.9604 22.591 74.6557 22.5951C74.323 22.5831 74.0106 22.5022 73.6894 22.4125C73.6221 22.3939 73.5548 22.3752 73.4855 22.356C72.6887 22.1214 72.1325 21.7671 71.6671 21.028C71.3987 20.2687 71.4127 19.611 71.6713 18.8574C72.034 17.986 72.8278 17.4826 73.6277 17.1491C76.2036 16.2646 79.3745 16.5668 81.6819 18.116Z" fill="#161625"/>
<path d="M53.0811 29.4383C53.1586 29.4381 53.236 29.438 53.3158 29.4379C53.3973 29.4383 53.4787 29.4387 53.5626 29.4391C53.6847 29.4385 53.6847 29.4385 53.8093 29.4379C53.8868 29.438 53.9643 29.4381 54.0441 29.4383C54.1156 29.4384 54.1871 29.4385 54.2607 29.4386C54.4293 29.4521 54.4293 29.4521 54.5256 29.5561C54.5373 29.706 54.5427 29.8566 54.5453 30.007C54.5472 30.1028 54.5492 30.1986 54.5511 30.2973C54.5528 30.4014 54.5544 30.5055 54.556 30.6127C54.558 30.7188 54.56 30.8248 54.5621 30.9341C54.5684 31.2742 54.5741 31.6144 54.5797 31.9546C54.5839 32.1846 54.5881 32.4146 54.5923 32.6446C54.6027 33.2097 54.6125 33.7749 54.6218 34.3401C54.7016 34.2728 54.7814 34.2056 54.8635 34.1363C55.492 33.6089 56.1258 33.1008 56.7885 32.6241C57.4219 32.1624 58.032 31.6837 58.6332 31.1742C60.7224 29.4241 60.7224 29.4241 61.4781 29.4318C61.5944 29.4324 61.7108 29.4331 61.8307 29.4338C62.0131 29.4364 62.0131 29.4364 62.1992 29.4391C62.3832 29.4405 62.3832 29.4405 62.571 29.4419C62.8744 29.4444 63.1777 29.4478 63.4811 29.4521C63.3648 29.8289 63.26 29.8839 62.9575 30.0956C62.8802 30.1507 62.8028 30.2058 62.7232 30.2625C62.5181 30.3881 62.5181 30.3881 62.3256 30.3881C62.3256 30.4567 62.3256 30.5254 62.3256 30.5961C62.1422 30.7468 61.9524 30.8885 61.7598 31.0251C61.6023 31.1381 61.6023 31.1381 61.4416 31.2534C61.17 31.4281 61.17 31.4281 60.9774 31.4281C60.9774 31.4967 60.9774 31.5654 60.9774 31.6361C60.5552 31.9481 60.5552 31.9481 60.3033 31.9481C60.3033 32.0167 60.3033 32.0854 60.3033 32.1561C60.1619 32.2847 60.1619 32.2847 59.9663 32.4266C59.862 32.5031 59.862 32.5031 59.7556 32.581C59.6822 32.6338 59.6087 32.6867 59.533 32.7411C59.4227 32.8215 59.4227 32.8215 59.3103 32.9036C59.1281 33.0364 58.9455 33.1685 58.7626 33.3001C59.1101 34.0908 59.762 34.6996 60.3349 35.307C60.5049 35.4939 60.6629 35.6883 60.8209 35.8871C61.0705 36.2001 61.3311 36.494 61.6033 36.7841C61.9333 37.1357 62.2407 37.499 62.5418 37.8793C62.7777 38.1653 63.032 38.4288 63.2893 38.6922C63.5441 38.9896 63.7487 39.3112 63.9626 39.6441C61.7301 39.8606 61.7301 39.8606 61.1865 39.3955C60.9143 39.0939 60.7089 38.7475 60.4959 38.3961C60.3615 38.2424 60.2234 38.0923 60.0806 37.9476C59.4083 37.2305 59.4083 37.2305 59.1478 36.8361C59.1478 36.7674 59.1478 36.6988 59.1478 36.6281C59.0912 36.6017 59.0347 36.5753 58.9764 36.5481C58.739 36.406 58.6017 36.2551 58.4225 36.0358C58.3604 35.9614 58.2982 35.887 58.2341 35.8103C58.1046 35.653 57.9754 35.4954 57.8466 35.3374C57.7845 35.2633 57.7223 35.1892 57.6582 35.1128C57.6021 35.0444 57.5461 34.976 57.4884 34.9055C57.3049 34.7123 57.3049 34.7123 56.933 34.7561C56.738 34.8908 56.5452 35.0293 56.3552 35.1721C56.2916 35.1721 56.2281 35.1721 56.1626 35.1721C56.1626 35.2407 56.1626 35.3094 56.1626 35.3801C55.7404 35.6921 55.7404 35.6921 55.4885 35.6921C55.4885 35.7607 55.4885 35.8294 55.4885 35.9001C55.3468 35.9753 55.2043 36.049 55.0616 36.1219C54.7322 36.3512 54.6364 36.4603 54.5413 36.877C54.5148 37.3123 54.5114 37.7393 54.5195 38.1751C54.5192 38.3276 54.5186 38.48 54.5175 38.6325C54.5157 39.0045 54.5192 39.3762 54.5256 39.7481C54.2226 39.7511 53.9197 39.7529 53.6168 39.7546C53.5303 39.7555 53.4438 39.7563 53.3548 39.7572C53.2314 39.7577 53.2314 39.7577 53.1056 39.7582C53.0294 39.7588 52.9533 39.7593 52.8748 39.7599C52.6959 39.7481 52.6959 39.7481 52.5996 39.6441C52.5899 39.3312 52.5865 39.0208 52.5872 38.7079C52.587 38.6096 52.5868 38.5114 52.5867 38.4102C52.5862 38.0837 52.5865 37.7573 52.5868 37.4308C52.5868 37.2051 52.5867 36.9793 52.5866 36.7535C52.5864 36.2796 52.5866 35.8058 52.5871 35.3319C52.5876 34.723 52.5873 34.1141 52.5867 33.5052C52.5864 33.0387 52.5865 32.5723 52.5867 32.1059C52.5868 31.8813 52.5867 31.6567 52.5865 31.4322C52.5863 31.1189 52.5866 30.8056 52.5872 30.4923C52.587 30.3985 52.5868 30.3047 52.5866 30.2081C52.589 29.4391 52.589 29.4391 53.0811 29.4383Z" fill="#161625"/>
<path d="M9.74856 29.868C9.82514 29.904 9.90173 29.9401 9.98064 29.9772C10.655 30.3048 11.1488 30.7683 11.6745 31.324C11.7297 31.382 11.785 31.4401 11.8419 31.4999C11.9479 31.6131 12.0523 31.7282 12.156 31.844C11.9173 32.1017 11.718 32.1552 11.3976 32.2665C11.2966 32.302 11.1955 32.3375 11.0914 32.3741C10.9978 32.4051 10.9042 32.4361 10.8078 32.468C10.7402 32.496 10.6725 32.524 10.6028 32.5529C10.4226 32.572 10.4226 32.572 10.2327 32.4411C10.1331 32.345 10.1331 32.345 10.0314 32.247C8.856 31.2009 7.40638 30.922 5.92 31.0582C4.58157 31.2067 3.75569 31.5879 2.81522 32.676C2.26995 33.4359 2.26007 34.3649 2.35669 35.2869C2.4656 35.8822 2.7517 36.3692 3.10411 36.836C3.24711 36.9389 3.24711 36.9389 3.393 37.044C3.393 37.1126 3.393 37.1812 3.393 37.252C3.48833 37.252 3.58367 37.252 3.68189 37.252C3.68189 37.3206 3.68189 37.3892 3.68189 37.46C3.77611 37.4901 3.77611 37.4901 3.87222 37.5209C3.95639 37.548 4.04055 37.5751 4.12726 37.603C4.21601 37.6314 4.30477 37.6598 4.39621 37.6891C4.57547 37.7488 4.75253 37.8165 4.92772 37.889C5.37458 38.0268 5.81909 38.0565 6.28189 38.084C6.42284 38.0924 6.42284 38.0924 6.56664 38.101C7.85431 38.1411 9.16776 37.747 10.1337 36.7905C10.4226 36.524 10.4226 36.524 10.5927 36.5361C10.8941 36.6648 11.175 36.8289 11.4578 36.9985C11.5158 37.0327 11.5738 37.067 11.6335 37.1023C11.7758 37.1864 11.9177 37.2711 12.0597 37.356C11.9157 37.7291 11.7183 37.9472 11.4398 38.214C11.3644 38.2874 11.2891 38.3609 11.2114 38.4366C11.0004 38.604 11.0004 38.604 10.7115 38.604C10.7115 38.6726 10.7115 38.7412 10.7115 38.812C8.69845 40.0065 6.38234 40.3314 4.16337 39.644C2.59925 39.0816 1.38802 38.1487 0.639905 36.5475C0.147095 35.3297 0.160653 33.8737 0.590252 32.6357C1.08403 31.4354 1.95233 30.587 3.00782 29.972C3.13071 29.8984 3.13071 29.8984 3.25608 29.8233C5.15319 28.7866 7.86739 28.8041 9.74856 29.868Z" fill="#161625"/>
<path d="M63.7041 18.5904C63.9514 18.8326 64.1563 19.0691 64.3481 19.3639C64.3481 19.4326 64.3481 19.5012 64.3481 19.5719C64.1158 19.6621 63.8831 19.7507 63.6499 19.8384C63.5843 19.8641 63.5186 19.8898 63.451 19.9162C62.8299 20.1474 62.8299 20.1474 62.5185 19.9879C62.3563 19.8632 62.3563 19.8632 62.1874 19.7084C61.1513 18.8409 60.0987 18.6174 58.8231 18.6164C58.7369 18.6152 58.6508 18.6139 58.562 18.6126C57.6925 18.6105 56.9676 18.8172 56.1629 19.1559C56.035 19.1925 55.9066 19.2277 55.7777 19.2599C55.7777 19.3286 55.7777 19.3972 55.7777 19.4679C55.3472 19.8839 55.3472 19.8839 55.1036 19.8839C55.0719 20.0212 55.0401 20.1585 55.0074 20.2999C54.9438 20.2999 54.8802 20.2999 54.8148 20.2999C54.4742 21.25 54.3128 22.3431 54.6884 23.3094C55.0337 24.0438 55.0337 24.0438 55.5851 24.5639C55.5851 24.6326 55.5851 24.7012 55.5851 24.7719C55.6666 24.7998 55.748 24.8277 55.8319 24.8564C56.2595 25.016 56.6697 25.2126 57.0837 25.4089C58.4806 25.9505 60.1818 25.6589 61.4833 24.9994C61.9546 24.735 62.3276 24.4393 62.7111 24.0439C63.0761 24.1924 63.4112 24.3728 63.7523 24.5769C63.8462 24.633 63.9402 24.689 64.037 24.7468C64.1079 24.7894 64.1788 24.832 64.2518 24.8759C64.1132 25.2282 63.9416 25.4333 63.674 25.6819C63.6065 25.7458 63.539 25.8096 63.4694 25.8753C63.2888 26.0199 63.2888 26.0199 63.0962 26.0199C63.0962 26.0886 63.0962 26.1572 63.0962 26.2279C62.7122 26.4384 62.3268 26.6458 61.9407 26.8519C61.8334 26.9099 61.7262 26.9678 61.6157 27.0274C60.6734 27.3959 59.7882 27.5047 58.793 27.5084C58.6559 27.5093 58.6559 27.5093 58.516 27.5101C56.7498 27.4912 55.0903 26.8943 53.7796 25.5909C52.7997 24.4775 52.4485 23.2151 52.4739 21.7165C52.5754 20.431 53.0987 19.2862 53.9661 18.4019C56.807 15.8642 60.9049 16.1689 63.7041 18.5904Z" fill="#161625"/>
<path d="M23.377 0.552598C23.5314 0.554346 23.6857 0.555677 23.8401 0.556611C24.2442 0.560166 24.648 0.569343 25.052 0.579734C25.4652 0.58935 25.8783 0.593592 26.2915 0.598301C27.1006 0.608306 27.9095 0.624257 28.7184 0.644004C28.6286 0.775278 28.5385 0.906357 28.4483 1.03736C28.3981 1.11037 28.3479 1.18339 28.2963 1.25862C28.0636 1.58364 27.8067 1.8805 27.5448 2.178C27.445 2.29212 27.3453 2.40641 27.2458 2.52088C27.2026 2.57005 27.1594 2.61921 27.1148 2.66987C26.9764 2.82964 26.9764 2.82964 26.8617 3.04294C26.6962 3.244 26.6962 3.244 26.4824 3.29403C26.3992 3.29311 26.316 3.29218 26.2303 3.29123C26.1358 3.2912 26.0414 3.29117 25.9441 3.29114C25.8424 3.28899 25.7406 3.28684 25.6358 3.28463C25.5315 3.28404 25.4272 3.28345 25.3197 3.28285C24.9861 3.28051 24.6525 3.27529 24.3189 3.27C24.0929 3.26792 23.8669 3.26602 23.6409 3.26432C23.0865 3.25973 22.5321 3.25254 21.9777 3.244C21.9777 3.82744 21.9777 4.41088 21.9777 5.012C23.1217 5.012 24.2657 5.012 25.4444 5.012C25.4444 5.22 25.4444 5.22 25.2499 5.44019C25.2059 5.48587 25.1619 5.53155 25.1165 5.57862C24.8079 5.90281 24.5172 6.24613 24.2226 6.585C24.1575 6.65941 24.0924 6.73381 24.0253 6.81047C23.9629 6.8822 23.9006 6.95392 23.8363 7.02782C23.7516 7.12497 23.7516 7.12497 23.6653 7.22409C23.5007 7.41763 23.5007 7.41763 23.3259 7.716C22.881 7.716 22.4361 7.716 21.9777 7.716C21.9777 8.84856 21.9777 9.98112 21.9777 11.148C21.9142 11.148 21.8506 11.148 21.7851 11.148C21.76 11.2086 21.735 11.2692 21.7091 11.3316C21.5849 11.5793 21.4482 11.7511 21.2679 11.954C21.2047 12.0259 21.1414 12.0977 21.0762 12.1718C20.9773 12.2828 20.9773 12.2828 20.8763 12.396C20.7459 12.5432 20.6156 12.6905 20.4855 12.838C20.4277 12.9029 20.3699 12.9678 20.3104 13.0346C20.1414 13.226 20.1414 13.226 20.0066 13.4604C19.9336 13.5513 19.9336 13.5513 19.8592 13.644C19.7321 13.644 19.605 13.644 19.474 13.644C19.4584 12.3295 19.4464 11.0151 19.4391 9.7005C19.4356 9.09005 19.4308 8.47967 19.4232 7.86926C19.4158 7.27989 19.4118 6.6906 19.4101 6.10118C19.4088 5.87661 19.4064 5.65203 19.4027 5.42749C19.3978 5.11226 19.3972 4.79732 19.3975 4.48205C19.3951 4.38974 19.3926 4.29743 19.3901 4.20232C19.397 3.56085 19.5649 3.24746 19.981 2.79273C20.0637 2.70723 20.0637 2.70723 20.1481 2.62C20.2611 2.48346 20.2611 2.48346 20.3764 2.34416C20.4421 2.26573 20.5077 2.18731 20.5754 2.1065C20.8832 1.74529 20.8832 1.74529 21.1508 1.35018C21.7451 0.445872 22.4444 0.521471 23.377 0.552598Z" fill="#161625"/>
<path d="M1.02962 16.9579C1.16394 16.9582 1.16394 16.9582 1.30097 16.9585C1.44165 16.9582 1.44165 16.9582 1.58516 16.958C1.89681 16.9575 2.20845 16.9578 2.5201 16.9581C2.73563 16.9581 2.95116 16.958 3.16669 16.9578C3.61906 16.9577 4.07142 16.9579 4.52379 16.9584C5.10509 16.959 5.68637 16.9587 6.26766 16.958C6.71292 16.9577 7.15817 16.9578 7.60342 16.958C7.81782 16.9581 8.03222 16.958 8.24662 16.9578C8.5457 16.9575 8.84477 16.9579 9.14385 16.9585C9.2334 16.9583 9.32295 16.9581 9.41521 16.9579C10.0262 16.9601 10.0262 16.9601 10.1335 17.076C10.1335 17.6594 10.1335 18.2428 10.1335 18.844C7.49597 18.844 4.85841 18.844 2.14093 18.844C2.14093 19.5647 2.14093 20.2854 2.14093 21.028C3.95226 21.028 5.7636 21.028 7.62982 21.028C7.62982 21.6114 7.62982 22.1948 7.62982 22.796C5.81849 22.796 4.00715 22.796 2.14093 22.796C2.14093 24.2717 2.14093 25.7475 2.14093 27.268C1.56893 27.268 0.996931 27.268 0.407597 27.268C0.223824 27.0695 0.299095 26.7761 0.29825 26.512C0.298445 26.4182 0.29864 26.3244 0.298841 26.2278C0.298672 26.1295 0.298503 26.0313 0.298329 25.9301C0.297904 25.6036 0.298187 25.2772 0.298512 24.9507C0.298447 24.7249 0.298353 24.4992 0.298232 24.2734C0.29809 23.7995 0.298298 23.3256 0.298747 22.8518C0.299295 22.2429 0.29898 21.634 0.298403 21.025C0.298056 20.5586 0.298165 20.0922 0.298415 19.6258C0.29848 19.4012 0.2984 19.1766 0.298176 18.952C0.297933 18.6387 0.298303 18.3255 0.298841 18.0122C0.298646 17.9184 0.298451 17.8246 0.29825 17.7279C0.300703 16.9611 0.321104 16.9604 1.02962 16.9579Z" fill="#161625"/>
<path d="M14.7554 29.4519C15.3274 29.4519 15.8994 29.4519 16.4887 29.4519C16.6543 29.6308 16.5965 29.8584 16.597 30.0968C16.5966 30.1743 16.5963 30.2517 16.5959 30.3315C16.5959 30.4126 16.596 30.4938 16.596 30.5774C16.5959 30.847 16.5952 31.1165 16.5944 31.3861C16.5942 31.5724 16.5941 31.7588 16.594 31.9452C16.5936 32.4368 16.5927 32.9283 16.5916 33.4199C16.5905 34.0091 16.59 34.5984 16.5895 35.1877C16.5885 36.0837 16.5867 36.9798 16.585 37.8759C19.0001 37.8759 21.4152 37.8759 23.9035 37.8759C23.9035 38.4593 23.9035 39.0428 23.9035 39.6439C20.8846 39.6439 17.8657 39.6439 14.7554 39.6439C14.7554 36.2805 14.7554 32.9172 14.7554 29.4519Z" fill="#161625"/>
<path d="M67.4293 16.9581C67.5067 16.958 67.5842 16.9578 67.664 16.9577C67.7454 16.9581 67.8268 16.9585 67.9107 16.9589C68.0329 16.9583 68.0329 16.9583 68.1575 16.9577C68.235 16.9578 68.3124 16.958 68.3922 16.9581C68.4637 16.9582 68.5352 16.9583 68.6089 16.9585C68.7774 16.9719 68.7774 16.9719 68.8737 17.0759C68.8834 17.3888 68.8868 17.6992 68.8862 18.0121C68.8863 18.1104 68.8865 18.2086 68.8867 18.3098C68.8871 18.6363 68.8868 18.9627 68.8865 19.2892C68.8866 19.5149 68.8866 19.7407 68.8868 19.9665C68.8869 20.4404 68.8867 20.9142 68.8863 21.3881C68.8857 21.997 68.886 22.6059 68.8866 23.2148C68.8869 23.6813 68.8868 24.1477 68.8866 24.6141C68.8865 24.8387 68.8866 25.0633 68.8868 25.2878C68.8871 25.6011 68.8867 25.9144 68.8862 26.2277C68.8864 26.3215 68.8865 26.4153 68.8867 26.5119C68.8847 27.152 68.8847 27.152 68.7774 27.2679C68.6493 27.2782 68.5207 27.2815 68.3922 27.2817C68.3148 27.2819 68.2373 27.282 68.1575 27.2821C68.0761 27.2817 67.9946 27.2813 67.9107 27.2809C67.8293 27.2813 67.7479 27.2817 67.664 27.2821C67.5865 27.282 67.5091 27.2819 67.4293 27.2817C67.3578 27.2816 67.2863 27.2815 67.2126 27.2814C67.0441 27.2679 67.0441 27.2679 66.9478 27.1639C66.9381 26.8511 66.9347 26.5406 66.9353 26.2277C66.9351 26.1295 66.935 26.0312 66.9348 25.93C66.9344 25.6036 66.9347 25.2771 66.935 24.9507C66.9349 24.7249 66.9348 24.4991 66.9347 24.2733C66.9346 23.7995 66.9348 23.3256 66.9352 22.8517C66.9358 22.2428 66.9354 21.6339 66.9349 21.025C66.9345 20.5586 66.9346 20.0922 66.9349 19.6258C66.9349 19.4012 66.9349 19.1766 66.9346 18.952C66.9344 18.6387 66.9348 18.3254 66.9353 18.0121C66.9351 17.9183 66.9349 17.8245 66.9347 17.7279C66.9372 16.9589 66.9372 16.9589 67.4293 16.9581Z" fill="#161625"/>
<path d="M19.1064 17.0322C21.0277 17.0104 21.0284 17.0104 21.7852 17.4922V17.7002C21.8582 17.7254 21.9316 17.7504 22.0068 17.7764C22.3046 17.9272 22.3989 18.0529 22.5732 18.3496C22.6438 18.4662 22.6438 18.4669 22.7158 18.5859C23.1338 19.4281 23.1662 20.4128 22.9717 21.3379C22.9059 21.55 22.8284 21.7577 22.748 21.9639H22.5557C22.5517 22.0218 22.5471 22.08 22.543 22.1396C22.3402 22.7179 21.8052 22.9511 21.3154 23.1924C21.1514 23.2691 20.9872 23.3454 20.8223 23.4199C20.9885 23.6755 21.1548 23.9311 21.3213 24.1865C21.3723 24.2649 21.424 24.3441 21.4766 24.4248C21.759 24.8573 22.0438 25.2876 22.333 25.7148C22.3903 25.7996 22.4478 25.8844 22.5068 25.9717C22.6185 26.1366 22.7303 26.3016 22.8428 26.4658C22.8933 26.5406 22.944 26.6154 22.9961 26.6924C23.0412 26.7584 23.0864 26.8245 23.1328 26.8926C23.2293 27.0598 23.2295 27.0599 23.2295 27.2676H21.207C21.1435 27.1304 21.0801 26.9929 21.0146 26.8516H20.8223C20.5335 26.3957 20.5332 26.3959 20.5332 26.124H20.3408C20.0519 25.668 20.0518 25.6675 20.0518 25.3955H19.8594C19.5706 24.9396 19.5703 24.9399 19.5703 24.668H19.3779C19.089 24.212 19.0889 24.2115 19.0889 23.9395H18.8965C18.8502 23.8717 18.8036 23.8042 18.7559 23.7344C18.3668 23.3998 17.9659 23.4727 17.4834 23.4834C17.3836 23.484 17.2835 23.4847 17.1807 23.4854C16.8617 23.4877 16.5425 23.4928 16.2236 23.498C16.0075 23.5001 15.7913 23.5022 15.5752 23.5039C15.0453 23.5085 14.5152 23.5147 13.9854 23.5234C13.9861 23.688 13.9856 23.6885 13.9863 23.8564C13.9881 24.262 13.9893 24.6676 13.9902 25.0732C13.9907 25.249 13.9914 25.4248 13.9922 25.6006C13.9934 25.8528 13.9937 26.1052 13.9941 26.3574C13.9946 26.4364 13.9956 26.5154 13.9961 26.5967C13.9961 26.7856 13.9913 26.9752 13.9854 27.1641C13.9536 27.1983 13.9213 27.2323 13.8887 27.2676H12.1553V17.0762C13.5654 17.0676 14.9758 17.0586 16.4287 17.0498C16.8722 17.046 17.3156 17.042 17.7725 17.0381C18.3182 17.0362 18.3189 17.0365 18.5752 17.0361C18.7523 17.0355 18.9294 17.0343 19.1064 17.0322ZM18.8477 18.8105C18.715 18.8122 18.5819 18.8139 18.4492 18.8145C18.1003 18.8153 17.7513 18.8169 17.4023 18.8203C17.0412 18.8239 16.6795 18.8265 16.3184 18.8281C15.5407 18.8315 14.763 18.8367 13.9854 18.8438V21.6523C14.7076 21.6566 15.4301 21.6599 16.1523 21.6621C16.5209 21.6632 16.8902 21.6639 17.2588 21.666C17.6195 21.6683 17.9801 21.6701 18.3408 21.6709C18.4782 21.6711 18.6156 21.6715 18.7529 21.6719C18.8866 21.673 19.0206 21.6747 19.1543 21.6758C19.2814 21.6758 19.405 21.6758 19.5283 21.6758C19.8566 21.6772 19.8567 21.6773 20.1484 21.6523C20.5847 21.4967 20.8464 21.3407 21.1113 20.9238C21.178 20.3935 21.2252 19.837 21.0117 19.3418C20.45 18.7917 20.4501 18.7909 18.8477 18.8105Z" fill="#161625"/>
<path d="M40.7554 31.324C41.5615 31.3145 42.3676 31.3069 43.1738 31.3024C43.5481 31.3002 43.9225 31.2973 44.2968 31.2926C44.6583 31.288 45.0198 31.2856 45.3813 31.2845C45.519 31.2837 45.6567 31.2822 45.7944 31.28C45.9877 31.2769 46.1811 31.2768 46.3745 31.2767C46.4844 31.2758 46.5943 31.2749 46.7075 31.2739C47.1674 31.3488 47.4688 31.5886 47.773 31.961C47.9361 32.4112 47.9561 32.8237 47.8813 33.3C47.7149 33.6754 47.4917 33.8831 47.1325 34.0427C46.807 34.1363 46.5359 34.157 46.1995 34.1556C46.0781 34.1555 45.9567 34.1555 45.8316 34.1555C45.7006 34.1545 45.5696 34.1534 45.4385 34.1523C45.3033 34.1519 45.1682 34.1516 45.033 34.1514C44.6787 34.1506 44.3244 34.1485 43.9701 34.1462C43.608 34.1441 43.2458 34.1432 42.8837 34.1421C42.1742 34.1399 41.4648 34.1362 40.7554 34.132C40.7554 33.2053 40.7554 32.2787 40.7554 31.324Z" fill="white"/>
<path d="M37.6743 44.948C37.9921 44.948 38.3099 44.948 38.6373 44.948C38.6373 45.5658 38.6373 46.1835 38.6373 46.82C38.7962 46.6827 38.9551 46.5454 39.1188 46.404C39.5608 46.213 40.0376 46.2454 40.4789 46.417C40.8394 46.6709 41.1502 46.9664 41.2967 47.42C41.4221 48.2093 41.4569 49.0759 41.0654 49.7787C40.844 50.0839 40.5929 50.288 40.2743 50.46C39.8021 50.516 39.3676 50.5483 38.9623 50.252C38.8868 50.1834 38.8113 50.1147 38.7336 50.044C38.7018 50.147 38.67 50.2499 38.6373 50.356C38.3195 50.356 38.0017 50.356 37.6743 50.356C37.6743 48.5714 37.6743 46.7867 37.6743 44.948Z" fill="#161625"/>
<path d="M22.7478 44.948C23.0656 44.948 23.3834 44.948 23.7108 44.948C23.7108 46.7326 23.7108 48.5173 23.7108 50.356C23.4248 50.356 23.1388 50.356 22.8441 50.356C22.8123 50.2187 22.7806 50.0814 22.7478 49.94C22.6555 50.0397 22.6555 50.0397 22.5612 50.1415C22.0925 50.4825 21.6432 50.5012 21.0927 50.408C20.5645 50.1038 20.2336 49.6155 20.0515 49.004C19.9817 48.2849 19.9964 47.6557 20.3404 47.028C20.9098 46.3362 20.9098 46.3362 21.3049 46.2651C21.3759 46.2637 21.4469 46.2624 21.52 46.261C21.5901 46.258 21.6601 46.2551 21.7322 46.2521C21.9774 46.3 21.9774 46.3 22.6515 46.716C22.6833 46.1326 22.7151 45.5491 22.7478 44.948Z" fill="#161625"/>
<path d="M27.852 44.948C28.2651 44.948 28.6782 44.948 29.1038 44.948C29.4773 45.853 29.8054 46.7599 30.1031 47.6969C30.3111 48.351 30.531 48.9989 30.7623 49.6438C30.9335 50.1263 30.9335 50.1263 30.9335 50.356C30.5839 50.356 30.2344 50.356 29.8742 50.356C29.777 50.119 29.6799 49.882 29.5827 49.6451C29.5221 49.4994 29.4589 49.3549 29.3927 49.212C28.7889 49.212 28.1852 49.212 27.5631 49.212C27.436 49.5895 27.3089 49.967 27.1779 50.356C26.8284 50.356 26.4788 50.356 26.1187 50.356C26.2171 49.7267 26.3483 49.2111 26.5938 48.6331C26.7648 48.2113 26.8974 47.776 27.0335 47.34C27.2219 46.7359 27.4228 46.1502 27.6739 45.5728C27.773 45.3348 27.773 45.3348 27.852 44.948Z" fill="#161625"/>
<path d="M34.304 46.6771C34.3358 46.7243 34.3676 46.7715 34.4003 46.8201C34.638 46.7003 34.7901 46.6071 34.9781 46.4041C35.4991 46.269 35.9298 46.2918 36.4226 46.5081C36.7277 46.7616 36.8375 46.9378 36.904 47.3401C36.9119 47.5734 36.9144 47.807 36.9134 48.0405C36.9131 48.1752 36.9128 48.3099 36.9125 48.4487C36.9117 48.5905 36.9109 48.7323 36.91 48.8741C36.9096 49.0175 36.9091 49.1609 36.9087 49.3043C36.9076 49.6549 36.906 50.0055 36.904 50.3561C36.5545 50.3561 36.2049 50.3561 35.8448 50.3561C35.8434 50.269 35.842 50.1818 35.8405 50.0921C35.8346 49.7691 35.8275 49.4463 35.8195 49.1234C35.8147 48.9148 35.8114 48.7061 35.8081 48.4975C35.8047 48.3668 35.8013 48.2361 35.7978 48.1014C35.7952 47.9805 35.7927 47.8596 35.7901 47.735C35.7695 47.591 35.7695 47.591 35.7485 47.4441C35.4764 47.2028 35.4764 47.2028 35.1647 47.2556C34.8532 47.3128 34.8532 47.3128 34.6892 47.6521C34.6537 47.9442 34.6537 47.9442 34.6493 48.2741C34.6456 48.395 34.6419 48.516 34.6381 48.6407C34.6336 48.8302 34.6336 48.8302 34.629 49.0236C34.6253 49.1511 34.6216 49.2787 34.6177 49.4101C34.6087 49.7254 34.6004 50.0407 34.5929 50.3561C34.2751 50.3561 33.9574 50.3561 33.63 50.3561C33.6275 50.2764 33.6251 50.1966 33.6226 50.1145C33.6115 49.753 33.5997 49.3915 33.5878 49.0301C33.584 48.9046 33.5803 48.7791 33.5764 48.6498C33.5723 48.5292 33.5683 48.4085 33.5641 48.2842C33.5606 48.1731 33.5571 48.062 33.5534 47.9475C33.5366 47.6954 33.5036 47.4775 33.4374 47.2361C33.0982 47.2278 32.7999 47.2319 32.4744 47.3401C32.3954 47.7113 32.3677 48.05 32.3721 48.4305C32.3728 48.5362 32.3736 48.642 32.3743 48.751C32.3756 48.8603 32.3768 48.9695 32.3781 49.0821C32.3806 49.3004 32.3826 49.5187 32.3841 49.737C32.3852 49.8333 32.3864 49.9297 32.3875 50.029C32.3781 50.2521 32.3781 50.2521 32.2818 50.3561C31.964 50.3561 31.6463 50.3561 31.3188 50.3561C31.3188 49.0519 31.3188 47.7478 31.3188 46.4041C31.6366 46.4041 31.9544 46.4041 32.2818 46.4041C32.3136 46.5414 32.3454 46.6786 32.3781 46.8201C32.4297 46.7536 32.4814 46.6871 32.5346 46.6186C33.0368 46.1476 33.7991 46.234 34.304 46.6771Z" fill="#161625"/>
<path d="M3.63304 44.9674C3.98814 45.1871 4.25101 45.3844 4.45156 45.7799C4.52378 46.1764 4.52378 46.1764 4.54785 46.5079C4.18911 46.5439 3.84598 46.5647 3.48859 46.5079C3.28396 46.2024 3.28396 46.2024 3.10341 45.8839C2.7297 45.7501 2.38104 45.7116 2.01706 45.8839C1.96245 45.9182 1.90783 45.9525 1.85156 45.9879C1.85156 46.1938 1.85156 46.3997 1.85156 46.6119C2.39949 46.8937 2.9586 47.0573 3.54614 47.2192C4.03691 47.3999 4.36692 47.6055 4.63813 48.0874C4.77634 48.623 4.80257 49.1056 4.54973 49.6072C4.20141 50.0978 3.74877 50.3376 3.1997 50.4599C2.38568 50.5319 1.68834 50.4399 0.996926 49.9529C0.675423 49.6057 0.511467 49.3657 0.485352 48.8674C0.49131 48.7751 0.497268 48.6829 0.503407 48.5879C0.980074 48.5364 0.980074 48.5364 1.46637 48.4839C1.58549 48.6972 1.7046 48.9104 1.82372 49.1237C1.93605 49.3302 1.93605 49.3302 2.14044 49.4199C2.83468 49.4959 2.83468 49.4959 3.46452 49.2379C3.60391 49.0162 3.60391 49.0162 3.57285 48.7829C3.49288 48.5688 3.49288 48.5688 3.296 48.3799C3.12183 48.3121 3.12183 48.3121 2.92172 48.2641C2.84718 48.2436 2.77264 48.2232 2.69584 48.2021C2.54026 48.1608 2.38454 48.1202 2.22865 48.0803C1.58135 47.9007 1.07924 47.6487 0.696 47.0279C0.555176 46.4312 0.605131 45.9939 0.888592 45.4679C1.59532 44.6018 2.69514 44.4902 3.63304 44.9674Z" fill="#161625"/>
<path d="M50.7108 46.3877C51.2649 46.7238 51.6171 47.2191 51.7941 47.877C51.89 48.494 51.7987 49.0684 51.541 49.6279C51.2049 50.0713 50.8116 50.3448 50.2891 50.4599C49.6248 50.5264 49.1096 50.4183 48.5799 49.9594C48.1521 49.5371 48.0398 49.1258 47.9822 48.5022C47.9712 47.9019 48.0849 47.4089 48.4354 46.9369C49.0498 46.2528 49.8676 46.0647 50.7108 46.3877Z" fill="#161625"/>
<path d="M12.4442 46.6121C12.7387 47.0357 12.7724 47.3649 12.7824 47.8881C12.7841 47.9589 12.7858 48.0298 12.7876 48.1027C12.7928 48.3273 12.7961 48.5519 12.7993 48.7766C12.8025 48.9295 12.8058 49.0825 12.8092 49.2354C12.8174 49.609 12.8238 49.9825 12.8294 50.3561C12.6729 50.3617 12.5164 50.3657 12.3599 50.3691C12.2292 50.3727 12.2292 50.3727 12.0959 50.3764C11.8664 50.3561 11.8664 50.3561 11.6738 50.1481C11.6003 50.1996 11.5268 50.251 11.4511 50.3041C10.8936 50.549 10.3092 50.5827 9.74789 50.3301C9.39491 49.9965 9.28045 49.8496 9.21826 49.3291C9.23646 48.8273 9.41264 48.614 9.74789 48.2761C10.1432 48.0626 10.5476 48.0058 10.9817 47.9511C11.0484 47.9421 11.1151 47.9331 11.1839 47.9239C11.3471 47.902 11.5105 47.8809 11.6738 47.8601C11.6473 47.463 11.6473 47.463 11.4812 47.1321C11.0919 47.0891 11.0919 47.0891 10.7109 47.1321C10.6672 47.2179 10.6235 47.3037 10.5784 47.3921C10.5268 47.4779 10.4752 47.5637 10.422 47.6521C10.0979 47.7006 9.78422 47.6817 9.459 47.6521C9.48444 47.2583 9.53395 47.0579 9.75993 46.7421C10.4849 46.1293 11.6481 46.1062 12.4442 46.6121Z" fill="#161625"/>
<path d="M30.7407 31.22C30.7725 31.2887 30.8042 31.3573 30.837 31.428C30.9005 31.428 30.9641 31.428 31.0296 31.428C31.0693 31.515 31.109 31.602 31.15 31.6917C31.5119 32.4795 31.8852 33.2587 32.2728 34.0321C32.5408 34.5807 32.7949 35.1372 33.0518 35.692C31.5582 35.692 30.0647 35.692 28.5259 35.692C29.1748 34.2904 29.1748 34.2904 29.4347 33.7745C29.4907 33.6631 29.5466 33.5517 29.6043 33.4369C29.6902 33.2662 29.6902 33.2662 29.7777 33.092C29.8386 32.9695 29.8994 32.847 29.9602 32.7244C30.0191 32.6055 30.0781 32.4865 30.1388 32.364C30.192 32.2568 30.2451 32.1495 30.2998 32.039C30.4408 31.7616 30.5881 31.4901 30.7407 31.22Z" fill="white"/>
<path d="M30.6444 18.844C30.708 18.844 30.7715 18.844 30.837 18.844C31.2125 19.403 31.493 20.038 31.7729 20.6571C31.904 20.9408 32.0434 21.2183 32.1851 21.496C32.9555 23.0091 32.9555 23.0091 32.9555 23.212C31.4937 23.212 30.032 23.212 28.5259 23.212C28.7153 22.7346 28.899 22.2984 29.1277 21.847C29.1866 21.7304 29.2454 21.6137 29.306 21.4936C29.3965 21.3146 29.3965 21.3146 29.4888 21.132C29.6053 20.8981 29.7217 20.6641 29.8379 20.43C30.1027 19.8988 30.3712 19.3702 30.6444 18.844Z" fill="white"/>
<path d="M18.8967 46.6121C19.3533 47.1148 19.5659 47.5455 19.5768 48.2501C19.5748 48.3616 19.5728 48.4731 19.5707 48.5881C19.311 48.7283 19.1227 48.6937 18.8327 48.6795C18.7247 48.6744 18.6167 48.6694 18.5055 48.6642C18.3922 48.6584 18.279 48.6526 18.1624 48.6466C18.0484 48.6411 17.9345 48.6357 17.8171 48.6301C17.5349 48.6166 17.2528 48.6025 16.9707 48.5881C17.0765 49.1505 17.0765 49.1505 17.4522 49.5241C17.8417 49.5646 17.8417 49.5646 18.2226 49.5241C18.2842 49.4554 18.3457 49.3868 18.4092 49.3161C18.6526 49.0611 18.7355 49.0798 19.0652 49.0821C19.2017 49.0887 19.3382 49.0967 19.4744 49.1081C19.3534 49.7182 19.0747 50.0209 18.6078 50.3561C18.367 50.4471 18.367 50.4471 18.1263 50.4601C18.0171 50.4665 17.9078 50.4729 17.7953 50.4796C17.1082 50.4405 16.6573 50.1714 16.2004 49.6281C15.9019 49.0562 15.8219 48.5786 15.9634 47.9364C16.1314 47.3342 16.3381 46.9031 16.8263 46.5341C17.4924 46.1743 18.2558 46.1875 18.8967 46.6121Z" fill="#161625"/>
<path d="M5.31836 44.948C5.63614 44.948 5.95391 44.948 6.28132 44.948C6.3131 45.5314 6.34488 46.1149 6.37762 46.716C6.60006 46.5787 6.82251 46.4414 7.05169 46.3C7.42342 46.2118 7.74318 46.2621 8.0929 46.43C8.43392 46.7246 8.60828 46.9815 8.68873 47.444C8.69657 47.6697 8.69908 47.8957 8.69813 48.1216C8.69782 48.2517 8.69751 48.3817 8.69719 48.5157C8.69598 48.7188 8.69598 48.7188 8.69475 48.926C8.69431 49.063 8.69388 49.2 8.69343 49.3412C8.6923 49.6795 8.69071 50.0177 8.68873 50.356C8.37095 50.356 8.05317 50.356 7.72577 50.356C7.72436 50.28 7.72296 50.2039 7.72151 50.1256C7.71432 49.7798 7.70502 49.4342 7.69567 49.0885C7.6935 48.9688 7.69133 48.8492 7.68909 48.7259C7.68397 48.5525 7.68397 48.5525 7.67875 48.3755C7.67623 48.2693 7.6737 48.1631 7.67111 48.0537C7.62323 47.7114 7.53533 47.5098 7.34058 47.236C6.94711 47.174 6.8084 47.2032 6.47391 47.444C6.37404 47.7676 6.35833 48.0154 6.34715 48.3552C6.34312 48.4715 6.33908 48.5878 6.33492 48.7076C6.33114 48.829 6.32735 48.9504 6.32345 49.0755C6.31929 49.1981 6.31513 49.3207 6.31085 49.447C6.30063 49.75 6.2908 50.053 6.28132 50.356C5.96354 50.356 5.64577 50.356 5.31836 50.356C5.31836 48.5714 5.31836 46.7867 5.31836 44.948Z" fill="#161625"/>
<path d="M2.81445 3.24405C3.41624 3.22797 3.41624 3.22797 4.03019 3.21155C4.15564 3.20682 4.2811 3.20208 4.41035 3.19721C5.33154 3.18527 5.33154 3.18527 5.67551 3.48008C6.08749 4.01082 6.12657 4.35966 6.11223 5.04415C6.06932 5.55092 5.9181 5.8294 5.57695 6.17108C5.10302 6.50091 4.52301 6.40707 3.98205 6.39005C3.59674 6.38147 3.21143 6.37289 2.81445 6.36405C2.81445 5.33445 2.81445 4.30485 2.81445 3.24405Z" fill="white"/>
<path d="M54.9114 46.2999C55.254 46.4438 55.5631 46.594 55.7781 46.9239C55.8633 47.3614 55.8858 47.7769 55.8838 48.2231C55.8835 48.3478 55.8832 48.4725 55.8828 48.6009C55.8816 48.794 55.8816 48.794 55.8804 48.9909C55.88 49.122 55.8795 49.2531 55.8791 49.3882C55.878 49.7108 55.8764 50.0334 55.8744 50.3559C55.5248 50.3559 55.1753 50.3559 54.8151 50.3559C54.8137 50.2725 54.8123 50.1891 54.8109 50.1031C54.8037 49.7258 54.7944 49.3486 54.785 48.9714C54.7829 48.8401 54.7807 48.7088 54.7784 48.5735C54.7733 48.385 54.7733 48.385 54.7681 48.1926C54.7656 48.0766 54.7631 47.9606 54.7605 47.8411C54.7392 47.5491 54.7392 47.5491 54.5927 47.3508C54.4144 47.2009 54.4144 47.2009 54.0869 47.2489C53.7314 47.3042 53.7314 47.3042 53.5633 47.6519C53.5278 47.944 53.5278 47.944 53.5234 48.2739C53.5178 48.4554 53.5178 48.4554 53.5121 48.6405C53.5076 48.8301 53.5076 48.8301 53.5031 49.0234C53.4975 49.2148 53.4975 49.2148 53.4918 49.41C53.4827 49.7253 53.4745 50.0406 53.467 50.3559C53.1174 50.3559 52.7679 50.3559 52.4077 50.3559C52.4077 49.0518 52.4077 47.7476 52.4077 46.4039C52.7255 46.4039 53.0433 46.4039 53.3707 46.4039C53.3707 46.5412 53.3707 46.6785 53.3707 46.8199C53.464 46.7341 53.5574 46.6483 53.6535 46.5599C54.0662 46.2423 54.418 46.2096 54.9114 46.2999Z" fill="#161625"/>
<path d="M44.1263 45.2601C44.4441 45.2601 44.7619 45.2601 45.0893 45.2601C45.121 45.6033 45.1528 45.9465 45.1856 46.3001C45.408 46.3344 45.6305 46.3687 45.8596 46.4041C45.8279 46.6443 45.7961 46.8846 45.7633 47.1321C45.5409 47.1321 45.3185 47.1321 45.0893 47.1321C45.121 47.8871 45.1528 48.6422 45.1856 49.4201C45.5192 49.4716 45.5192 49.4716 45.8596 49.5241C45.8596 49.7986 45.8596 50.0732 45.8596 50.3561C45.6431 50.3673 45.4264 50.3754 45.2096 50.3821C45.089 50.3869 44.9683 50.3917 44.844 50.3967C44.5115 50.3561 44.5115 50.3561 44.3005 50.1865C44.0744 49.8666 44.0817 49.6845 44.0887 49.2852C44.0899 49.1598 44.0912 49.0345 44.0924 48.9054C44.0957 48.7749 44.0989 48.6445 44.1022 48.5101C44.104 48.378 44.1057 48.246 44.1075 48.1099C44.112 47.7839 44.1184 47.458 44.1263 47.1321C44.033 47.1342 43.9396 47.1364 43.8434 47.1386C43.5485 47.1321 43.5485 47.1321 43.4522 47.0281C43.4483 46.8201 43.4481 46.612 43.4522 46.4041C43.6747 46.4041 43.8971 46.4041 44.1263 46.4041C44.1263 46.0266 44.1263 45.649 44.1263 45.2601Z" fill="#161625"/>
<path d="M15.815 46.3C15.815 46.6432 15.815 46.9864 15.815 47.34C15.4483 47.4061 15.4483 47.4061 15.0815 47.4721C14.8189 47.5304 14.8189 47.5304 14.6595 47.86C14.528 48.3593 14.5307 48.8849 14.509 49.4005C14.5048 49.4924 14.5007 49.5843 14.4964 49.679C14.4862 49.9047 14.4765 50.1304 14.4669 50.356C14.1491 50.356 13.8313 50.356 13.5039 50.356C13.5039 49.0519 13.5039 47.7477 13.5039 46.404C13.8217 46.404 14.1395 46.404 14.4669 46.404C14.4669 46.5756 14.4669 46.7472 14.4669 46.924C14.5304 46.924 14.594 46.924 14.6595 46.924C14.6912 46.8211 14.723 46.7181 14.7558 46.612C15.1538 46.3482 15.334 46.3 15.815 46.3Z" fill="#161625"/>
<path d="M66.9482 17.076C67.0117 17.076 67.0753 17.076 67.1408 17.076C67.1408 20.3708 67.1408 23.6655 67.1408 27.06C67.6492 27.06 68.1577 27.06 68.6815 27.06C68.6815 23.7653 68.6815 20.4706 68.6815 17.076C68.7451 17.076 68.8086 17.076 68.8741 17.076C68.8763 18.3896 68.878 19.7031 68.8791 21.0166C68.8796 21.6264 68.8803 22.2363 68.8814 22.8461C68.8824 23.4342 68.883 24.0222 68.8832 24.6102C68.8834 24.835 68.8838 25.0599 68.8843 25.2848C68.885 25.5986 68.8851 25.9124 68.885 26.2262C68.8854 26.3202 68.8857 26.4141 68.8861 26.5109C68.8851 27.1522 68.8851 27.1522 68.7778 27.268C68.6497 27.2783 68.5211 27.2816 68.3926 27.2819C68.3152 27.282 68.2377 27.2821 68.1579 27.2823C68.0765 27.2819 67.995 27.2815 67.9111 27.281C67.8297 27.2814 67.7483 27.2819 67.6644 27.2823C67.5869 27.2821 67.5095 27.282 67.4297 27.2819C67.3582 27.2817 67.2867 27.2816 67.213 27.2815C67.0445 27.268 67.0445 27.268 66.9482 27.164C66.939 26.8506 66.9361 26.5396 66.9373 26.2262C66.9372 26.1278 66.9372 26.0294 66.9372 25.928C66.9373 25.601 66.938 25.2741 66.9388 24.9471C66.939 24.7211 66.9391 24.4951 66.9392 24.2691C66.9396 23.6729 66.9405 23.0767 66.9416 22.4805C66.9426 21.8726 66.943 21.2648 66.9435 20.6569C66.9445 19.4633 66.9462 18.2697 66.9482 17.076Z" fill="#161625"/>
<path d="M42.0073 46.4041C42.3251 46.4041 42.6429 46.4041 42.9703 46.4041C43.1231 46.734 43.0782 47.0892 43.076 47.4514C43.0759 47.5342 43.0757 47.617 43.0756 47.7023C43.075 47.9672 43.0738 48.2321 43.0726 48.4971C43.0721 48.6765 43.0717 48.8559 43.0713 49.0353C43.0702 49.4756 43.0686 49.9158 43.0666 50.3561C42.717 50.3561 42.3675 50.3561 42.0073 50.3561C42.0073 49.0519 42.0073 47.7477 42.0073 46.4041Z" fill="#161625"/>
<path d="M46.3408 46.4041C46.6586 46.4041 46.9764 46.4041 47.3038 46.4041C47.3038 47.7082 47.3038 49.0124 47.3038 50.3561C46.986 50.3561 46.6682 50.3561 46.3408 50.3561C46.3408 49.0519 46.3408 47.7477 46.3408 46.4041Z" fill="#161625"/>
<path d="M50.1018 47.0735C50.3624 47.1552 50.5323 47.2976 50.689 47.5358C50.8798 48.0553 50.8699 48.7157 50.689 49.2372C50.5773 49.42 50.5773 49.42 50.2884 49.628C50.1018 49.6556 50.1018 49.6556 49.9032 49.654C49.8049 49.6548 49.8049 49.6548 49.7046 49.6556C49.518 49.628 49.518 49.628 49.2292 49.42C48.925 48.9223 48.9696 48.327 49.0366 47.756C49.2314 47.2256 49.5882 47.0231 50.1018 47.0735Z" fill="white"/>
<path d="M22.2672 47.1321C22.5358 47.3542 22.625 47.4328 22.7487 47.7561C22.8171 48.3335 22.8532 48.9128 22.5561 49.4201C22.246 49.6592 21.9665 49.6701 21.5931 49.6281C21.3365 49.4818 21.2312 49.36 21.0876 49.0886C20.954 48.5476 20.9564 48.1278 21.1418 47.6131C21.442 47.1087 21.7368 47.053 22.2672 47.1321Z" fill="white"/>
<path d="M39.7981 47.1676C39.985 47.2359 39.985 47.2359 40.2257 47.4959C40.4586 48.0827 40.451 48.5557 40.2498 49.1534C40.002 49.5453 40.002 49.5453 39.6961 49.6279C39.3591 49.6279 39.3591 49.6279 39.022 49.5239C38.7134 49.182 38.6123 48.8989 38.5947 48.4319C38.6133 48.0062 38.7061 47.7002 38.9257 47.3399C39.2504 47.1061 39.4175 47.101 39.7981 47.1676Z" fill="white"/>
<path d="M11.77 48.484C11.737 49.3332 11.737 49.3332 11.5172 49.6345C11.2016 49.7691 10.9505 49.765 10.6144 49.732C10.5191 49.6634 10.4238 49.5947 10.3256 49.524C10.3075 49.199 10.3075 49.199 10.3256 48.9C10.8133 48.6624 11.2271 48.484 11.77 48.484Z" fill="white"/>
<path d="M28.4298 46.3C28.6224 46.404 28.6224 46.404 28.7466 46.7445C28.7902 46.8864 28.833 47.0286 28.8752 47.171C28.8973 47.2424 28.9194 47.3137 28.9422 47.3872C29.0353 47.6951 29.1039 47.9501 29.1039 48.276C28.6908 48.276 28.2777 48.276 27.8521 48.276C27.935 47.828 28.05 47.4218 28.1951 46.9955C28.2176 46.9285 28.2402 46.8614 28.2634 46.7922C28.3186 46.628 28.3741 46.464 28.4298 46.3Z" fill="white"/>
<path d="M18.3189 47.2361C18.5181 47.4904 18.6077 47.6304 18.6077 47.9641C18.0675 47.9641 17.5273 47.9641 16.9707 47.9641C17.067 47.4441 17.067 47.4441 17.2114 47.2491C17.5853 47.0674 17.9311 47.1037 18.3189 47.2361Z" fill="white"/>
<path d="M42.0073 44.948C42.3569 44.948 42.7064 44.948 43.0666 44.948C43.0348 45.2226 43.003 45.4971 42.9703 45.78C42.6525 45.78 42.3347 45.78 42.0073 45.78C42.0073 45.5054 42.0073 45.2309 42.0073 44.948Z" fill="#161625"/>
<path d="M46.3408 44.948C46.6586 44.948 46.9764 44.948 47.3038 44.948C47.3038 45.2226 47.3038 45.4971 47.3038 45.78C46.986 45.78 46.6682 45.78 46.3408 45.78C46.3408 45.5054 46.3408 45.2309 46.3408 44.948Z" fill="#161625"/>
<path d="M21.1113 26.9561C21.7787 26.9561 22.446 26.9561 23.1336 26.9561C23.1653 27.059 23.1971 27.162 23.2298 27.2681C22.5625 27.2681 21.8952 27.2681 21.2076 27.2681C21.1758 27.1651 21.1441 27.0621 21.1113 26.9561Z" fill="#161625"/>
<path d="M34.9775 26.9561C35.6131 26.9561 36.2486 26.9561 36.9035 26.9561C36.9352 27.059 36.967 27.162 36.9998 27.2681C36.3642 27.2681 35.7287 27.2681 35.0738 27.2681C35.0421 27.1651 35.0103 27.0621 34.9775 26.9561Z" fill="#161625"/>
<path d="M24.5773 26.9561C25.2128 26.9561 25.8484 26.9561 26.5032 26.9561C26.5032 27.059 26.5032 27.162 26.5032 27.2681C25.8358 27.2681 25.1685 27.2681 24.481 27.2681C24.5127 27.1651 24.5445 27.0621 24.5773 26.9561Z" fill="#161625"/>
<path d="M1.948 30.7C2.01156 30.7343 2.07511 30.7686 2.14059 30.804C1.64535 31.4874 1.64535 31.4874 1.27393 31.636C1.42367 31.239 1.66257 30.992 1.948 30.7Z" fill="#161625"/>
</svg>
