<svg width="159" height="41" viewBox="0 0 159 41" fill="none" xmlns="http://www.w3.org/2000/svg">
<g clip-path="url(#clip0_483_12371)">
<path d="M0.799805 20.3862V30.1588H2.74667H4.69354V25.9049V21.6509H9.15987H13.6262V25.9049V30.1588H15.5731H17.5199V20.3862V10.6137H15.5731H13.6262V14.5227V18.4317H9.15987H4.69354V14.5227V10.6137H2.74667H0.799805V20.3862Z" fill="#161625"/>
<path d="M84.7212 11.0046C84.767 11.2345 85.9809 15.5575 87.3781 20.6162C88.7981 25.6749 89.9892 29.8829 90.035 29.9749C90.1037 30.0898 91.1344 30.1588 92.3254 30.1588C94.3639 30.1588 94.5013 30.1358 94.6845 29.63C94.7991 29.354 95.6923 26.3188 96.6543 22.9156C97.6392 19.4895 98.5096 16.6382 98.6012 16.5232C98.6928 16.4313 99.609 19.4435 100.685 23.1916L102.609 30.0439L104.923 30.1128L107.236 30.1818L109.939 20.6852C111.428 15.4655 112.687 11.0506 112.733 10.8896C112.825 10.6827 112.321 10.6137 110.695 10.6137H108.542L106.87 17.6729C105.931 21.582 105.106 24.8242 105.037 24.9391C104.946 25.0311 103.984 21.8809 102.907 17.9259L100.96 10.7287L98.7615 10.6597L96.5856 10.5907L96.2649 11.6944C96.0817 12.2923 95.1655 15.5575 94.2265 18.9376C93.3103 22.3408 92.4857 25.1001 92.417 25.1001C92.3483 25.1001 91.5237 21.8579 90.5847 17.9029L88.8668 10.7287L86.7367 10.6597C84.767 10.5907 84.6066 10.6367 84.7212 11.0046Z" fill="#161625"/>
<path d="M34.0112 13.0512V14.8217L34.8587 14.6838C36.2329 14.4538 37.3094 13.3961 37.7904 11.8095C37.9279 11.3036 37.905 11.3036 35.981 11.3036H34.0112V13.0512Z" fill="#161625"/>
<path d="M128.056 12.1543C127.988 12.6372 127.919 13.396 127.919 13.8559C127.919 14.3157 127.85 15.0286 127.781 15.4195C127.644 16.1093 127.598 16.1323 126.384 16.1323H125.147L125.216 17.6729L125.285 19.2365L126.499 19.3055L127.69 19.3745V22.8696C127.713 27.5145 128.056 28.4802 130.072 29.515C130.713 29.8369 131.606 30.0208 133.233 30.0898L135.477 30.2278V28.6182V27.0086L133.966 26.8706C131.744 26.7097 131.721 26.6407 131.629 22.6857L131.561 19.3515H134.424H137.31V22.3178C137.31 25.6289 137.584 27.4685 138.18 28.3193C138.936 29.377 140.539 29.9748 142.944 30.1128L145.097 30.2278V28.6182V27.0086L143.608 26.8936C142.784 26.8246 141.959 26.6407 141.776 26.4797C141.501 26.2498 141.432 25.514 141.432 22.7776V19.3515H143.379H145.326V17.7419V16.1323H143.379H141.432V13.7179V11.3035H139.623H137.814L137.63 13.6489L137.424 16.0173H134.561H131.698L131.629 13.6489L131.561 11.3035H129.889H128.217L128.056 12.1543Z" fill="#161625"/>
<path d="M23.4753 16.1093C22.4217 16.4312 21.0703 17.236 20.4519 17.9028C19.8793 18.5007 19.1234 19.9723 19.1234 20.5012C19.1234 20.6392 19.8793 20.7311 21.0245 20.7311C22.8797 20.7311 22.9485 20.7081 23.4294 20.0413C24.7808 18.2018 28.2393 18.7766 28.6516 20.8921L28.812 21.6509H26.888C21.3223 21.6739 18.8257 23.0536 18.8257 26.1118C18.8257 28.7791 20.8184 30.3887 24.1624 30.3887C25.926 30.3887 27.0254 30.0208 28.0332 29.124L28.8807 28.3652L29.2471 29.0321C29.7052 29.8139 30.4611 30.1588 31.7437 30.1588H32.637V25.261C32.637 22.5247 32.5225 19.9953 32.385 19.4894C32.0415 18.2248 30.5069 16.7991 28.9952 16.2932C27.7355 15.8793 24.5747 15.7874 23.4753 16.1093ZM28.5142 24.5712C28.5142 25.238 27.6667 26.4567 26.8651 26.9396C25.697 27.6524 23.773 27.4685 23.2004 26.6177C22.8797 26.1578 23.0172 25.169 23.4294 24.8241C24.025 24.2723 24.3456 24.2263 26.5215 24.2033C28.2623 24.1803 28.5142 24.2263 28.5142 24.5712Z" fill="#161625"/>
<path d="M45.4864 16.2243C45.0741 16.3623 44.3412 16.8222 43.8602 17.236C43.0356 17.9259 42.9669 17.9489 42.8295 17.512C42.5547 16.6612 41.5927 16.1323 40.2871 16.1323H39.0503L39.0961 23.0766L39.1648 30.0439L41.1804 30.1128L43.1731 30.1818V26.0199C43.1731 21.421 43.3105 20.7772 44.5244 19.7424C45.1428 19.2136 45.4864 19.1216 46.5858 19.1216C47.6852 19.1216 48.0288 19.2136 48.5327 19.6964C48.8533 19.9954 49.2427 20.5242 49.3572 20.8461C49.4947 21.1911 49.5863 23.4215 49.5863 25.8129V30.1588H51.5331H53.48V25.2381C53.48 21.559 53.3884 20.0873 53.1593 19.3975C52.3348 17.0521 50.5712 15.8794 47.8914 15.9254C46.9981 15.9254 45.9216 16.0633 45.4864 16.2243Z" fill="#161625"/>
<path d="M59.1603 16.2473C57.6944 16.7301 55.7476 18.5467 55.0604 20.0873C54.3275 21.7889 54.3275 24.5022 55.0604 26.1578C55.7018 27.6064 57.1218 29.0551 58.6335 29.7449C60.3055 30.5037 63.6037 30.5037 65.3445 29.7219C66.6729 29.124 68.3907 27.3765 68.7801 26.2498L69.0321 25.5599H66.9936C65.1841 25.5599 64.9093 25.6059 64.7032 26.0198C64.0847 27.1925 61.4049 27.5834 59.962 26.6867C59.1832 26.2038 58.519 25.215 58.519 24.5252C58.519 24.2263 59.1832 24.1803 63.9015 24.1803H69.2611L69.4214 23.3985C69.5818 22.4327 69.2153 20.5702 68.6198 19.3975C68.0472 18.3167 66.9249 17.236 65.6193 16.5692C64.2909 15.9023 60.8094 15.7184 59.1603 16.2473ZM63.7183 19.3285C64.5886 19.7424 65.3903 20.7311 65.3903 21.421C65.3903 21.5589 64.1993 21.6509 61.9317 21.6509H58.4961L58.6335 21.122C59.2061 19.2825 61.6569 18.4087 63.7183 19.3285Z" fill="#161625"/>
<path d="M73.521 16.1784C71.0244 17.0522 69.696 19.5355 70.658 21.513C71.2764 22.8007 72.559 23.5135 75.674 24.2724C78.9035 25.0772 79.499 25.675 78.3309 26.8247C77.2773 27.9055 74.4143 27.3766 73.9791 26.0429C73.8417 25.606 73.6584 25.56 71.7803 25.56C69.5128 25.56 69.4899 25.583 70.177 27.0547C71.0932 29.0552 73.1087 30.1819 76.0634 30.3428C80.3465 30.5728 83.095 28.5493 82.7285 25.3991C82.4995 23.3526 81.6062 22.6858 77.6667 21.651C74.9869 20.9612 74.0936 20.5243 74.0936 19.9034C74.0936 19.3746 75.1701 18.8457 76.2466 18.8457C77.4376 18.8457 78.1248 19.1676 78.3309 19.8115C78.4683 20.2254 78.6745 20.2714 80.4152 20.2714C82.3392 20.2714 82.3621 20.2714 82.2246 19.7425C81.6749 17.9259 80.6671 16.8452 78.9722 16.2244C77.9415 15.8565 74.5059 15.8335 73.521 16.1784Z" fill="#161625"/>
<path d="M114.726 16.3623C113.375 16.8912 111.978 18.1789 111.519 19.2596C110.924 20.6622 110.993 20.7312 113.1 20.7312C114.886 20.7312 115.047 20.6852 115.253 20.2024C115.551 19.5355 116.833 18.8917 117.841 18.8917C118.734 18.8917 120.086 19.4895 120.338 20.0184C120.452 20.2253 120.59 20.6622 120.681 21.0072L120.819 21.651H118.94C114.841 21.674 112.55 22.3638 111.497 23.9274C110.351 25.652 110.535 27.5145 111.978 28.9172C114.085 30.9407 118.276 30.8947 120.429 28.8482C120.864 28.4113 121.048 28.3423 121.048 28.5723C121.048 29.3081 122.147 29.9979 123.475 30.1129L124.735 30.2279L124.666 24.9622C124.598 19.2366 124.552 19.0067 123.201 17.65C121.941 16.3853 120.933 16.0404 118.299 15.9714C116.306 15.9024 115.688 15.9714 114.726 16.3623ZM120.475 24.6862C119.948 26.3648 118.757 27.3996 117.291 27.3996C115.459 27.3996 114.451 26.3418 115.184 25.2151C115.734 24.3873 116.284 24.2034 118.597 24.2034C120.59 24.1804 120.612 24.1804 120.475 24.6862Z" fill="#161625"/>
<path d="M149.334 16.2473C147.41 16.9832 146.013 19.1446 146.38 20.8002C146.746 22.5478 148.006 23.3526 151.762 24.2953C153.411 24.6862 154.259 25.0312 154.557 25.3531C155.061 25.9969 155.061 26.1579 154.373 26.8247C153.938 27.2846 153.595 27.3996 152.724 27.3996C151.487 27.3996 150.159 26.7327 149.976 25.9969C149.861 25.606 149.632 25.56 147.823 25.56C145.555 25.56 145.532 25.583 146.219 27.0546C147.113 29.0092 149.151 30.1819 152.014 30.3428C154.167 30.4808 155.793 30.0899 157.03 29.1931C159.367 27.5145 159.389 24.0884 157.099 22.7547C156.733 22.5478 155.198 22.0419 153.709 21.651C150.296 20.7772 149.541 20.2024 150.571 19.2596C150.846 19.0067 151.396 18.8687 152.152 18.8457C153.457 18.8457 154.167 19.1446 154.373 19.8115C154.511 20.2253 154.717 20.2713 156.435 20.2713H158.359L158.153 19.5585C157.786 18.2938 157.122 17.42 156 16.7072C154.969 16.0864 154.694 16.0174 152.564 15.9714C150.938 15.9254 149.976 16.0174 149.334 16.2473Z" fill="#161625"/>
<path d="M34.0112 23.1456V30.1588H35.9581H37.905V23.1456V16.1323H35.9581H34.0112V23.1456Z" fill="#161625"/>
</g>
<defs>
<clipPath id="clip0_483_12371">
<rect width="158" height="40" fill="white" transform="translate(0.799805 0.5)"/>
</clipPath>
</defs>
</svg>
