<svg width="126" height="52" viewBox="0 0 126 52" fill="none" xmlns="http://www.w3.org/2000/svg">
<path d="M105.108 2.30826C104.137 3.29372 103.336 4.1471 103.336 4.18774C103.336 4.22838 107.46 4.25886 112.494 4.25886H121.653V12.4879V20.717H114.296H106.939V15.4849V10.2529H105.138H103.336V17.3136V24.3744H112.524H121.703L123.534 22.5152L125.356 20.6662V10.578V0.499893H116.118H106.889L105.108 2.30826Z" fill="#161625"/>
<path d="M100.303 7.28634L98.4316 9.18614L98.4517 19.2439L98.4817 29.3017L107.64 29.3322L116.798 29.3525L118.65 27.473L120.502 25.5935H111.313H102.135V17.3644V9.13534H109.492H116.848V14.3166V19.4979H118.7H120.552V12.4371V5.37638H111.363H102.185L100.303 7.28634Z" fill="#161625"/>
<path d="M11.653 21.7634C9.40095 22.4644 7.92962 23.8867 7.18895 26.0507C6.93872 26.772 6.90869 27.0056 6.90869 28.1841C6.89868 29.6776 7.03881 30.277 7.60933 31.3843C8.50014 33.1114 10.1216 34.361 12.0133 34.7877C13.0543 35.0315 14.8359 34.9503 15.7567 34.6353C17.7385 33.9648 19.35 32.3291 19.9705 30.3684C20.2708 29.4236 20.3409 27.6965 20.1107 26.6704C19.6302 24.4353 18.0388 22.6574 15.8368 21.8548C15.2162 21.6313 14.9059 21.5907 13.7549 21.5602C12.5738 21.5297 12.3136 21.5602 11.653 21.7634ZM15.2963 22.9927C17.0379 23.6327 18.1889 24.862 18.7194 26.6602C18.8395 27.0768 18.8996 27.5847 18.8896 28.2857C18.8795 29.9519 18.3391 31.2218 17.148 32.3393C14.2353 35.0823 9.40095 33.6194 8.41005 29.6979C8.20987 28.9054 8.19986 27.5339 8.40005 26.772C9.19076 23.7038 12.4237 21.926 15.2963 22.9927Z" fill="#161625"/>
<path d="M49.227 21.6212C48.2462 21.8752 47.3954 22.5559 46.975 23.4194C46.7748 23.836 46.7348 24.0696 46.7348 24.8316C46.7348 25.624 46.7748 25.817 47.005 26.2539C47.5155 27.2393 48.3863 27.8997 50.0078 28.5499C51.1288 29.0071 51.389 29.1493 51.8694 29.5963C53.1506 30.7951 52.7903 32.8067 51.1688 33.5178C50.5482 33.782 49.3472 33.8124 48.4564 33.5686C47.8858 33.4162 47.0251 33.0099 46.3945 32.5933C46.0842 32.38 46.0642 32.38 46.1142 32.5628C46.1443 32.6644 46.2243 33.0302 46.2944 33.3553C46.4145 33.8937 46.4645 33.9852 46.8549 34.229C47.0951 34.3915 47.6556 34.615 48.106 34.7369C48.7967 34.9198 49.1169 34.9503 50.0778 34.9198C51.4791 34.869 52.1397 34.6455 52.8804 33.9648C53.621 33.2943 53.9213 32.5832 53.9713 31.4453C54.0214 30.1957 53.7812 29.5354 52.9905 28.7328C52.44 28.1638 51.9996 27.92 49.7175 26.8634C48.1461 26.132 47.5655 24.73 48.3763 23.5921C48.8367 22.9521 49.4472 22.6981 50.5382 22.6981C51.2989 22.6981 51.5391 22.7489 52.0896 22.9826C52.45 23.135 52.7803 23.2772 52.8303 23.2874C52.9805 23.3178 53.2006 22.3222 53.0805 22.1698C52.8103 21.8447 51.8494 21.6009 50.6884 21.5704C50.0578 21.5501 49.3972 21.5704 49.227 21.6212Z" fill="#161625"/>
<path d="M68.8945 21.6822C66.4623 22.2816 64.5906 24.1814 64.0301 26.6095C63.8399 27.4628 63.8399 29.0172 64.0401 29.8909C64.5405 32.0752 66.132 33.8226 68.324 34.6049C69.3049 34.9605 71.0264 35.0417 72.1474 34.7877C73.3886 34.5134 74.4295 33.9242 75.3603 32.9692C76.7116 31.5875 77.2621 30.216 77.2521 28.2349C77.2421 26.1929 76.7216 24.8925 75.3603 23.5108C73.9991 22.119 72.5278 21.5196 70.516 21.5399C69.9354 21.5399 69.2048 21.611 68.8945 21.6822ZM71.627 22.7997C74.1492 23.3381 75.9108 25.563 75.9108 28.1842C75.9108 29.7182 75.3503 31.1304 74.3594 32.1361C73.3085 33.2029 72.0273 33.7413 70.556 33.7413C69.0346 33.7413 67.8235 33.213 66.7525 32.0955C64.2102 29.4134 64.9409 24.8722 68.1738 23.2569C69.3049 22.6879 70.4359 22.5355 71.627 22.7997Z" fill="#161625"/>
<path d="M1.24336 22.312L0.732902 22.9013L2.29432 22.9318L3.85573 22.9622L3.82571 28.1638C3.79568 33.3451 3.79568 33.3654 3.56547 33.9547C3.10505 35.1128 2.2743 35.8951 1.16329 36.2202L0.612793 36.3827L1.07321 36.8501L1.52362 37.3073L1.99404 37.1752C3.34527 36.7891 4.50632 35.5294 4.98676 33.9343C5.16692 33.3045 5.18694 32.9184 5.22697 27.4933L5.257 21.7329H3.51542H1.76384L1.24336 22.312Z" fill="#161625"/>
<path d="M33.5728 28.235V34.737H34.2734H34.974V29.3525V23.9579L36.095 25.3091C39.4981 29.4033 44.4226 35.0417 44.5927 35.0417C44.7729 35.0417 44.7829 34.8284 44.7829 28.367V21.6923L44.1323 22.3425L43.4817 22.9927L43.4617 27.5543L43.4317 32.1057L42.621 31.1101C42.1705 30.5615 40.1988 28.235 38.227 25.9491L34.6437 21.7838L34.1132 21.7533L33.5728 21.7228V28.235Z" fill="#161625"/>
<path d="M54.8921 22.2917L54.3516 22.8505H56.5235H58.6955V28.7937V34.7369H59.3961H60.0968V28.7937V22.8505H61.7783H63.4598L64.0003 22.2917L64.5408 21.733H59.9867H55.4325L54.8921 22.2917Z" fill="#161625"/>
<path d="M78.8135 28.2248V34.737H79.5241H80.2348L80.1947 29.3423L80.1647 23.9477L80.5751 24.4455C81.6761 25.7663 84.5387 29.129 86.9208 31.9228C88.8926 34.229 89.6333 35.0316 89.8034 35.0316L90.0236 35.0417V28.367V21.6923L89.323 22.3933L88.6124 23.1045L88.6424 27.6051C88.6624 30.0738 88.6624 32.0955 88.6624 32.0955C88.6524 32.0955 88.1019 31.4453 87.4413 30.6427C86.7807 29.8503 84.7989 27.534 83.0473 25.4919L79.8544 21.7838L79.3339 21.7533L78.8135 21.7228V28.2248Z" fill="#161625"/>
<path d="M22.4929 22.4644L21.8623 23.1146V28.9258V34.7369H22.5129H23.1635L23.1835 31.7602L23.2135 28.7937H26.8668H30.5202L30.5502 31.7602L30.5702 34.7369H31.2208H31.8714V28.2654V21.7939L31.2208 22.4441L30.5702 23.0943V25.3598V27.6254H26.8668H23.1635L23.1435 24.73L23.1134 21.8244L22.4929 22.4644Z" fill="#161625"/>
<path d="M6.46787 38.0896C3.11483 38.7093 0.842773 41.3913 0.842773 44.7439C0.842773 47.7714 2.60437 50.1792 5.52702 51.1748C6.20764 51.4085 6.46787 51.439 7.74903 51.439C9.21036 51.4491 9.88096 51.3475 10.6817 51.0021L11.062 50.8396L10.6316 50.4129L10.1912 49.976L9.50062 50.1284C8.5998 50.3214 7.16851 50.3214 6.35777 50.1284C4.46606 49.6712 2.95469 48.2184 2.40419 46.3288C2.20401 45.6176 2.194 44.0125 2.39418 43.2403C3.00473 40.8427 5.18671 39.2071 7.75904 39.2071C8.51973 39.2071 9.62073 39.39 10.1912 39.6135C10.4615 39.7151 10.5215 39.6947 10.9219 39.2884L11.3523 38.8617L10.992 38.6686C10.0411 38.1708 7.67897 37.8762 6.46787 38.0896Z" fill="#161625"/>
<path d="M14.4754 44.561C13.0341 48.1879 11.853 51.1748 11.853 51.2154C11.853 51.2662 12.1333 51.2967 12.4836 51.2967H13.1142L13.8248 49.4883L14.5355 47.6901L17.2779 47.6596L20.0204 47.6393L20.691 49.3461C21.0714 50.2808 21.4117 51.1037 21.4517 51.1748C21.5018 51.2662 21.732 51.2967 22.1824 51.2764L22.823 51.2459L21.0414 46.7758C17.318 37.419 17.5582 37.9879 17.318 37.9879C17.1178 37.9879 16.8175 38.6991 14.4754 44.561ZM17.5082 41.0561C17.6082 41.3507 18.0787 42.6511 18.5691 43.9413C19.0596 45.2316 19.4599 46.3389 19.4599 46.3999C19.4599 46.4913 18.8894 46.5218 17.2579 46.5218C16.0468 46.5218 15.0559 46.5015 15.0559 46.471C15.0559 46.4507 15.4763 45.3433 15.9968 44.0124C16.5072 42.6816 17.0077 41.3507 17.0978 41.0561C17.1979 40.7716 17.288 40.5278 17.308 40.5278C17.328 40.5278 17.4181 40.7716 17.5082 41.0561Z" fill="#161625"/>
<path d="M58.9056 38.0997C57.4243 38.3638 56.1932 39.014 55.1422 40.0706C53.9211 41.2999 53.2905 42.8949 53.2905 44.7439C53.2905 47.8222 55.1022 50.2605 58.0949 51.2154C58.7355 51.4186 59.0457 51.4491 60.2969 51.4491C61.508 51.4389 61.8583 51.4085 62.4488 51.2154C63.5098 50.8802 63.5198 50.87 63.0494 50.3824L62.649 49.976L61.9484 50.1284C61.0476 50.3214 59.6163 50.3214 58.8055 50.1284C57.3242 49.7728 55.9529 48.7061 55.2823 47.3854C54.8119 46.4812 54.6518 45.77 54.6618 44.6931C54.6718 42.0923 56.2932 40.0198 58.8456 39.3595C59.8965 39.0852 61.5981 39.2071 62.629 39.6338C62.8892 39.7354 62.9393 39.715 63.3597 39.2985L63.8001 38.8616L63.4397 38.6686C62.4889 38.1708 60.1267 37.8762 58.9056 38.0997Z" fill="#161625"/>
<path d="M78.5335 44.5712C77.0922 48.1981 75.9111 51.1951 75.9111 51.2256C75.9111 51.2662 76.2014 51.2967 76.5517 51.2967H77.1923L77.9129 49.468L78.6336 47.6393H81.3561H84.0785L84.8092 49.468L85.5499 51.2967H86.2305H86.9211L86.7309 50.8192C82.5872 40.3551 81.6263 38.0387 81.3961 38.0082C81.1759 37.9778 81.0158 38.3638 78.5335 44.5712ZM81.5763 41.0561C81.6663 41.3507 82.1468 42.6409 82.6272 43.9312C83.1177 45.2112 83.518 46.3186 83.518 46.3897C83.518 46.4913 83.0476 46.5218 81.306 46.5218C79.5745 46.5218 79.104 46.4913 79.1441 46.3897C79.1641 46.3288 79.5945 45.2112 80.0849 43.9312C80.5854 42.6409 81.0658 41.3507 81.1559 41.0561C81.256 40.7716 81.3461 40.5278 81.3661 40.5278C81.3861 40.5278 81.4762 40.7716 81.5763 41.0561Z" fill="#161625"/>
<path d="M23.8337 38.2622C23.7937 38.2927 23.7637 41.2491 23.7637 44.815V51.2967H24.4643H25.1649V48.2997V45.3027H26.2559H27.3469L29.4889 48.2997L31.6208 51.2865L32.4115 51.2967H33.1922L33.0221 51.0325C32.932 50.8903 32.0111 49.6102 30.9702 48.1981C29.9293 46.7859 29.0084 45.5059 28.9183 45.3636L28.7482 45.1096L29.2587 44.8963C29.8392 44.6423 30.7 43.7686 30.9402 43.1997C31.3105 42.2853 31.2705 41.0154 30.8301 40.1316C30.3496 39.1867 29.2687 38.4654 28.0375 38.2825C27.3169 38.181 23.9338 38.1606 23.8337 38.2622ZM28.1076 39.5525C29.4088 39.9487 30.0994 41.117 29.7791 42.3565C29.619 42.9863 29.2086 43.474 28.568 43.7991C28.0576 44.0734 27.9675 44.0835 26.5962 44.0835H25.1649V41.7469V39.4102H26.3961C27.1768 39.4102 27.8073 39.461 28.1076 39.5525Z" fill="#161625"/>
<path d="M35.2343 38.6178C35.1542 39.2172 34.2734 50.5856 34.2734 50.9818V51.2967H34.874C35.3344 51.2967 35.4745 51.2662 35.4745 51.1443C35.4745 50.9818 36.025 43.6569 36.1551 42.1533C36.2252 41.3304 36.2552 41.2288 36.3453 41.4421C36.5055 41.8079 38.6774 46.3999 39.9686 49.082C40.9495 51.1342 41.0996 51.3983 41.3098 51.3983C41.53 51.3983 41.7602 50.9513 43.712 46.8469C44.9031 44.3477 45.9841 42.0517 46.1142 41.7469C46.3344 41.2491 46.3744 41.2186 46.4144 41.4421C46.4445 41.5844 46.4945 42.2244 46.5346 42.8645C46.5946 44.1852 47.055 50.1995 47.1451 50.8599L47.1951 51.2967H47.8557H48.5063L48.4463 50.8091C48.4163 50.5449 48.186 47.7511 47.9358 44.5915C47.6856 41.432 47.4554 38.6991 47.4254 38.5162C47.3753 38.1911 47.3553 38.181 46.9549 38.2115L46.5446 38.2419L44.5327 42.4174C43.4317 44.7033 42.2807 47.1314 41.9904 47.8019C41.6902 48.4623 41.4199 49.0413 41.3899 49.082C41.3499 49.1328 41.1497 48.767 40.9295 48.2692C40.7193 47.7816 39.5382 45.3129 38.3171 42.7832L36.0951 38.1911H35.6847C35.2944 38.1911 35.2844 38.1911 35.2343 38.6178Z" fill="#161625"/>
<path d="M88.1221 44.7439V51.2967H91.8254H95.5288V50.6871V50.0776H92.476H89.4232V47.6901V45.3027H91.6252H93.8272V44.6931V44.0835H91.6252H89.4232V41.7469V39.4102H91.8555H94.2877L94.5879 39.075C94.7481 38.9023 94.9883 38.628 95.1184 38.4654L95.3586 38.1911H91.7454H88.1221V44.7439Z" fill="#161625"/>
<path d="M50.8581 38.9835L50.1875 39.6744V45.4855V51.2967H50.8881H51.5888V44.7947C51.5888 41.2186 51.5788 38.2927 51.5587 38.2927C51.5487 38.2927 51.2284 38.5975 50.8581 38.9835Z" fill="#161625"/>
<path d="M65.4814 38.9734L64.8008 39.6744V45.4855V51.2967H65.5014H66.2021V48.2997V45.3027H69.8554H73.5087V48.2997V51.2967H74.2093H74.9099V44.8252V38.3537L74.2093 39.0547L73.5087 39.7557V41.9196V44.0835H69.8554H66.2021L66.182 41.1881L66.152 38.2825L65.4814 38.9734Z" fill="#161625"/>
<path d="M97.3105 38.9734L96.6299 39.6744V45.4855V51.2967H100.333H104.037V50.6871V50.0776H101.034H98.0312L98.0111 44.1851L97.9811 38.2825L97.3105 38.9734Z" fill="#161625"/>
</svg>
