<svg width="140" height="37" viewBox="0 0 140 37" fill="none" xmlns="http://www.w3.org/2000/svg">
<g clip-path="url(#clip0_483_12342)">
<path d="M4.75517 32.2779C5.03905 32.103 5.27338 31.8553 5.43496 31.5592C5.59655 31.2631 5.67978 30.929 5.67644 30.5899C5.67644 29.2271 4.68879 28.3481 3.16207 28.3481H0V36.4362H3.26063C4.82557 36.4362 5.79713 35.5469 5.79713 34.1162C5.80573 33.7413 5.71298 33.3713 5.52912 33.0469C5.34526 32.7225 5.07743 32.4564 4.75517 32.2779ZM4.59828 34.0936C4.59828 34.8573 4.05718 35.3287 3.19023 35.3287H1.20086V32.8584H3.18218C4.06925 32.8646 4.59626 33.3257 4.59626 34.0936H4.59828ZM1.20086 31.7633V29.4474H3.09368C3.50805 29.4474 4.47557 29.5586 4.47557 30.6002C4.47557 31.6418 3.51006 31.7633 3.09368 31.7633H1.20086Z" fill="#161625"/>
<path d="M15.3254 30.6764C15.3254 29.2827 14.3196 28.3461 12.799 28.3461H9.58057V36.4341H10.7875V33.0066H12.4067L14.2171 36.4341H15.613L13.7001 32.8687C14.1745 32.7474 14.5943 32.464 14.8898 32.0653C15.1854 31.6666 15.3391 31.1766 15.3254 30.6764ZM14.1185 30.6866C14.1185 31.7941 13.1369 31.9218 12.7105 31.9218H10.7834V29.4515H12.7205C13.1429 29.4474 14.1245 29.5689 14.1245 30.6887L14.1185 30.6866Z" fill="#161625"/>
<path d="M20.2336 28.3461H19.0327V36.4341H20.2336V28.3461Z" fill="#161625"/>
<path d="M26.9683 29.3836C27.3809 29.3674 27.7854 29.5043 28.1073 29.7691C28.4292 30.0339 28.6469 30.4087 28.7203 30.8246L28.7525 30.9646H29.9594L29.9232 30.7587C29.6657 29.2642 28.5151 28.2884 26.9763 28.2884C26.1789 28.2741 25.4077 28.58 24.828 29.1407C24.0234 29.9209 24.0234 30.7484 24.0234 32.3973C24.0234 34.0462 24.0234 34.8676 24.828 35.654C25.4314 36.2187 26.2238 36.5243 27.0413 36.5074C27.8587 36.4906 28.6385 36.1525 29.2191 35.5634C29.73 35.0302 29.9493 34.3962 29.9493 33.439V32.0309H26.7913V33.1219H28.7384V33.5336C28.7384 34.108 28.6217 34.4785 28.3361 34.8141C27.9999 35.1771 27.5386 35.3917 27.0503 35.412C26.5619 35.4324 26.0851 35.257 25.7211 34.9232C25.2766 34.4806 25.2183 34.0174 25.2183 32.4076C25.2183 30.7978 25.2766 30.3491 25.7211 29.9003C26.0548 29.5677 26.5025 29.3822 26.9683 29.3836Z" fill="#161625"/>
<path d="M38.311 31.8065H34.9035V28.3461H33.7026V36.4341H34.9035V32.9078H38.311V36.4341H39.5118V28.3461H38.311V31.8065Z" fill="#161625"/>
<path d="M42.7847 29.4474H45.0778V36.4341H46.2786V29.4474H48.5717V28.3461H42.7847V29.4474Z" fill="#161625"/>
<path d="M51.8442 36.4341H57.1184V35.3328H53.0451V32.9078H56.519V31.8065H53.0451V29.4474H57.1184V28.3461H51.8442V36.4341Z" fill="#161625"/>
<path d="M66.4133 30.6764C66.4133 29.2827 65.4075 28.3461 63.8868 28.3461H60.6685V36.4341H61.8754V33.0066H63.4946L65.305 36.4341H66.7009L64.788 32.8687C65.2624 32.7474 65.6822 32.464 65.9777 32.0653C66.2733 31.6666 66.427 31.1766 66.4133 30.6764ZM61.8713 29.4412H63.8084C64.2308 29.4412 65.2164 29.5627 65.2164 30.6764C65.2164 31.79 64.2348 31.9115 63.8084 31.9115H61.8713V29.4412Z" fill="#161625"/>
<path d="M74.2261 29.4474H76.5192V36.4341H77.7221V29.4474H80.0131V28.3461H74.2261V29.4474Z" fill="#161625"/>
<path d="M87.8944 31.8065H84.4889V28.3461H83.2881V36.4341H84.4889V32.9078H87.8944V36.4341H89.0973V28.3461H87.8944V31.8065Z" fill="#161625"/>
<path d="M94.3835 28.3461H93.1826V36.4341H94.3835V28.3461Z" fill="#161625"/>
<path d="M103.477 34.1224L99.5932 28.4243L99.5409 28.3461H98.4688V36.4341H99.6696V30.6372L103.608 36.4341H104.678V28.3461H103.477V34.1224Z" fill="#161625"/>
<path d="M114.905 28.3461H113.4L109.965 32.4714V28.3461H108.764V36.4341H109.965V34.1615L111.431 32.4467L113.772 36.4341H115.192L112.244 31.5286L114.905 28.3461Z" fill="#161625"/>
<path d="M119.348 28.3461H118.147V36.4341H119.348V28.3461Z" fill="#161625"/>
<path d="M128.442 34.1224L124.558 28.4243L124.505 28.3461H123.433V36.4341H124.634V30.6372L128.572 36.4341H129.643V28.3461H128.442V34.1224Z" fill="#161625"/>
<path d="M136.2 33.1157H138.148V33.5274C138.148 34.1018 138.031 34.4723 137.745 34.8078C137.409 35.1709 136.948 35.3855 136.459 35.4058C135.971 35.4262 135.494 35.2508 135.13 34.917C134.686 34.4744 134.627 34.0112 134.627 32.4014C134.627 30.7916 134.686 30.3428 135.13 29.8941C135.466 29.568 135.913 29.3886 136.375 29.3939C136.788 29.3777 137.193 29.5146 137.515 29.7794C137.836 30.0441 138.054 30.4189 138.127 30.8348L138.16 30.9748H139.367L139.33 30.769C139.073 29.2745 137.922 28.2987 136.384 28.2987C135.586 28.2843 134.815 28.5903 134.235 29.1509C133.431 29.9311 133.431 30.7587 133.431 32.4076C133.431 34.0565 133.431 34.8778 134.235 35.6642C134.839 36.229 135.631 36.5345 136.449 36.5177C137.266 36.5008 138.046 36.1628 138.626 35.5736C139.137 35.0405 139.357 34.4064 139.357 33.4513V32.0432H136.2V33.1157Z" fill="#161625"/>
<path d="M109.876 1.77631H120.77V4.21981H112.557V10.0682H119.246V12.5261H112.557V18.4835H120.754V20.927H109.876V1.77631Z" fill="#161625"/>
<path d="M28.0322 1.77631H38.9265V4.21981H30.7156V10.0682H37.4018V12.5261H30.7156V18.4835H38.9104V20.927H28.0322V1.77631Z" fill="#161625"/>
<path d="M48.4229 20.8961H50.9131V7.4723L63.3823 22.1292V1.77628H60.868V15.268L48.4229 0.557617V20.8961Z" fill="#161625"/>
<path d="M100.694 1.77631H98.0103V20.8715H100.694V1.77631Z" fill="#161625"/>
<path d="M135.01 12.9193L132.97 11.6512C131.689 10.8525 130.781 10.0668 130.244 9.29414C129.703 8.51326 129.421 7.57521 129.44 6.61802C129.44 5.10841 129.951 3.8822 130.975 2.93939C131.998 1.99657 133.325 1.5279 134.957 1.53339C136.493 1.52434 137.996 1.99469 139.264 2.88175V5.99428C137.912 4.6672 136.459 4.00366 134.903 4.00366C134.137 3.96914 133.38 4.18548 132.743 4.62122C132.483 4.79292 132.269 5.02886 132.121 5.30731C131.974 5.58575 131.897 5.89775 131.898 6.21454C131.906 6.81202 132.127 7.38588 132.519 7.82845C132.934 8.32937 133.604 8.85567 134.531 9.40736L136.581 10.6425C138.86 12.0396 140 13.8182 140 15.9783C140 17.5153 139.497 18.7642 138.492 19.7248C137.486 20.6855 136.178 21.1658 134.567 21.1658C132.739 21.173 130.96 20.5582 129.51 19.4181V15.9433C130.959 17.822 132.635 18.7614 134.539 18.7614C135.301 18.789 136.047 18.5338 136.639 18.043C136.904 17.8292 137.118 17.5557 137.264 17.2437C137.409 16.9316 137.482 16.5895 137.478 16.2438C137.478 15.0773 136.655 13.9698 135.01 12.9213" fill="#161625"/>
<path d="M17.5847 0.5L15.0844 3.1473L8.91518 10.0393L2.70972 3.1473L0.177246 0.5V20.9023H2.85052V6.87123L8.65972 13.3577L8.88098 13.6192L9.15454 13.3577L14.8974 6.87123V20.9023H17.5847V0.5Z" fill="#161625"/>
<path d="M72.7136 1.77631H89.061L76.6401 18.4712H87.7717V20.9064H71.5107L83.9478 4.20952H72.7136V1.77631Z" fill="#161625"/>
</g>
<defs>
<clipPath id="clip0_483_12342">
<rect width="140" height="36" fill="white" transform="translate(0 0.5)"/>
</clipPath>
</defs>
</svg>
