<svg width="167" height="37" viewBox="0 0 167 37" fill="none" xmlns="http://www.w3.org/2000/svg">
<g clip-path="url(#clip0_483_12465)">
<path d="M92.8809 7.17318V13.3195H93.9323H94.9663L95.0189 11.1771L95.0714 9.01708L96.526 11.1771L97.9805 13.3195H99.2774H100.574L98.8393 11.0542C97.8754 9.80732 97.0868 8.71854 97.0868 8.63074C97.0868 8.54293 97.7527 7.71757 98.5764 6.8044L100.066 5.15366L98.9795 5.10098C97.7527 5.0483 98.0331 4.83757 95.9126 7.27854L95.0013 8.31464L94.9838 4.66196V1.02683H93.9323H92.8809V7.17318Z" fill="#161625"/>
<path d="M2.5411 2.29123C2.50605 2.51952 2.06793 5.03074 1.57724 7.87562C1.08655 10.7205 0.525755 13.9342 0.332984 15.0229C-0.0525594 17.2707 -0.0700841 18.0259 0.192786 19.3254C0.788626 22.2229 3.10189 24.6815 5.92336 25.4366C6.92227 25.7 9.32315 25.7 10.4272 25.4366C12.7405 24.8746 15.2114 23.2239 16.6835 21.2395C18.1556 19.2903 18.4009 18.4122 19.873 9.89513C20.6091 5.64538 21.2049 2.11562 21.2049 2.02782C21.2049 1.95757 20.3111 1.90489 19.2071 1.90489C17.2794 1.90489 17.2093 1.92245 17.1216 2.29123C17.0691 2.51952 16.5784 5.25904 16.0351 8.40245C14.5806 16.8668 14.5806 16.8317 14.0723 17.8327C13.5116 18.9742 12.1271 20.3088 10.8478 20.9761C10.0066 21.4327 9.72622 21.4854 8.20157 21.4854C6.60682 21.4854 6.48415 21.4503 5.74811 20.9585C4.60901 20.1507 4.11832 19.1322 4.13584 17.622C4.13584 16.9195 4.67911 13.3546 5.39762 9.31562C6.09861 5.43464 6.6594 2.1683 6.6594 2.0805C6.6594 1.97513 5.83574 1.90489 4.64406 1.90489C2.69882 1.90489 2.62872 1.92245 2.5411 2.29123Z" fill="#161625"/>
<path d="M22.3614 4.74977C20.9419 13.021 18.8915 24.6815 18.8214 24.9449C18.7338 25.2259 18.909 25.261 20.8192 25.261H22.8871L23.3603 22.4864C23.6231 20.9761 24.0963 18.3244 24.3942 16.6034L24.9375 13.4951H29.3888C32.8236 13.4951 33.8225 13.5478 33.8225 13.7059C33.8225 13.8288 33.3844 16.3751 32.8587 19.3429C32.3329 22.3283 31.8948 24.8746 31.8948 25.0151C31.8948 25.2083 32.2628 25.261 33.9101 25.261C35.8554 25.261 35.9255 25.2434 36.0131 24.8571C36.0481 24.6464 36.4863 22.1351 36.977 19.2903C38.2212 12.0727 38.8346 8.5605 39.3603 5.59269C39.6057 4.18781 39.851 2.78294 39.9036 2.46684L39.9912 1.90489H37.9583C36.8368 1.90489 35.9255 1.92245 35.9255 1.94001C35.9079 1.97513 35.61 3.64342 35.2595 5.6805L34.6111 9.3683H30.1423H25.6735L25.7436 8.92928C25.7612 8.68343 26.0591 7.01513 26.3745 5.18879L26.9353 1.90489H24.8849H22.8521L22.3614 4.74977Z" fill="#161625"/>
<path d="M41.4811 2.46684C38.9925 16.8844 39.0451 16.5332 39.1152 18.2366C39.1678 19.6942 39.2554 20.0629 39.7812 21.1342C40.7976 23.2766 42.8129 24.9098 45.0561 25.419C46.8436 25.8405 49.3847 25.5771 51.1372 24.8044C52.2938 24.2951 52.3113 24.4356 51.3475 26.42C50.1383 28.9312 48.4384 30.4239 45.7396 31.3371C45.0035 31.5829 44.2675 31.6707 42.6727 31.6707C40.8502 31.6707 40.4471 31.6181 39.6935 31.2668C38.3266 30.6346 37.538 30.02 36.9422 29.0893L36.3989 28.2464H34.3836H32.3857L32.4909 28.8083C32.7362 30.0727 33.8052 31.8639 34.9443 32.9527C37.1875 35.06 39.7636 35.9029 43.3737 35.7273C45.8798 35.622 47.2817 35.2883 49.1569 34.3927C51.7505 33.1283 53.4329 31.4424 54.8173 28.6678C55.7286 26.859 56.1142 25.4717 56.7626 21.7488C57.0605 20.0629 57.4285 18.0083 57.5687 17.1829C58.5151 11.8971 60.1098 2.53708 60.1098 2.25611C60.1098 1.92245 59.9871 1.90489 58.0945 1.90489C56.9904 1.90489 56.0791 1.95757 56.0791 2.02782C56.0791 2.43172 53.7308 15.8307 53.5205 16.5859C53.135 18.0434 52.0309 19.501 50.6815 20.4142C49.3146 21.3098 48.5085 21.5732 47.0539 21.5732C44.7056 21.5556 43.0583 19.9224 43.0758 17.622C43.0758 17.1303 43.6366 13.5478 44.3201 9.63172C45.0035 5.73318 45.5643 2.3966 45.5643 2.22099C45.5643 1.94001 45.3715 1.90489 43.5665 1.90489H41.5687L41.4811 2.46684Z" fill="#161625"/>
<path d="M64.4381 2.02781C64.368 2.08049 64.3154 4.66196 64.3154 7.73513V13.3195H65.4545H66.5936V10.7732V8.22684H68.7842H70.9748V10.7732V13.3195H72.1139H73.253V7.6122V1.88732L72.1665 1.94001L71.0624 1.99269L71.0274 4.10001C71.0099 5.25903 70.9923 6.31269 70.9748 6.43562C70.9748 6.61123 70.4841 6.64635 68.8368 6.61123L66.6813 6.55854L66.6287 4.22293L66.5761 1.90489H65.5597C64.9989 1.90489 64.4907 1.95757 64.4381 2.02781Z" fill="#161625"/>
<path d="M118.817 1.99269C118.817 2.06293 119.729 3.62586 120.833 5.48732L122.848 8.84147V11.0893V13.3195H123.987H125.126V11.0542V8.77123L127.142 5.41708C128.246 3.59074 129.157 2.02781 129.157 1.97513C129.157 1.92245 128.631 1.90489 127.983 1.94001L126.809 1.99269L125.477 4.48635C124.758 5.8561 124.127 6.99757 124.075 6.99757C124.022 6.99757 123.391 5.87367 122.655 4.48635L121.323 1.99269L120.062 1.94001C119.378 1.90489 118.817 1.94001 118.817 1.99269Z" fill="#161625"/>
<path d="M77.7047 4.9078C76.3553 5.13609 75.8295 5.36438 75.9522 5.69804C76.0048 5.85609 76.0573 6.15463 76.0573 6.38292C76.0573 6.80438 76.0573 6.80438 76.7759 6.55853C77.1789 6.41804 77.9325 6.29512 78.4582 6.29512C79.2819 6.29512 79.4922 6.36536 79.9303 6.80438C80.2107 7.10292 80.4385 7.50682 80.4385 7.75268C80.4385 8.17414 80.4035 8.17414 78.7211 8.26195C76.0573 8.38487 75.0059 9.15756 75.0059 10.9839C75.0059 12.5293 76.0223 13.4951 77.6871 13.4951C78.7211 13.4951 79.3345 13.2493 80.053 12.5644L80.6138 12.02V12.6698V13.3195H81.5951H82.5941L82.5064 10.2815C82.4188 6.94487 82.2611 6.33024 81.3498 5.55756C81.0519 5.3117 80.4035 5.01317 79.9128 4.9078C78.9314 4.69707 78.9664 4.69707 77.7047 4.9078ZM80.3334 10.141C80.3158 10.8083 80.2282 11.0015 79.6499 11.5283C79.0716 12.0551 78.9139 12.1254 78.283 12.0376C77.4243 11.9146 77.0562 11.5634 77.0562 10.8785C77.0562 9.87756 78.0902 9.28048 79.6499 9.33317L80.3509 9.36829L80.3334 10.141Z" fill="#161625"/>
<path d="M87.8862 4.90782C86.8347 5.10099 86.3265 5.32928 85.643 5.92635C83.8029 7.54196 83.8905 11.0015 85.7832 12.582C86.8522 13.46 88.7273 13.7585 90.2695 13.2844C90.9355 13.0912 90.953 13.0737 90.953 12.2483V11.4054L90.3396 11.6688C88.7098 12.3537 87.0275 11.5459 86.5893 9.86001C85.9935 7.66489 88.0439 5.83855 90.1819 6.64635C90.7602 6.87465 90.953 6.66391 90.953 5.82099C90.953 5.34684 90.8654 5.24148 90.3922 5.10099C89.4984 4.82001 88.6572 4.76733 87.8862 4.90782Z" fill="#161625"/>
<path d="M104.219 4.90782C102.905 5.04831 101.906 5.73318 101.31 6.87465C100.101 9.26294 101.117 12.459 103.343 13.2142C104.272 13.5303 106.322 13.5829 107.304 13.302C107.935 13.1264 107.952 13.1088 107.952 12.3185C107.952 11.6512 107.899 11.5459 107.672 11.6337C106.182 12.1956 104.64 12.1605 103.851 11.5459C103.396 11.1946 102.87 10.3517 102.87 9.98294C102.87 9.87757 103.851 9.80733 105.761 9.80733H108.653V8.8766C108.653 8.38489 108.565 7.66489 108.46 7.29611C108.285 6.62879 107.444 5.54001 106.901 5.24148C106.305 4.92538 105.218 4.78489 104.219 4.90782ZM105.674 6.38294C106.235 6.66392 106.725 7.45416 106.725 8.05123C106.725 8.38489 106.62 8.40245 104.798 8.40245C103.588 8.40245 102.87 8.33221 102.87 8.22684C102.87 7.71757 103.448 6.78684 103.956 6.47074C104.657 6.04928 104.99 6.03172 105.674 6.38294Z" fill="#161625"/>
<path d="M131.347 4.87271C129.753 5.15369 128.543 6.15466 128.123 7.50686C127.79 8.66588 127.877 10.3166 128.351 11.3176C129.087 12.9156 130.419 13.583 132.609 13.46C134.081 13.3722 134.747 13.1088 135.536 12.3361C136.429 11.4405 136.605 10.9137 136.605 9.19271C136.605 7.78783 136.552 7.52442 136.114 6.78686C135.851 6.33027 135.431 5.821 135.15 5.62783C134.256 4.99564 132.574 4.66198 131.347 4.87271ZM133.328 6.64637C134.064 7.10295 134.414 7.92832 134.414 9.19271C134.414 10.8786 133.573 11.9147 132.224 11.9147C130.348 11.9147 129.385 9.14003 130.611 7.31369C131.312 6.27759 132.311 6.03173 133.328 6.64637Z" fill="#161625"/>
<path d="M153.078 4.89025C152.307 5.06586 151.729 5.38196 151.291 5.90879L150.888 6.38293L150.87 5.8561C150.853 5.55757 150.853 5.27659 150.87 5.18879C150.87 5.11854 150.45 5.06586 149.924 5.06586H148.96V9.19269V13.3195H149.994H151.045L151.098 10.5273L151.151 7.71757L151.659 7.19074C152.342 6.47074 153.481 6.41806 154.13 7.08537C154.568 7.50684 154.568 7.55952 154.568 10.422V13.3195H155.672H156.758L156.671 9.94781C156.583 6.75171 156.566 6.52342 156.18 5.97903C155.514 5.0483 154.287 4.62683 153.078 4.89025Z" fill="#161625"/>
<path d="M161.49 4.89025C160.579 5.10098 159.843 5.57513 159.405 6.26C158.195 8.08634 158.423 11.0541 159.86 12.3888C161.122 13.5829 163.102 13.6005 164.347 12.4415L164.907 11.8971V12.8629C164.907 13.7059 164.837 13.9166 164.364 14.461C163.488 15.462 161.911 15.6551 160.281 14.9878L159.685 14.742L159.58 15.3917C159.527 15.7429 159.475 16.1293 159.475 16.2346C159.475 16.8317 163.4 17.0776 164.697 16.5507C165.643 16.182 166.572 15.1107 166.817 14.1098C166.923 13.6532 167.01 11.6337 167.01 9.21025V5.06586H166.046H165.083V5.69805V6.33025L164.382 5.69805C163.996 5.36439 163.488 5.03074 163.242 4.97805C162.279 4.78488 161.998 4.76732 161.49 4.89025ZM163.943 6.75171C164.452 7.08537 164.907 8.19171 164.907 9.06976C164.89 9.91269 164.347 11.1244 163.838 11.4054C162.822 11.9322 161.683 11.5459 161.122 10.4746C160.579 9.42098 160.947 7.34878 161.77 6.75171C162.296 6.40049 163.4 6.38293 163.943 6.75171Z" fill="#161625"/>
<path d="M113.718 5.15366C113.455 5.29415 113.087 5.66293 112.877 5.97903L112.509 6.55854V5.80342V5.06586H111.545H110.581V9.19269V13.3195H111.633H112.684L112.702 10.9839C112.702 9.66684 112.789 8.40245 112.912 8.05123C113.175 7.27854 114.104 6.64635 114.98 6.64635H115.663V5.7683V4.89025H114.927C114.507 4.90781 113.963 5.01318 113.718 5.15366Z" fill="#161625"/>
<path d="M138.48 8.17419C138.533 10.9137 138.585 11.3878 138.901 12.0025C139.777 13.7059 142.336 13.9869 143.79 12.5118L144.404 11.8971V12.6171V13.3196H145.367H146.331V9.19273V5.0659H145.28H144.228V7.29614C144.228 9.93029 144.053 10.6854 143.335 11.2825C142.756 11.7742 142.213 11.8444 141.547 11.5459C140.811 11.2122 140.653 10.6152 140.583 7.73517L140.513 5.0659H139.462H138.41L138.48 8.17419Z" fill="#161625"/>
<path d="M69.2227 20.5195C69.2227 23.0132 69.2577 23.5049 69.4855 23.5049C69.6783 23.5049 69.7484 23.1712 69.7834 21.9946C69.836 20.5546 69.8711 20.4493 70.3267 20.0981C70.7824 19.7644 70.8525 19.7644 71.2906 20.0102C71.7462 20.2561 71.7637 20.3263 71.8163 21.8893C71.8514 23.1712 71.9215 23.5049 72.1142 23.5049C72.3245 23.5049 72.3771 23.2063 72.3771 21.9946C72.3771 20.5722 72.2019 19.8873 71.7813 19.6063C71.4308 19.3605 70.3968 19.4659 70.0638 19.7644C69.7659 20.0278 69.7484 19.9927 69.7484 18.7985C69.7484 17.7976 69.6958 17.5341 69.4855 17.5341C69.2577 17.5341 69.2227 17.9907 69.2227 20.5195Z" fill="#161625"/>
<path d="M96.7363 18.781V20.0102L96.3508 19.7468C95.7724 19.3253 94.9137 19.3956 94.3354 19.8873C93.8973 20.2736 93.8447 20.4141 93.8447 21.4853C93.8447 22.5917 93.8798 22.6795 94.423 23.1712C95.089 23.7683 95.6322 23.821 96.2807 23.3117C96.6487 23.0132 96.7363 22.9956 96.7363 23.2239C96.7363 23.3819 96.859 23.5049 96.9992 23.5049C97.227 23.5049 97.262 23.0483 97.262 20.5195C97.262 17.9907 97.227 17.5341 96.9992 17.5341C96.7889 17.5341 96.7363 17.7975 96.7363 18.781ZM96.2982 20.2561C97.2095 21.1517 96.6662 23.1536 95.5096 23.1536C94.721 23.1536 94.2303 22.3985 94.3354 21.3273C94.4581 19.9224 95.4395 19.378 96.2982 20.2561Z" fill="#161625"/>
<path d="M65.7353 18.2717C64.1405 19.062 63.8251 21.4503 65.1394 22.8376C65.6652 23.3995 66.9445 23.7332 67.8032 23.54C68.8546 23.3117 68.6268 23.0308 67.4001 23.0483C66.0332 23.0659 65.4023 22.6971 65.0343 21.6434C64.3683 19.7293 65.8229 18.061 67.8733 18.4298C68.3464 18.5 68.5217 18.4825 68.5217 18.3244C68.5217 17.7625 66.8218 17.7273 65.7353 18.2717Z" fill="#161625"/>
<path d="M102.169 17.9205C102.169 17.9556 101.661 19.2376 101.047 20.7478C100.189 22.8376 99.9783 23.5049 100.171 23.5049C100.329 23.5049 100.574 23.1888 100.714 22.8024L100.995 22.1H102.467H103.956L104.219 22.8024C104.377 23.1888 104.605 23.5049 104.745 23.5049C104.868 23.5049 104.973 23.4346 104.973 23.3468C104.973 23.259 104.5 22.0298 103.939 20.5898C103.098 18.5176 102.817 17.9556 102.537 17.9205C102.327 17.8854 102.169 17.8854 102.169 17.9205ZM103.133 19.94C103.431 20.6776 103.694 21.3449 103.711 21.4327C103.746 21.5029 103.203 21.5732 102.519 21.5732C101.38 21.5732 101.275 21.5381 101.38 21.2571C102.064 19.4483 102.432 18.5878 102.519 18.5878C102.572 18.5878 102.852 19.2024 103.133 19.94Z" fill="#161625"/>
<path d="M80.9641 18.939C80.9641 19.378 80.894 19.4658 80.526 19.4658C79.9827 19.4658 79.9477 19.7644 80.4909 19.8522C80.859 19.9049 80.8765 20.0102 80.9641 21.6258C81.0517 23.4346 81.1744 23.6805 81.9805 23.6805C82.1908 23.6805 82.3661 23.5751 82.3661 23.4346C82.3661 23.2941 82.1908 23.1537 81.9805 23.1185C81.595 23.0658 81.5775 22.978 81.5249 21.4151L81.4723 19.7819L81.928 19.8522C82.2259 19.9224 82.3661 19.8697 82.3661 19.7117C82.3661 19.5712 82.1733 19.4658 81.928 19.4658C81.5599 19.4658 81.4898 19.378 81.4898 18.939C81.4898 18.5878 81.4022 18.4122 81.227 18.4122C81.0517 18.4122 80.9641 18.5878 80.9641 18.939Z" fill="#161625"/>
<path d="M127.229 18.939C127.229 19.378 127.159 19.4658 126.791 19.4658C126.546 19.4658 126.353 19.5712 126.353 19.6941C126.353 19.8346 126.528 19.9224 126.756 19.9224C127.124 19.9049 127.142 19.9751 127.194 21.5732C127.229 22.8902 127.299 23.2941 127.527 23.4522C127.93 23.7683 128.631 23.7332 128.631 23.4171C128.631 23.2766 128.474 23.1536 128.281 23.1536C127.755 23.1536 127.562 22.5741 127.615 21.1693C127.667 19.94 127.685 19.9049 128.158 19.8522C128.806 19.7819 128.771 19.4658 128.105 19.4658C127.632 19.4658 127.58 19.4132 127.58 18.939C127.58 18.6405 127.51 18.4122 127.405 18.4122C127.317 18.4122 127.229 18.6405 127.229 18.939Z" fill="#161625"/>
<path d="M138.62 18.939C138.62 19.378 138.55 19.4658 138.182 19.4658C137.937 19.4658 137.744 19.5361 137.744 19.6415C137.744 19.8171 137.797 19.8346 138.322 19.8873C138.463 19.9049 138.568 20.4317 138.62 21.6258C138.708 23.4346 138.831 23.6805 139.637 23.6805C139.847 23.6805 140.022 23.5751 140.022 23.4346C140.022 23.2941 139.847 23.1537 139.637 23.1185C139.251 23.0658 139.234 22.978 139.181 21.4327C139.129 19.8346 139.146 19.7995 139.514 19.8522C139.724 19.8873 139.935 19.7995 139.97 19.6766C140.022 19.5537 139.882 19.4658 139.602 19.4658C139.216 19.4658 139.146 19.3956 139.146 18.939C139.146 18.5878 139.058 18.4122 138.883 18.4122C138.708 18.4122 138.62 18.5878 138.62 18.939Z" fill="#161625"/>
<path d="M74.1819 19.5888C74.0592 19.6239 73.9541 19.782 73.9541 19.9224C73.9541 20.0981 74.0592 20.1156 74.4097 19.9927C75.0582 19.7468 75.321 19.782 75.7066 20.1683C76.2849 20.7478 76.1447 20.9937 75.1633 21.1166C73.6036 21.3273 72.9026 22.539 73.884 23.3117C74.4448 23.7507 74.8479 23.7683 75.5313 23.4171C75.8292 23.259 76.0571 23.2239 76.0571 23.3293C76.0571 23.4171 76.1797 23.5049 76.3199 23.5049C76.5302 23.5049 76.5828 23.2064 76.5828 21.942C76.5828 20.6424 76.5302 20.3264 76.2148 19.9224C75.9344 19.5537 75.7241 19.4659 75.1283 19.4834C74.7252 19.4834 74.2871 19.5361 74.1819 19.5888ZM76.0571 21.9771C76.0571 22.6444 75.5664 23.1537 74.9355 23.1537C73.4809 23.1537 73.6912 21.6961 75.1808 21.5381C75.9694 21.4678 76.0571 21.5029 76.0571 21.9771Z" fill="#161625"/>
<path d="M77.9849 21.4854C77.9849 23.1712 78.0374 23.5049 78.2477 23.5049C78.458 23.5049 78.5106 23.2239 78.5106 22.0473C78.5106 20.502 78.6859 20.1156 79.4569 19.9751C79.6497 19.94 79.825 19.7995 79.8775 19.6766C79.9652 19.3781 79.124 19.4132 78.8611 19.7293C78.7384 19.8698 78.5807 19.9927 78.4931 19.9927C78.4055 19.9927 78.3354 19.8698 78.3354 19.7293C78.3354 19.5888 78.2653 19.4659 78.1601 19.4659C78.055 19.4659 77.9849 20.2561 77.9849 21.4854Z" fill="#161625"/>
<path d="M83.838 19.7293C82.8566 20.3966 82.8216 22.3634 83.7504 23.1888C84.4864 23.8386 86.0461 23.8737 86.0461 23.2239C86.0461 23.0483 85.941 23.0307 85.5554 23.1712C84.6617 23.4873 83.6102 22.8376 83.5927 21.9595C83.5927 21.5907 83.6628 21.5732 84.9947 21.5732C86.3791 21.5732 86.3966 21.5732 86.3966 21.1342C86.3966 20.5547 85.9585 19.7117 85.608 19.5712C85.0998 19.3781 84.206 19.4659 83.838 19.7293ZM85.5204 20.1683C85.7132 20.3615 85.8709 20.6776 85.8709 20.8707C85.8709 21.1868 85.7482 21.222 84.7318 21.222C83.435 21.222 83.2772 20.9937 84.0308 20.2561C84.539 19.7293 85.0472 19.6942 85.5204 20.1683Z" fill="#161625"/>
<path d="M87.4482 21.4854C87.4482 23.1712 87.5008 23.5049 87.7111 23.5049C87.9214 23.5049 87.974 23.2415 87.974 22.1351C87.974 20.6424 88.2193 20.0629 88.8853 19.9576C89.0956 19.9224 89.2883 19.7995 89.3409 19.6766C89.4461 19.3254 88.6399 19.4307 88.2018 19.8522L87.7987 20.221V19.8522C87.7987 19.6415 87.7286 19.4659 87.6235 19.4659C87.5183 19.4659 87.4482 20.2561 87.4482 21.4854Z" fill="#161625"/>
<path d="M90.3572 19.8698C89.516 20.7127 89.6212 22.5917 90.55 23.3293C91.2159 23.8386 92.8808 23.7683 92.8808 23.2064C92.8808 23.0132 92.7756 22.9956 92.4952 23.101C91.7417 23.3468 91.0757 23.2239 90.6551 22.7322C90.4273 22.4688 90.2521 22.1 90.2521 21.9068C90.2521 21.6083 90.3747 21.5732 91.7592 21.5732C93.056 21.5732 93.2488 21.5381 93.1612 21.2922C93.1086 21.1342 93.056 20.8708 93.056 20.6776C93.056 19.5888 91.1809 19.0444 90.3572 19.8698ZM92.1447 20.1156C92.3375 20.2912 92.5478 20.6073 92.6179 20.8181C92.723 21.2044 92.688 21.222 91.4788 21.222C90.2696 21.222 90.2345 21.2044 90.3397 20.8181C90.4799 20.3264 91.0582 19.8171 91.4788 19.8171C91.654 19.8171 91.952 19.9576 92.1447 20.1156Z" fill="#161625"/>
<path d="M106.638 19.6239C106.025 19.8873 105.639 20.4844 105.551 21.2747C105.429 22.2581 105.849 23.0659 106.62 23.4522C107.304 23.7683 108.478 23.6454 108.478 23.2415C108.478 23.0483 108.338 23.0132 107.952 23.0834C107.164 23.2415 106.585 23.0307 106.287 22.4512C105.604 21.1342 106.27 19.9927 107.689 19.9927C108.268 19.9927 108.478 19.9225 108.443 19.7644C108.355 19.5186 107.146 19.4132 106.638 19.6239Z" fill="#161625"/>
<path d="M110.301 19.6415C109.232 20.0805 108.793 21.9068 109.529 22.8375C110.003 23.4522 110.791 23.7507 111.545 23.6102C112.491 23.4346 112.351 22.9956 111.387 23.101C110.721 23.1888 110.546 23.1361 110.16 22.7497C109.582 22.1702 109.547 21.1341 110.073 20.4493C110.371 20.0629 110.563 19.9927 111.317 19.9927C111.93 19.9927 112.158 19.9224 112.123 19.7644C112.035 19.5185 110.826 19.4132 110.301 19.6415Z" fill="#161625"/>
<path d="M113.367 19.9751C112.947 20.4141 112.859 20.6249 112.859 21.3976C112.859 22.8727 113.525 23.6805 114.717 23.6805C115.33 23.6805 116.118 23.1888 116.346 22.6795C116.802 21.6961 116.434 20.0454 115.68 19.6415C115.488 19.5537 115.014 19.4658 114.611 19.4658C114.033 19.4658 113.77 19.5712 113.367 19.9751ZM115.488 20.1332C116.083 20.6073 116.171 22.0297 115.663 22.6619C115.172 23.2941 114.261 23.3293 113.735 22.7673C113.209 22.1878 113.244 20.818 113.823 20.2561C114.331 19.7293 114.944 19.6941 115.488 20.1332Z" fill="#161625"/>
<path d="M117.678 19.6239C117.626 19.7292 117.626 20.4844 117.678 21.3449C117.748 22.7322 117.801 22.9253 118.204 23.2766C118.765 23.7858 119.343 23.7858 119.939 23.3117C120.307 23.0132 120.394 22.9956 120.394 23.2239C120.394 23.3819 120.517 23.5049 120.657 23.5049C120.868 23.5049 120.92 23.1712 120.92 21.4853C120.92 19.8697 120.868 19.4658 120.675 19.4658C120.482 19.4658 120.412 19.8171 120.377 20.941C120.289 22.6795 119.991 23.2063 119.098 23.1185C118.362 23.0483 118.116 22.4863 118.116 20.818C118.116 19.5888 117.958 19.1849 117.678 19.6239Z" fill="#161625"/>
<path d="M122.322 21.4854C122.322 23.1712 122.375 23.5049 122.585 23.5049C122.795 23.5049 122.848 23.2239 122.848 22.1C122.848 20.8181 122.901 20.6424 123.286 20.2561C123.777 19.7468 124.022 19.7117 124.565 20.0981C124.916 20.3439 124.951 20.502 124.951 21.942C124.951 23.259 125.004 23.5049 125.231 23.5049C125.477 23.5049 125.494 23.259 125.442 21.7312C125.407 20.221 125.337 19.9224 125.056 19.7117C124.6 19.3956 123.707 19.3956 123.269 19.7293C122.83 20.0629 122.673 20.0629 122.673 19.7293C122.673 19.5888 122.603 19.4659 122.498 19.4659C122.392 19.4659 122.322 20.2561 122.322 21.4854Z" fill="#161625"/>
<path d="M129.98 19.659C129.525 19.9224 129.788 20.1859 130.313 19.9927C130.559 19.8873 130.857 19.8171 130.979 19.8171C131.312 19.8171 131.733 20.221 131.873 20.6424C131.961 20.9937 131.926 21.0463 131.558 21.0463C130.156 21.0463 129.332 21.5907 129.332 22.5215C129.332 23.1888 129.577 23.4522 130.348 23.6102C130.734 23.6981 131.049 23.6278 131.382 23.4171C131.698 23.2063 131.873 23.1712 131.926 23.2941C131.961 23.4171 132.066 23.5049 132.154 23.5049C132.241 23.5049 132.311 22.7322 132.311 21.7839C132.311 20.3263 132.259 19.9927 131.996 19.7644C131.628 19.4307 130.471 19.3781 129.98 19.659ZM131.891 22.1702C131.715 22.8727 131.295 23.1712 130.576 23.1185C130.033 23.0659 129.945 22.9956 129.893 22.5566C129.805 21.9068 130.033 21.7137 130.944 21.5732C131.838 21.4502 132.048 21.5732 131.891 22.1702Z" fill="#161625"/>
<path d="M133.713 21.4678C133.713 23.1537 133.766 23.5049 133.976 23.5049C134.187 23.5049 134.239 23.2239 134.239 22.1C134.239 20.8181 134.292 20.6424 134.677 20.2561C135.168 19.7468 135.413 19.7117 135.957 20.0981C136.307 20.3439 136.342 20.502 136.342 21.942C136.342 23.2063 136.395 23.5049 136.605 23.5049C136.815 23.5049 136.868 23.2063 136.868 21.8366C136.868 20.3966 136.815 20.1156 136.517 19.8171C136.097 19.3956 135.15 19.3605 134.66 19.7293C134.257 20.0278 134.046 20.0629 134.116 19.7995C134.134 19.6942 134.046 19.5537 133.941 19.5185C133.766 19.4483 133.713 19.9224 133.713 21.4678Z" fill="#161625"/>
<path d="M141.126 19.7293C140.338 20.2913 140.671 20.9937 142.108 21.7839C143.124 22.3459 142.669 23.2415 141.424 23.1186C140.636 23.0483 140.425 23.4171 141.161 23.6103C142.143 23.8561 143.177 23.2591 143.177 22.4337C143.177 21.942 142.844 21.5908 141.792 21.0113C141.494 20.8532 141.249 20.5898 141.249 20.4493C141.249 20.0454 141.897 19.782 142.511 19.9049C142.914 20.0103 143.019 19.9752 142.966 19.7995C142.844 19.4483 141.582 19.3956 141.126 19.7293Z" fill="#161625"/>
<path d="M0 28.861V29.3H14.9836H29.9672V28.861V28.4219H14.9836H0V28.861Z" fill="#161625"/>
<path d="M58.1821 28.861V29.3H112.596H167.01V28.861V28.4219H112.596H58.1821V28.861Z" fill="#161625"/>
</g>
<defs>
<clipPath id="clip0_483_12465">
<rect width="167" height="36" fill="white" transform="translate(0 0.5)"/>
</clipPath>
</defs>
</svg>
